<svg xmlns="http://www.w3.org/2000/svg" xmlns:xlink="http://www.w3.org/1999/xlink" viewBox="0 0 115.85 94.51"><defs><style>.cls-1{fill:#81cfb4;}.cls-2{fill:none;}.cls-3{fill:#e08e00;}.cls-4{fill:#d9d3ca;}.cls-5{isolation:isolate;}.cls-6{fill:#d1c1c1;}.cls-7{fill:#d1c4c4;}.cls-8{fill:#ede7dd;}.cls-9{clip-path:url(#clip-path);}.cls-10{fill:#9de0c9;}.cls-11{clip-path:url(#clip-path-2);}.cls-12{fill:#fff;}.cls-13{fill:#e05764;}.cls-14{clip-path:url(#clip-path-3);}.cls-15{fill:#bfb7ae;}.cls-16{fill:#c4bdb4;}.cls-17{clip-path:url(#clip-path-4);}.cls-18{clip-path:url(#clip-path-5);}.cls-19{fill:#ed616f;}.cls-20{clip-path:url(#clip-path-6);}.cls-21{fill:#b0a8a0;}.cls-22{clip-path:url(#clip-path-7);}.cls-23{fill:#ed9f18;}.cls-24{fill:#ffbf2b;}.cls-25{clip-path:url(#clip-path-8);}.cls-26{clip-path:url(#clip-path-9);}.cls-27{fill:#bd2836;}.cls-28{fill:#b8aea7;}.cls-29,.cls-31{mix-blend-mode:multiply;}.cls-30{fill:#9bcfbd;}.cls-31{fill:#d1cdc4;}.cls-32{fill:#c9c0b9;}.cls-33{fill:#a39b93;}.cls-34{fill:#8a8680;}.cls-35{fill:#524f48;}.cls-36{fill:#2c2a26;}.cls-37{fill:#312f2b;}.cls-38{fill:#827d72;}.cls-39{fill:#5c5851;}.cls-40{fill:#615d55;}.cls-41{fill:#dbdbdb;}.cls-42{fill:#c2c1c0;}.cls-43{fill:#a8a8a8;}.cls-44{fill:#6e5535;}.cls-45{fill:#c7c7c7;}.cls-46{fill:#8f5100;}.cls-47{fill:#778f00;}.cls-48{fill:#9ab50d;}.cls-49{fill:#667a00;}.cls-50{fill:#8ca800;}</style><clipPath id="clip-path" transform="translate(0 1.23)"><polygon class="cls-1" points="89 61.48 48.34 38 48.34 9.35 89 32.82 89 61.48"/></clipPath><clipPath id="clip-path-2" transform="translate(0 1.23)"><polygon class="cls-2" points="89 61.48 48.34 38 48.34 9.35 89 32.82 89 61.48"/></clipPath><clipPath id="clip-path-3" transform="translate(0 1.23)"><polygon class="cls-4" points="90.16 24.89 47.05 0 48.57 7.06 88.65 30.2 90.16 24.89"/></clipPath><clipPath id="clip-path-4" transform="translate(0 1.23)"><polygon class="cls-1" points="54.22 81.52 13.56 58.05 13.56 29.39 54.22 52.87 54.22 81.52"/></clipPath><clipPath id="clip-path-5" transform="translate(0 1.23)"><polygon class="cls-2" points="54.22 81.52 13.56 58.05 13.56 29.39 54.22 52.87 54.22 81.52"/></clipPath><clipPath id="clip-path-6" transform="translate(0 1.23)"><polygon class="cls-2" points="55.38 44.93 12.28 20.05 13.79 27.11 53.87 50.24 55.38 44.93"/></clipPath><clipPath id="clip-path-7" transform="translate(0 1.23)"><path class="cls-3" d="M43.49,27.22,26.58,17.45a1.59,1.59,0,0,0-1.49-.18,1.11,1.11,0,0,0-.24.16l-1.71,1.18,1.24,1.18v4.12a1.2,1.2,0,0,0,.56.95L37.29,32l6.22,5.87,2-1.32a.45.45,0,0,0,.17-.38V30.91A4.71,4.71,0,0,0,43.49,27.22Z"/></clipPath><clipPath id="clip-path-8" transform="translate(0 1.23)"><polygon class="cls-1" points="54.22 81.52 89 61.21 89 32.55 54.22 52.87 54.22 81.52"/></clipPath><clipPath id="clip-path-9" transform="translate(0 1.23)"><polygon class="cls-2" points="54.22 81.52 89 61.21 89 32.55 54.22 52.87 54.22 81.52"/></clipPath></defs><g class="cls-5"><g id="Capa_2" data-name="Capa 2"><g id="Ñëîé_2" data-name="Ñëîé 2"><polygon class="cls-6" points="65.63 92.37 72.12 92.4 71.8 92.79 65.36 92.77 65.63 92.37"/><polygon class="cls-6" points="71.01 92.52 72.03 91.9 73.73 91.59 77.88 91.44 78.47 91.77 78.46 92.68 77.67 93.54 76.19 94.42 74.27 94.51 70.56 93.88 70.44 93.24 71.01 92.52"/><path class="cls-6" d="M71.05,92.48c-1.53-.14-1.58-.18-1.6-.21s-.09-.08.15-.9l.16,0c-.08.28-.16.61-.18.73.19,0,.87.11,1.49.16Z" transform="translate(0 1.23)"/><path class="cls-6" d="M70.53,91.32l-.1-.13a3.24,3.24,0,0,1,1.94-.59v.17A3.17,3.17,0,0,0,70.53,91.32Z" transform="translate(0 1.23)"/><polygon class="cls-6" points="79.89 86.19 86.38 86.21 86.06 86.61 79.62 86.58 79.89 86.19"/><polygon class="cls-6" points="85.28 86.34 86.3 85.72 88 85.41 92.14 85.26 92.74 85.59 92.72 86.49 91.93 87.35 90.45 88.24 88.53 88.32 84.82 87.69 84.7 87.06 85.28 86.34"/><path class="cls-6" d="M85.31,86.3a6.73,6.73,0,0,1-1.6-.21s-.08-.08.15-.9l.16,0a5.28,5.28,0,0,0-.17.72c.18,0,.86.11,1.48.17Z" transform="translate(0 1.23)"/><path class="cls-6" d="M84.79,85.14l-.1-.13a3.17,3.17,0,0,1,1.94-.59v.17A3.1,3.1,0,0,0,84.79,85.14Z" transform="translate(0 1.23)"/><polygon class="cls-6" points="92.87 78.45 99.36 78.47 99.04 78.86 92.6 78.84 92.87 78.45"/><polygon class="cls-6" points="98.26 78.59 99.28 77.98 100.98 77.66 105.12 77.52 105.72 77.84 105.71 78.75 104.91 79.61 103.43 80.49 101.51 80.58 97.8 79.95 97.68 79.31 98.26 78.59"/><path class="cls-6" d="M98.29,78.55a6.65,6.65,0,0,1-1.6-.2s-.08-.08.15-.9l.16,0a5.71,5.71,0,0,0-.17.73c.18,0,.86.11,1.48.17Z" transform="translate(0 1.23)"/><path class="cls-6" d="M97.77,77.4l-.1-.13a3.21,3.21,0,0,1,1.94-.6v.17A3.07,3.07,0,0,0,97.77,77.4Z" transform="translate(0 1.23)"/><polygon class="cls-7" points="54.22 87.46 75.63 87.21 115.85 63.4 62.58 32.19 48.45 64.07 54.22 87.46"/><polygon class="cls-7" points="32.27 88.62 54.22 87.46 53.9 83.92 30.22 87.08 32.27 88.62"/><polygon class="cls-7" points="19.36 81.17 44.91 80.94 40.99 76.47 17.31 79.64 19.36 81.17"/><polygon class="cls-7" points="9.49 75.43 35.05 75.19 31.12 70.73 7.44 73.89 9.49 75.43"/><polygon class="cls-4" points="10.06 61.97 48.34 39.91 92.5 65.4 54.22 87.46 10.06 61.97"/><polygon class="cls-8" points="10.06 59.28 48.34 37.22 92.5 62.71 54.22 84.77 10.06 59.28"/><polygon class="cls-1" points="89 62.71 48.34 39.23 48.34 10.58 89 34.05 89 62.71"/><g class="cls-9"><polygon class="cls-10" points="64.65 12.33 37.5 39.84 41.93 44.01 78.28 17.37 64.65 12.33"/><polygon class="cls-10" points="80.84 19.93 44.38 47.04 45.66 48.18 82.94 21.27 80.84 19.93"/><polygon class="cls-10" points="88.88 28.34 48.69 58.81 52.65 60.15 94.7 32.1 88.88 28.34"/></g><g class="cls-11"><polygon class="cls-12" points="53.61 43.67 53.38 43.53 53.38 11.65 53.61 11.79 53.61 43.67"/><polygon class="cls-12" points="58.65 46.58 58.41 46.44 58.41 14.56 58.65 14.7 58.65 46.58"/><polygon class="cls-12" points="63.69 49.49 63.45 49.35 63.45 17.47 63.69 17.6 63.69 49.49"/><polygon class="cls-12" points="68.72 52.4 68.49 52.26 68.49 20.38 68.72 20.51 68.72 52.4"/><polygon class="cls-12" points="73.76 55.3 73.53 55.17 73.53 23.29 73.76 23.42 73.76 55.3"/><polygon class="cls-12" points="78.8 58.21 78.57 58.08 78.57 26.2 78.8 26.33 78.8 58.21"/><polygon class="cls-12" points="83.84 61.12 83.61 60.99 83.61 29.11 83.84 29.24 83.84 61.12"/><polygon class="cls-12" points="47.97 1.28 47.97 1.06 90.1 25.39 90.1 25.61 47.97 1.28"/><polygon class="cls-12" points="47.97 6 47.97 5.79 90.1 30.11 90.1 30.33 47.97 6"/><polygon class="cls-12" points="47.97 10.73 47.97 10.51 90.1 34.84 90.1 35.05 47.97 10.73"/><polygon class="cls-12" points="47.97 15.45 47.97 15.23 90.1 39.56 90.1 39.78 47.97 15.45"/><polygon class="cls-12" points="47.97 20.17 47.97 19.96 90.1 44.28 90.1 44.5 47.97 20.17"/><polygon class="cls-12" points="47.97 24.9 47.97 24.68 90.1 49.01 90.1 49.22 47.97 24.9"/><polygon class="cls-12" points="47.97 29.62 47.97 29.4 90.1 53.73 90.1 53.95 47.97 29.62"/><polygon class="cls-12" points="47.97 34.34 47.97 34.13 90.1 58.45 90.1 58.67 47.97 34.34"/><polygon class="cls-12" points="47.97 39.07 47.97 38.85 90.1 63.17 90.1 63.39 47.97 39.07"/></g><polygon class="cls-13" points="88.76 31.5 48.57 8.29 48.57 10.78 88.76 33.99 88.76 31.5"/><polygon class="cls-4" points="90.16 26.12 47.05 1.23 48.57 8.29 88.65 31.43 90.16 26.12"/><g class="cls-14"><polygon class="cls-15" points="49.45 13.32 46.54 0 46.99 0.11 49.9 13.43 49.45 13.32"/><polygon class="cls-15" points="52.59 15.12 50.17 2.08 50.62 2.22 53.05 15.26 52.59 15.12"/><polygon class="cls-15" points="55.74 16.92 53.8 4.17 54.26 4.33 56.2 17.09 55.74 16.92"/><polygon class="cls-15" points="58.88 18.73 57.43 6.25 57.89 6.44 59.34 18.91 58.88 18.73"/><polygon class="cls-15" points="62.03 20.53 61.06 8.33 61.52 8.55 62.49 20.75 62.03 20.53"/><polygon class="cls-15" points="65.17 22.33 64.69 10.41 65.15 10.66 65.64 22.57 65.17 22.33"/><polygon class="cls-15" points="68.78 24.4 68.32 24.13 68.32 12.5 68.78 12.77 68.78 24.4"/><polygon class="cls-15" points="71.93 26.23 71.46 25.94 71.95 14.58 72.41 14.88 71.93 26.23"/><polygon class="cls-15" points="75.07 28.06 74.61 27.74 75.58 16.66 76.04 16.98 75.07 28.06"/><polygon class="cls-15" points="78.22 29.89 77.76 29.55 79.21 18.75 79.67 19.09 78.22 29.89"/><polygon class="cls-15" points="81.36 31.72 80.9 31.35 82.84 20.84 83.3 21.2 81.36 31.72"/><polygon class="cls-15" points="84.5 33.54 84.05 33.16 86.48 22.92 86.93 23.31 84.5 33.54"/><polygon class="cls-15" points="87.65 35.37 87.2 34.96 90.11 25.01 90.56 25.41 87.65 35.37"/></g><polygon class="cls-8" points="47.05 1.23 12.28 21.28 55.38 46.16 90.14 26.12 47.05 1.23"/><polygon class="cls-16" points="16.59 21.28 47.05 3.72 85.84 26.12 55.39 43.68 16.59 21.28"/><polygon class="cls-1" points="54.22 82.75 13.56 59.28 13.56 30.63 54.22 54.1 54.22 82.75"/><g class="cls-17"><polygon class="cls-10" points="29.87 32.38 2.73 59.88 7.15 64.06 43.5 37.42 29.87 32.38"/><polygon class="cls-10" points="46.06 39.98 9.6 67.08 10.88 68.23 48.16 41.32 46.06 39.98"/><polygon class="cls-10" points="54.1 48.38 13.91 78.85 17.87 80.2 59.93 52.15 54.1 48.38"/></g><g class="cls-18"><polygon class="cls-12" points="18.83 63.71 18.6 63.58 18.6 31.7 18.83 31.83 18.83 63.71"/><polygon class="cls-12" points="23.87 66.62 23.64 66.49 23.64 34.61 23.87 34.74 23.87 66.62"/><polygon class="cls-12" points="28.91 69.53 28.68 69.4 28.68 37.52 28.91 37.65 28.91 69.53"/><polygon class="cls-12" points="33.95 72.44 33.72 72.31 33.72 40.42 33.95 40.56 33.95 72.44"/><polygon class="cls-12" points="38.99 75.35 38.75 75.22 38.75 43.33 38.99 43.47 38.99 75.35"/><polygon class="cls-12" points="44.03 78.26 43.79 78.12 43.79 46.24 44.03 46.38 44.03 78.26"/><polygon class="cls-12" points="49.06 81.17 48.83 81.03 48.83 49.15 49.06 49.28 49.06 81.17"/><polygon class="cls-12" points="13.19 21.33 13.19 21.11 55.33 45.44 55.33 45.65 13.19 21.33"/><polygon class="cls-12" points="13.19 26.05 13.19 25.83 55.33 50.16 55.33 50.38 13.19 26.05"/><polygon class="cls-12" points="13.19 30.77 13.19 30.55 55.33 54.88 55.33 55.1 13.19 30.77"/><polygon class="cls-12" points="13.19 35.5 13.19 35.28 55.33 59.6 55.33 59.82 13.19 35.5"/><polygon class="cls-12" points="13.19 40.22 13.19 40 55.33 64.33 55.33 64.55 13.19 40.22"/><polygon class="cls-12" points="13.19 44.94 13.19 44.72 55.33 69.05 55.33 69.27 13.19 44.94"/><polygon class="cls-12" points="13.19 49.67 13.19 49.45 55.33 73.77 55.33 73.99 13.19 49.67"/><polygon class="cls-12" points="13.19 54.39 13.19 54.17 55.33 78.5 55.33 78.72 13.19 54.39"/><polygon class="cls-12" points="13.19 59.11 13.19 58.89 55.33 83.22 55.33 83.44 13.19 59.11"/></g><polygon class="cls-19" points="54.15 51.66 13.79 28.34 13.79 30.83 54.22 54.1 54.15 51.66"/><polygon class="cls-4" points="55.38 46.16 12.28 21.28 13.79 28.34 54.15 51.66 55.38 46.16"/><g class="cls-20"><polygon class="cls-15" points="14.68 33.36 11.76 20.05 12.21 20.15 15.12 33.47 14.68 33.36"/><polygon class="cls-15" points="17.82 35.17 15.39 22.13 15.85 22.26 18.27 35.3 17.82 35.17"/><polygon class="cls-15" points="20.96 36.97 19.02 24.21 19.48 24.37 21.42 37.13 20.96 36.97"/><polygon class="cls-15" points="24.11 38.77 22.65 26.29 23.11 26.48 24.57 38.96 24.11 38.77"/><polygon class="cls-15" points="27.25 40.57 26.28 28.38 26.74 28.59 27.71 40.79 27.25 40.57"/><polygon class="cls-15" points="30.4 42.38 29.91 30.46 30.38 30.7 30.86 42.62 30.4 42.38"/><polygon class="cls-15" points="34.01 44.45 33.54 44.18 33.54 32.54 34.01 32.81 34.01 44.45"/><polygon class="cls-15" points="37.15 46.28 36.69 45.98 37.17 34.63 37.64 34.92 37.15 46.28"/><polygon class="cls-15" points="40.3 48.11 39.83 47.79 40.8 36.71 41.27 37.03 40.3 48.11"/><polygon class="cls-15" points="43.44 49.93 42.98 49.59 44.44 38.79 44.9 39.14 43.44 49.93"/><polygon class="cls-15" points="46.59 51.76 46.13 51.4 48.07 40.88 48.53 41.24 46.59 51.76"/><polygon class="cls-15" points="49.73 53.59 49.27 53.2 51.7 42.97 52.16 43.35 49.73 53.59"/><polygon class="cls-15" points="52.87 55.41 52.42 55.01 55.34 45.05 55.78 45.46 52.87 55.41"/></g><polygon class="cls-21" points="47.05 6.77 83.19 27.64 85.84 26.12 47.05 3.72 16.59 21.28 19.23 22.8 47.05 6.77"/><path class="cls-3" d="M43.49,27.22,26.58,17.45a1.59,1.59,0,0,0-1.49-.18,1.11,1.11,0,0,0-.24.16l-1.71,1.18,1.24,1.18v4.12a1.2,1.2,0,0,0,.56.95L37.29,32l6.22,5.87,2-1.32a.45.45,0,0,0,.17-.38V30.91A4.71,4.71,0,0,0,43.49,27.22Z" transform="translate(0 1.23)"/><g class="cls-22"><polygon class="cls-23" points="40.82 30.91 49.12 26.2 50.16 27.55 39.54 33.8 40.82 30.91"/></g><path class="cls-24" d="M43.14,37.82,23,26.19a1.22,1.22,0,0,1-.55-1V20.05c0-1.4,1-2,2.19-1.27l16.92,9.77a4.7,4.7,0,0,1,2.13,3.69V37.5C43.69,37.85,43.44,38,43.14,37.82Z" transform="translate(0 1.23)"/><path class="cls-12" d="M28,22.43v4.45l-1.05-.61v-3L26.51,26l-.74-.43-.44-3.19v2.93l-1.05-.61V20.29l1.56.9c0,.29.09.63.14,1l.17,1.23.28-1.91Z" transform="translate(0 1.23)"/><path class="cls-12" d="M30.54,23.91l.69,4.84L30,28l-.06-.83L29.51,27l-.08.75L28.19,27l.62-4.1Zm-.63,2.49c-.07-.54-.13-1.2-.19-2-.12.78-.2,1.35-.23,1.73Z" transform="translate(0 1.23)"/><path class="cls-12" d="M31.43,24.42l.86.49a11.94,11.94,0,0,1,1.15.73,1.86,1.86,0,0,1,.49.61,2,2,0,0,1,.19.94c0,.34,0,.55-.14.62s-.26,0-.52-.09a2.38,2.38,0,0,1,.48.5,1.34,1.34,0,0,1,.15.35,4.43,4.43,0,0,1,0,.68v1.17L33,29.77V28.3a1.25,1.25,0,0,0-.06-.48.73.73,0,0,0-.3-.26v2l-1.21-.69Zm1.21,1.46v1a.8.8,0,0,0,.28.11s.08-.11.08-.3v-.25a.49.49,0,0,0-.08-.32A.76.76,0,0,0,32.64,25.88Z" transform="translate(0 1.23)"/><path class="cls-12" d="M37.45,27.9l-.69,1.6.75,2.88-1.24-.72-.48-2.18v1.9l-1.21-.69V26.24l1.21.7v1.72l.53-1.42Z" transform="translate(0 1.23)"/><path class="cls-12" d="M37.72,28.05l2,1.16v.89l-.81-.46v.84l.76.43v.85l-.76-.43v1l.89.51v.89l-2.09-1.2Z" transform="translate(0 1.23)"/><path class="cls-12" d="M42.5,30.81v.89l-.72-.41v3.55l-1.2-.69V30.59l-.71-.41v-.89Z" transform="translate(0 1.23)"/><polygon class="cls-1" points="54.22 82.75 89 62.44 89 33.79 54.22 54.1 54.22 82.75"/><g class="cls-25"><polygon class="cls-10" points="72.89 37.52 53.52 82.55 55.13 85.15 81.32 34.23 72.89 37.52"/><polygon class="cls-10" points="84.65 35.64 62.04 85.33 62.84 85.06 87.1 36.1 84.65 35.64"/><polygon class="cls-10" points="89.38 43.57 69.44 83.74 67.73 86.66 96.19 44.88 89.38 43.57"/></g><g class="cls-26"><polygon class="cls-12" points="89.61 63.71 89.84 63.58 89.84 31.7 89.61 31.83 89.61 63.71"/><polygon class="cls-12" points="84.57 66.62 84.8 66.49 84.8 34.61 84.57 34.74 84.57 66.62"/><polygon class="cls-12" points="79.53 69.53 79.77 69.4 79.76 37.52 79.53 37.65 79.53 69.53"/><polygon class="cls-12" points="74.49 72.44 74.73 72.31 74.73 40.42 74.49 40.56 74.49 72.44"/><polygon class="cls-12" points="69.45 75.35 69.69 75.22 69.69 43.33 69.45 43.47 69.45 75.35"/><polygon class="cls-12" points="64.42 78.26 64.65 78.12 64.65 46.24 64.42 46.38 64.42 78.26"/><polygon class="cls-12" points="59.38 81.17 59.61 81.03 59.61 49.15 59.38 49.28 59.38 81.17"/><polygon class="cls-12" points="95.25 21.33 95.25 21.11 53.11 45.44 53.11 45.65 95.25 21.33"/><polygon class="cls-12" points="89.36 29.21 89.36 28.99 47.23 53.32 47.23 53.54 89.36 29.21"/><polygon class="cls-12" points="89.36 33.93 89.36 33.72 53.11 54.88 53.11 55.1 89.36 33.93"/><polygon class="cls-12" points="89.36 38.66 89.36 38.44 53.11 59.6 53.11 59.82 89.36 38.66"/><polygon class="cls-12" points="89.36 43.38 89.36 43.16 53.11 64.33 53.11 64.55 89.36 43.38"/><polygon class="cls-12" points="89.36 48.1 89.36 47.88 53.11 69.05 53.11 69.27 89.36 48.1"/><polygon class="cls-12" points="89.36 52.83 89.36 52.61 53.12 73.77 53.12 73.99 89.36 52.83"/><polygon class="cls-12" points="89.36 57.55 89.36 57.33 53.12 78.5 53.12 78.72 89.36 57.55"/><polygon class="cls-12" points="89.36 62.27 89.36 62.05 53.12 83.22 53.12 83.44 89.36 62.27"/></g><polygon class="cls-27" points="54.15 51.66 88.76 31.5 88.76 33.99 54.22 54.1 54.15 51.66"/><polygon class="cls-4" points="10.06 59.28 10.06 61.97 54.22 87.46 54.22 84.77 10.06 59.28"/><polygon class="cls-28" points="92.5 62.71 92.5 65.4 54.22 87.46 54.22 84.77 92.5 62.71"/><g class="cls-29"><polygon class="cls-30" points="54.22 82.75 89 62.44 89 33.79 54.22 54.1 54.22 82.75"/></g><polygon class="cls-21" points="55.38 46.16 90.14 26.12 88.75 31.54 54.15 51.66 55.38 46.16"/><polygon class="cls-4" points="47.05 3.72 47.05 6.77 83.19 27.64 85.84 26.12 47.05 3.72"/><polygon class="cls-4" points="7.36 74.25 9.51 75.49 9.56 72.09 8.38 71.08 7.36 74.25"/><polygon class="cls-4" points="5.11 62.53 7.36 74.25 8.88 73.44 8.41 60.47 5.11 62.53"/><polygon class="cls-28" points="7.26 63.77 9.51 75.49 11.04 74.67 10.56 61.7 7.26 63.77"/><polygon class="cls-4" points="17.3 80.04 19.46 81.27 19.51 77.88 18.32 76.86 17.3 80.04"/><polygon class="cls-4" points="15.05 68.32 17.3 80.04 18.83 79.22 18.36 66.25 15.05 68.32"/><polygon class="cls-28" points="17.21 69.55 19.46 81.27 20.98 80.45 20.51 67.48 17.21 69.55"/><polygon class="cls-4" points="30.12 87.39 32.27 88.62 32.33 85.22 31.14 84.21 30.12 87.39"/><polygon class="cls-1" points="38.72 73.78 36.96 74.79 36.96 77.54 32.86 75.15 34.48 73.35 38.18 72.78 38.72 73.78"/><polygon class="cls-31" points="24.95 77.19 43.68 81.33 43.68 78.67 45.7 77.77 45.97 67.69 36.17 70.08 24.95 77.19"/><polygon class="cls-4" points="27.87 75.66 30.12 87.39 31.65 86.57 31.18 73.6 27.87 75.66"/><polygon class="cls-28" points="30.03 76.9 32.27 88.62 33.8 87.8 33.33 74.83 30.03 76.9"/><polygon class="cls-32" points="45.97 67.69 30.03 76.9 30.03 75.04 45.97 65.83 45.97 67.69"/><polygon class="cls-32" points="30.94 75.02 30.03 75.04 24.95 74.47 24.95 77.19 30.03 76.9 30.94 75.02"/><polygon class="cls-4" points="0 60.1 24.95 74.47 30.03 75.04 5.07 60.66 0 60.1"/><polygon class="cls-8" points="0 60.1 0 62.82 24.95 77.19 24.95 74.47 0 60.1"/><polygon class="cls-8" points="30.03 75.04 45.97 65.83 21.01 51.46 5.07 60.66 30.03 75.04"/><polygon class="cls-33" points="56.81 38.39 60.88 38.39 67.41 34.86 60.2 31.29 56.81 38.39"/><polygon class="cls-34" points="63.04 34.8 56.81 38.39 53.03 36.21 59.26 32.61 63.04 34.8"/><ellipse class="cls-35" cx="59.4" cy="34.69" rx="1.72" ry="0.99"/><path class="cls-35" d="M57.72,34.47a.74.74,0,0,1,0,1.4,2.67,2.67,0,0,1-2.43,0,.74.74,0,0,1,0-1.4A2.73,2.73,0,0,1,57.72,34.47Z" transform="translate(0 1.23)"/><path class="cls-36" d="M60.15,33a.45.45,0,0,1,0,.86,1.65,1.65,0,0,1-1.5,0,.45.45,0,0,1,0-.86A1.65,1.65,0,0,1,60.15,33Z" transform="translate(0 1.23)"/><path class="cls-37" d="M57.24,34.75a.45.45,0,0,1,0,.85,1.63,1.63,0,0,1-1.46,0c-.41-.24-.41-.62,0-.85A1.63,1.63,0,0,1,57.24,34.75Z" transform="translate(0 1.23)"/><polygon class="cls-12" points="63.04 31.44 56.81 35.04 53.03 32.86 59.26 29.26 63.04 31.44"/><ellipse class="cls-38" cx="59.4" cy="31.34" rx="1.72" ry="0.99"/><path class="cls-38" d="M57.72,31.12a.74.74,0,0,1,0,1.4,2.67,2.67,0,0,1-2.43,0,.74.74,0,0,1,0-1.4A2.67,2.67,0,0,1,57.72,31.12Z" transform="translate(0 1.23)"/><path class="cls-39" d="M60.15,29.68a.45.45,0,0,1,0,.86,1.65,1.65,0,0,1-1.5,0,.45.45,0,0,1,0-.86A1.65,1.65,0,0,1,60.15,29.68Z" transform="translate(0 1.23)"/><path class="cls-40" d="M57.24,31.4a.44.44,0,0,1,0,.84,1.57,1.57,0,0,1-1.46,0,.44.44,0,0,1,0-.84A1.57,1.57,0,0,1,57.24,31.4Z" transform="translate(0 1.23)"/><polygon class="cls-41" points="53.03 32.86 53.04 36.21 56.81 38.39 56.81 35.04 53.03 32.86"/><polygon class="cls-42" points="63.04 31.44 63.04 34.8 56.81 38.39 56.81 35.04 63.04 31.44"/><ellipse class="cls-43" cx="65.46" cy="92.58" rx="2.49" ry="1.44"/><ellipse class="cls-12" cx="65.46" cy="91.73" rx="2.49" ry="1.44"/><ellipse class="cls-44" cx="65.46" cy="91.73" rx="1.94" ry="1.12"/><path class="cls-45" d="M64.18,90.29a3,3,0,0,1,2.74,0,1.12,1.12,0,0,1,.45.4c.11-.35-.07-.72-.54-1a3.07,3.07,0,0,0-2.74,0c-.56.32-.71.79-.45,1.19A1.13,1.13,0,0,1,64.18,90.29Z" transform="translate(0 1.23)"/><path class="cls-46" d="M65.34,86.93a4.91,4.91,0,0,1-1-.23c-.62-.21-.71-.38-.71-.51s0-2.15,0-2.23H64c0,.67,0,1.94,0,2.19a1.49,1.49,0,0,0,.55.25,5,5,0,0,0,.89.2Z" transform="translate(0 1.23)"/><path class="cls-46" d="M65.73,86l-.07-.21c.24-.07.88-.32,1-.59a4.23,4.23,0,0,0,.17-1.3h.23a4.43,4.43,0,0,1-.21,1.4,1.32,1.32,0,0,1-.66.51A3.25,3.25,0,0,1,65.73,86Zm0-.1,0-.11Z" transform="translate(0 1.23)"/><rect class="cls-46" x="65.13" y="84.93" width="0.7" height="6.93"/><polygon class="cls-47" points="61.33 77.6 61.45 81.41 62.1 83.66 62.57 85.24 63.82 86.05 66.23 86.17 68.39 85.27 69.09 82.47 69.25 78.47 61.33 77.6"/><polygon class="cls-48" points="61.33 77.6 62.21 79.72 65.71 80.45 69.25 78.47 68.75 76.72 66.19 75.85 64.33 75.84 61.33 77.6"/><path class="cls-49" d="M65.71,79.22,66,82.28l.2,2.66A16.94,16.94,0,0,0,68.39,84c0-.12.7-2.79.7-2.79l.16-4Z" transform="translate(0 1.23)"/><polygon class="cls-50" points="62.21 79.72 61.52 81.55 62.57 85.24 63.82 86.05 62.21 79.72"/><polygon class="cls-47" points="62.21 79.72 65.71 80.45 66.23 86.17 63.82 86.05 62.21 79.72"/><path class="cls-46" d="M65.87,90.63c0,.1-.17.17-.39.17s-.38-.07-.38-.17.17-.16.38-.16S65.87,90.54,65.87,90.63Z" transform="translate(0 1.23)"/><path class="cls-43" d="M81.37,84.35a1.07,1.07,0,0,1,0,2,3.9,3.9,0,0,1-3.52,0,1.07,1.07,0,0,1,0-2A3.9,3.9,0,0,1,81.37,84.35Z" transform="translate(0 1.23)"/><path class="cls-12" d="M81.37,83.49a1.07,1.07,0,0,1,0,2,3.9,3.9,0,0,1-3.52,0,1.07,1.07,0,0,1,0-2A3.9,3.9,0,0,1,81.37,83.49Z" transform="translate(0 1.23)"/><path class="cls-44" d="M81,83.71a.84.84,0,0,1,0,1.59,3,3,0,0,1-2.75,0,.84.84,0,0,1,0-1.59A3.09,3.09,0,0,1,81,83.71Z" transform="translate(0 1.23)"/><path class="cls-45" d="M78.33,84.3a3,3,0,0,1,2.75,0,1.27,1.27,0,0,1,.45.4c.1-.35-.08-.72-.54-1a3.09,3.09,0,0,0-2.75,0c-.55.32-.7.79-.45,1.19A1.13,1.13,0,0,1,78.33,84.3Z" transform="translate(0 1.23)"/><path class="cls-46" d="M79.49,80.94a4.91,4.91,0,0,1-1-.23c-.62-.21-.7-.38-.71-.51s0-2.15,0-2.23h.34c0,.67,0,1.94,0,2.19a1.72,1.72,0,0,0,.56.25,4.93,4.93,0,0,0,.88.2Z" transform="translate(0 1.23)"/><path class="cls-46" d="M79.88,80l-.07-.21c.24-.07.88-.32,1-.59a4.25,4.25,0,0,0,.18-1.3h.22a4.15,4.15,0,0,1-.21,1.4,1.32,1.32,0,0,1-.66.51A3.25,3.25,0,0,1,79.88,80Zm0-.1,0-.11Z" transform="translate(0 1.23)"/><rect class="cls-46" x="79.29" y="78.94" width="0.7" height="6.93"/><polygon class="cls-47" points="75.48 71.61 75.6 75.42 76.26 77.67 76.72 79.25 77.97 80.06 80.39 80.19 82.55 79.28 83.25 76.48 83.4 72.48 75.48 71.61"/><polygon class="cls-48" points="75.48 71.61 76.36 73.73 79.86 74.46 83.4 72.48 82.91 70.73 80.34 69.86 78.49 69.85 75.48 71.61"/><path class="cls-49" d="M79.86,73.23l.33,3.06.2,2.66A17.57,17.57,0,0,0,82.55,78l.7-2.79.15-4Z" transform="translate(0 1.23)"/><polygon class="cls-50" points="76.36 73.73 75.67 75.56 76.72 79.25 77.97 80.06 76.36 73.73"/><polygon class="cls-47" points="76.36 73.73 79.86 74.46 80.39 80.19 77.97 80.06 76.36 73.73"/><path class="cls-46" d="M80,84.65c0,.09-.17.16-.38.16s-.39-.07-.39-.16.17-.17.39-.17S80,84.55,80,84.65Z" transform="translate(0 1.23)"/><path class="cls-43" d="M94.56,76.76a1.08,1.08,0,0,1,0,2,3.9,3.9,0,0,1-3.52,0,1.08,1.08,0,0,1,0-2A3.9,3.9,0,0,1,94.56,76.76Z" transform="translate(0 1.23)"/><ellipse class="cls-12" cx="92.8" cy="78.16" rx="2.49" ry="1.44"/><path class="cls-44" d="M94.17,76.13a.84.84,0,0,1,0,1.59,3.09,3.09,0,0,1-2.75,0,.84.84,0,0,1,0-1.59A3,3,0,0,1,94.17,76.13Z" transform="translate(0 1.23)"/><path class="cls-45" d="M91.51,76.71a3.09,3.09,0,0,1,2.75,0,1.39,1.39,0,0,1,.45.41c.1-.35-.08-.72-.54-1a3,3,0,0,0-2.75,0c-.55.32-.7.79-.45,1.18A1.13,1.13,0,0,1,91.51,76.71Z" transform="translate(0 1.23)"/><path class="cls-46" d="M92.67,73.36a6,6,0,0,1-1-.23c-.61-.21-.7-.38-.71-.51s0-2.15,0-2.24h.34c0,.66,0,1.94,0,2.19a1.72,1.72,0,0,0,.56.25,4.2,4.2,0,0,0,.89.19Z" transform="translate(0 1.23)"/><path class="cls-46" d="M93.06,72.45,93,72.24c.23-.07.87-.32,1-.59a4,4,0,0,0,.18-1.31h.22a4.36,4.36,0,0,1-.2,1.41,1.37,1.37,0,0,1-.66.51A3.14,3.14,0,0,1,93.06,72.45Zm0-.1,0-.11Z" transform="translate(0 1.23)"/><rect class="cls-46" x="92.47" y="71.35" width="0.7" height="6.93"/><polygon class="cls-47" points="88.66 64.03 88.78 67.84 89.44 70.08 89.91 71.67 91.16 72.48 93.57 72.6 95.73 71.69 96.43 68.9 96.58 64.9 88.66 64.03"/><polygon class="cls-48" points="88.66 64.03 89.55 66.14 93.05 66.88 96.58 64.9 96.09 63.15 93.52 62.28 91.67 62.27 88.66 64.03"/><path class="cls-49" d="M93.05,65.64l.32,3.07.2,2.66a17.57,17.57,0,0,0,2.16-.91c0-.13.7-2.79.7-2.79l.16-4Z" transform="translate(0 1.23)"/><polygon class="cls-50" points="89.55 66.14 88.85 67.98 89.91 71.67 91.16 72.48 89.55 66.14"/><polygon class="cls-47" points="89.55 66.14 93.05 66.88 93.57 72.6 91.16 72.48 89.55 66.14"/><path class="cls-46" d="M93.2,77.06c0,.09-.17.17-.38.17s-.39-.08-.39-.17.18-.16.39-.16S93.2,77,93.2,77.06Z" transform="translate(0 1.23)"/></g></g></g></svg>