<svg xmlns="http://www.w3.org/2000/svg" xmlns:xlink="http://www.w3.org/1999/xlink" viewBox="0 0 120.08 112.94"><defs><style>.cls-1{fill:none;}.cls-2{fill:#56bbbc;}.cls-3{fill:#38a0a1;}.cls-4{fill:#3f8e8f;}.cls-5{isolation:isolate;}.cls-6{fill:#cfc9c7;}.cls-7{fill:#d9d0d0;}.cls-8{fill:#c7ad83;}.cls-9{fill:#e8cfa0;}.cls-10{clip-path:url(#clip-path);}.cls-11{fill:#66cbcc;}.cls-12{clip-path:url(#clip-path-2);}.cls-13{fill:#367373;}.cls-14{fill:#dbc8a2;}.cls-15{fill:#fae7c3;}.cls-16{fill:#f5e0b9;}.cls-17{fill:#b09a8f;}.cls-18{fill:#ffecc9;}.cls-19{fill:#489d9e;}.cls-20{fill:#d9bf8d;}.cls-21{fill:#bfa478;}.cls-22{clip-path:url(#clip-path-3);}.cls-23{fill:#4c9e9f;}.cls-24{clip-path:url(#clip-path-4);}.cls-25{fill:#1f4646;}.cls-26{fill:#61c8c9;}.cls-27{fill:#e8d5b1;}.cls-28{fill:#e0cfac;}.cls-29{clip-path:url(#clip-path-5);}.cls-30{fill:#6dd8d9;}.cls-31{clip-path:url(#clip-path-7);}.cls-32{fill:#53b4b5;}.cls-33{clip-path:url(#clip-path-8);}.cls-34{fill:#dbc291;}.cls-35{clip-path:url(#clip-path-9);}.cls-36{fill:#266666;}.cls-37{fill:#dec8a0;}.cls-38{fill:#fff;}.cls-39{fill:#53b0b0;}.cls-40{fill:#bfc5c9;}.cls-41{fill:#ccd2d6;}.cls-42{fill:#349999;}.cls-43{fill:#edd6af;}.cls-44{fill:#91bfc9;}.cls-45{fill:#51818a;}.cls-46{fill:#c3e2e8;}.cls-47{fill:#61bfbf;}.cls-48{fill:#d1cdc4;}.cls-48,.cls-49{mix-blend-mode:multiply;}.cls-49{fill:#f0e1c5;}.cls-50{fill:#d1c1c1;}.cls-51{fill:#a8a8a8;}.cls-52{fill:#ededed;}.cls-53{fill:#6e5535;}.cls-54{fill:#c7c7c7;}.cls-55{fill:#8f5100;}.cls-56{fill:#778f00;}.cls-57{fill:#9ab50d;}.cls-58{fill:#667a00;}.cls-59{fill:#8ca800;}</style><clipPath id="clip-path" transform="translate(13.94)"><polygon class="cls-2" points="37.12 56.19 4.8 74.85 4.8 59.81 37.12 41.15 37.12 56.19"/></clipPath><clipPath id="clip-path-2" transform="translate(13.94)"><polygon class="cls-1" points="37.12 56.19 4.8 74.85 4.8 59.81 37.12 41.15 37.12 56.19"/></clipPath><clipPath id="clip-path-3" transform="translate(13.94)"><polygon class="cls-4" points="26 89.53 13.56 82.34 13.56 12.76 26 19.94 26 89.53"/></clipPath><clipPath id="clip-path-4" transform="translate(13.94)"><polygon class="cls-1" points="26 89.53 13.56 82.34 13.56 12.76 26 19.94 26 89.53"/></clipPath><clipPath id="clip-path-5" transform="translate(13.94)"><polygon class="cls-1" points="21.72 92.05 9.28 84.86 9.28 15.28 21.73 22.47 21.72 92.05"/></clipPath><clipPath id="clip-path-7" transform="translate(13.94)"><polygon class="cls-3" points="74.25 77.63 41.93 96.29 41.93 81.25 74.25 62.59 74.25 77.63"/></clipPath><clipPath id="clip-path-8" transform="translate(13.94)"><polygon class="cls-1" points="74.25 77.63 41.93 96.29 41.93 81.25 74.25 62.59 74.25 77.63"/></clipPath><clipPath id="clip-path-9" transform="translate(13.94)"><polygon class="cls-1" points="30.33 17.49 30.33 53.32 26.01 55.81 26 89.53 21.72 92.05 21.73 22.47 30.33 17.49"/></clipPath></defs><g class="cls-5"><g id="Capa_2" data-name="Capa 2"><g id="Ñëîé_2" data-name="Ñëîé 2"><polygon class="cls-6" points="120.08 83.32 107.64 76.31 110.66 74.55 73.77 53.14 51.07 99.22 71.6 99.13 73.88 97.81 94.01 97.9 120.08 83.32"/><polygon class="cls-7" points="22.57 90.47 31.26 90.47 25.31 85.2 23.01 85.18 22.57 90.47"/><polygon class="cls-8" points="51.06 56.35 13.94 77.78 13.94 42.52 51.06 21.09 51.06 56.35"/><polygon class="cls-9" points="51.01 22.3 13.94 43.7 13.94 42.52 51.01 21.11 51.01 22.3"/><polygon class="cls-2" points="51.06 56.19 18.74 74.85 18.74 59.81 51.06 41.15 51.06 56.19"/><g class="cls-10"><polygon class="cls-11" points="18.6 76.28 37.25 44.62 38.83 44.1 20.25 75.96 18.6 76.28"/><polygon class="cls-11" points="22.72 74.22 41.84 42.04 43.15 41.69 19.15 81.34 22.72 74.22"/><path class="cls-11" d="M19.06,70.26C19.33,70.1,42,30,42,30l2.94.59-24.2,42Z" transform="translate(13.94)"/></g><g class="cls-12"><polygon class="cls-13" points="53.58 43.97 17.54 64.78 17.54 64.48 53.58 43.67 53.58 43.97"/><polygon class="cls-13" points="60.48 53.46 60.48 34.22 60.31 34.32 60.31 53.55 60.48 53.46"/><polygon class="cls-13" points="55.84 56.13 55.84 36.9 55.67 37 55.67 56.23 55.84 56.13"/><polygon class="cls-13" points="51.2 58.81 51.2 39.58 51.03 39.67 51.03 58.91 51.2 58.81"/><polygon class="cls-13" points="46.56 61.49 46.56 42.26 46.39 42.35 46.39 61.59 46.56 61.49"/><polygon class="cls-13" points="41.92 64.17 41.92 44.93 41.75 45.03 41.75 64.27 41.92 64.17"/><polygon class="cls-13" points="37.28 66.85 37.28 47.61 37.11 47.71 37.11 66.95 37.28 66.85"/><polygon class="cls-13" points="32.65 69.53 32.65 50.29 32.47 50.39 32.47 69.62 32.65 69.53"/><polygon class="cls-13" points="28.01 72.2 28.01 52.97 27.83 53.07 27.84 72.3 28.01 72.2"/><polygon class="cls-13" points="23.37 74.88 23.37 55.65 23.2 55.74 23.2 74.98 23.37 74.88"/><polygon class="cls-13" points="18.73 77.56 18.73 58.33 18.56 58.42 18.56 77.66 18.73 77.56"/><polygon class="cls-13" points="14.09 80.24 14.09 61 13.92 61.1 13.92 80.34 14.09 80.24"/><polygon class="cls-13" points="9.45 82.92 9.45 63.68 9.28 63.78 9.28 83.02 9.45 82.92"/><polygon class="cls-13" points="4.81 85.59 4.81 66.36 4.64 66.46 4.64 85.69 4.81 85.59"/><polygon class="cls-13" points="0.17 88.27 0.17 69.04 0 69.14 0 88.37 0.17 88.27"/></g><polygon class="cls-14" points="51.06 99.21 13.94 77.78 13.94 42.51 51.06 63.95 51.06 99.21"/><polygon class="cls-15" points="51.07 65.14 13.94 43.7 13.94 42.51 51.07 63.95 51.07 65.14"/><polygon class="cls-16" points="51.01 21.11 88.14 42.55 51.07 63.95 13.94 42.51 51.01 21.11"/><polygon class="cls-9" points="50.88 0 25.14 14.86 25.14 15.81 50.88 0.95 50.88 0"/><polygon class="cls-8" points="50.95 27.39 25.14 42.29 25.14 15.81 50.95 0.91 50.95 27.39"/><polygon class="cls-16" points="50.88 0 76.7 14.91 50.96 29.77 25.14 14.86 50.88 0"/><polygon class="cls-17" points="26.81 14.86 50.88 0.96 75.04 14.91 50.96 28.81 26.81 14.86"/><polygon class="cls-18" points="50.96 29.77 25.14 14.86 25.14 15.81 50.95 30.71 50.96 29.77"/><polygon class="cls-14" points="50.95 57.19 25.14 42.29 25.14 15.81 50.95 30.71 50.95 57.19"/><polygon class="cls-19" points="44.27 53.32 31.83 46.13 31.83 10.28 44.27 17.46 44.27 53.32"/><polygon class="cls-20" points="76.7 14.91 50.96 29.77 50.96 30.72 76.7 15.86 76.7 14.91"/><polygon class="cls-21" points="76.77 42.3 50.96 57.2 50.96 30.72 76.77 15.82 76.77 42.3"/><polygon class="cls-4" points="39.94 89.53 27.5 82.34 27.5 12.76 39.94 19.94 39.94 89.53"/><g class="cls-22"><polygon class="cls-23" points="36.85 11.16 20.5 45.53 21.74 46.6 41.48 14.3 36.85 11.16"/><path class="cls-23" d="M12.87,70.23C13.28,70.23,30,50,30,50l.34,1.07L10.88,77.63Z" transform="translate(13.94)"/><polygon class="cls-23" points="46.83 26.3 32.23 51.47 34.7 51.47 20.91 71.42 23.69 70.76 38.71 50.82 36.55 50.88 47.14 35.02 46.83 26.3"/></g><g class="cls-24"><polygon class="cls-25" points="42.41 21.17 25.75 11.55 25.75 11.75 42.41 21.37 42.41 21.17"/><polygon class="cls-25" points="42.41 26.53 25.75 16.91 25.75 17.11 42.41 26.73 42.41 26.53"/><polygon class="cls-25" points="42.41 31.88 25.75 22.27 25.75 22.46 42.41 32.08 42.41 31.88"/><polygon class="cls-25" points="42.41 37.24 25.75 27.62 25.75 27.82 42.41 37.44 42.41 37.24"/><polygon class="cls-25" points="42.41 42.6 25.75 32.98 25.75 33.18 42.41 42.8 42.41 42.6"/><polygon class="cls-25" points="42.41 47.95 25.75 38.34 25.75 38.53 42.41 48.15 42.41 47.95"/><polygon class="cls-25" points="42.41 53.31 25.75 43.69 25.75 43.89 42.41 53.51 42.41 53.31"/><polygon class="cls-25" points="42.41 58.67 25.75 49.05 25.75 49.25 42.41 58.87 42.41 58.67"/><polygon class="cls-25" points="42.41 64.02 25.75 54.41 25.75 54.6 42.41 64.22 42.41 64.02"/><polygon class="cls-25" points="42.41 69.38 25.75 59.76 25.75 59.96 42.41 69.58 42.41 69.38"/><polygon class="cls-25" points="42.41 74.74 25.75 65.12 25.75 65.32 42.41 74.94 42.41 74.74"/><polygon class="cls-25" points="42.41 80.09 25.75 70.48 25.75 70.67 42.41 80.29 42.41 80.09"/><polygon class="cls-25" points="42.41 85.45 25.75 75.83 25.75 76.03 42.41 85.65 42.41 85.45"/><polygon class="cls-25" points="42.41 90.81 25.75 81.19 25.75 81.39 42.41 91 42.41 90.81"/><polygon class="cls-25" points="40.1 89.49 40.1 17.89 39.93 17.79 39.93 89.39 40.1 89.49"/><polygon class="cls-25" points="36.95 87.66 36.95 16.07 36.77 15.97 36.77 87.56 36.95 87.66"/><polygon class="cls-25" points="33.79 85.84 33.79 14.25 33.62 14.15 33.62 85.74 33.79 85.84"/><polygon class="cls-25" points="30.64 84.02 30.64 12.42 30.46 12.32 30.46 83.92 30.64 84.02"/><polygon class="cls-25" points="27.48 82.2 27.48 10.6 27.31 10.5 27.31 82.1 27.48 82.2"/></g><polygon class="cls-26" points="35.66 92.05 23.22 84.86 23.22 15.28 35.66 22.47 35.66 92.05"/><polygon class="cls-27" points="35.66 20.86 23.22 13.68 23.22 15.28 35.66 22.46 35.66 20.86"/><polygon class="cls-28" points="44.25 15.83 31.81 8.65 31.81 10.26 44.25 17.44 44.25 15.83"/><g class="cls-29"><polygon class="cls-30" points="32.58 13.68 16.23 48.05 17.46 49.12 37.21 16.83 32.58 13.68"/><path class="cls-30" d="M8.6,72.75c.41,0,17.13-20.18,17.13-20.18l.35,1.07L6.61,80.15Z" transform="translate(13.94)"/><polygon class="cls-30" points="42.55 28.82 27.95 53.99 30.42 53.99 16.64 73.94 19.42 73.29 34.43 53.34 32.27 53.4 42.86 37.55 42.55 28.82"/></g><g class="cls-29"><polygon class="cls-13" points="38.13 23.69 21.47 14.08 21.47 14.27 38.13 23.89 38.13 23.69"/><polygon class="cls-13" points="38.13 29.05 21.47 19.43 21.47 19.63 38.13 29.25 38.13 29.05"/><polygon class="cls-13" points="38.13 34.41 21.47 24.79 21.47 24.99 38.13 34.6 38.13 34.41"/><polygon class="cls-13" points="38.13 39.76 21.47 30.15 21.47 30.34 38.13 39.96 38.13 39.76"/><polygon class="cls-13" points="38.13 45.12 21.47 35.5 21.47 35.7 38.13 45.32 38.13 45.12"/><polygon class="cls-13" points="38.13 50.48 21.47 40.86 21.47 41.06 38.13 50.67 38.13 50.48"/><polygon class="cls-13" points="38.13 55.83 21.47 46.22 21.47 46.41 38.13 56.03 38.13 55.83"/><polygon class="cls-13" points="38.13 61.19 21.47 51.57 21.47 51.77 38.13 61.39 38.13 61.19"/><polygon class="cls-13" points="38.13 66.55 21.47 56.93 21.47 57.13 38.13 66.75 38.13 66.55"/><polygon class="cls-13" points="38.13 71.9 21.47 62.29 21.47 62.48 38.13 72.1 38.13 71.9"/><polygon class="cls-13" points="38.13 77.26 21.47 67.64 21.47 67.84 38.13 77.46 38.13 77.26"/><polygon class="cls-13" points="38.13 82.62 21.47 73 21.47 73.2 38.13 82.81 38.13 82.62"/><polygon class="cls-13" points="38.13 87.97 21.47 78.36 21.47 78.55 38.13 88.17 38.13 87.97"/><polygon class="cls-13" points="38.13 93.33 21.47 83.71 21.47 83.91 38.13 93.53 38.13 93.33"/><polygon class="cls-13" points="35.83 92.01 35.83 20.41 35.66 20.31 35.65 91.91 35.83 92.01"/><polygon class="cls-13" points="32.67 90.19 32.67 18.59 32.5 18.49 32.5 90.09 32.67 90.19"/><polygon class="cls-13" points="29.52 88.37 29.52 16.77 29.34 16.67 29.34 88.27 29.52 88.37"/><polygon class="cls-13" points="26.36 86.55 26.36 14.95 26.19 14.85 26.19 86.45 26.36 86.55"/><polygon class="cls-13" points="23.21 84.72 23.21 13.13 23.04 13.03 23.04 84.62 23.21 84.72"/></g><polygon class="cls-21" points="88.19 77.79 51.07 99.22 51.07 63.95 88.19 42.52 88.19 77.79"/><polygon class="cls-20" points="88.14 43.74 51.07 65.14 51.07 63.95 88.14 42.55 88.14 43.74"/><polygon class="cls-3" points="88.19 77.63 55.87 96.29 55.87 81.25 88.19 62.59 88.19 77.63"/><g class="cls-31"><polygon class="cls-32" points="55.73 97.72 74.38 66.05 75.96 65.54 57.38 97.4 55.73 97.72"/><polygon class="cls-32" points="59.85 95.66 78.97 63.48 80.28 63.12 56.28 102.78 59.85 95.66"/><path class="cls-32" d="M56.19,91.7c.27-.16,22.9-40.29,22.9-40.29L82,52,57.83,94Z" transform="translate(13.94)"/></g><g class="cls-33"><polygon class="cls-13" points="90.71 65.41 54.67 86.22 54.67 85.92 90.71 65.11 90.71 65.41"/><polygon class="cls-13" points="97.61 74.89 97.61 55.66 97.44 55.76 97.44 74.99 97.61 74.89"/><polygon class="cls-13" points="92.97 77.57 92.97 58.34 92.8 58.43 92.8 77.67 92.97 77.57"/><polygon class="cls-13" points="88.33 80.25 88.33 61.01 88.16 61.11 88.16 80.35 88.33 80.25"/><polygon class="cls-13" points="83.69 82.93 83.69 63.69 83.52 63.79 83.52 83.03 83.69 82.93"/><polygon class="cls-13" points="79.05 85.61 79.05 66.37 78.88 66.47 78.88 85.7 79.05 85.61"/><polygon class="cls-13" points="74.41 88.28 74.41 69.05 74.24 69.15 74.24 88.38 74.41 88.28"/><polygon class="cls-13" points="69.78 90.96 69.78 71.73 69.6 71.83 69.6 91.06 69.78 90.96"/><polygon class="cls-13" points="65.14 93.64 65.14 74.41 64.96 74.5 64.97 93.74 65.14 93.64"/><polygon class="cls-13" points="60.5 96.32 60.5 77.08 60.33 77.18 60.33 96.42 60.5 96.32"/><polygon class="cls-13" points="55.86 99 55.86 79.76 55.69 79.86 55.69 99.1 55.86 99"/><polygon class="cls-13" points="51.22 101.67 51.22 82.44 51.05 82.54 51.05 101.77 51.22 101.67"/><polygon class="cls-13" points="46.58 104.35 46.58 85.12 46.41 85.22 46.41 104.45 46.58 104.35"/><polygon class="cls-13" points="41.94 107.03 41.94 87.8 41.77 87.89 41.77 107.13 41.94 107.03"/><polygon class="cls-13" points="37.3 109.71 37.3 90.47 37.13 90.57 37.13 109.81 37.3 109.71"/></g><polygon class="cls-34" points="50.88 1.97 74.16 15.41 75.04 14.91 50.88 0.96 26.81 14.86 27.68 15.37 50.88 1.97"/><polygon class="cls-3" points="44.27 17.51 44.27 53.32 39.95 55.81 39.94 89.53 35.66 92.05 35.66 22.47 44.27 17.51"/><g class="cls-35"><polygon class="cls-13" points="33.18 23.69 49.84 14.08 49.84 14.27 33.18 23.89 33.18 23.69"/><polygon class="cls-36" points="33.18 29.05 49.84 19.43 49.84 19.63 33.18 29.25 33.18 29.05"/><polygon class="cls-36" points="33.18 34.41 49.84 24.79 49.84 24.99 33.18 34.6 33.18 34.41"/><polygon class="cls-36" points="33.18 39.76 49.84 30.15 49.84 30.34 33.18 39.96 33.18 39.76"/><polygon class="cls-36" points="33.18 45.12 49.84 35.5 49.84 35.7 33.18 45.32 33.18 45.12"/><polygon class="cls-36" points="33.18 50.48 49.84 40.86 49.84 41.06 33.18 50.67 33.18 50.48"/><polygon class="cls-36" points="33.18 55.83 49.84 46.22 49.84 46.41 33.18 56.03 33.18 55.83"/><polygon class="cls-36" points="33.18 61.19 49.84 51.57 49.84 51.77 33.18 61.39 33.18 61.19"/><polygon class="cls-36" points="33.18 66.55 49.84 56.93 49.84 57.13 33.18 66.75 33.18 66.55"/><polygon class="cls-36" points="33.18 71.9 49.84 62.29 49.84 62.48 33.18 72.1 33.18 71.9"/><polygon class="cls-36" points="33.18 77.26 49.84 67.64 49.84 67.84 33.18 77.46 33.18 77.26"/><polygon class="cls-36" points="33.18 82.62 49.84 73 49.84 73.2 33.18 82.81 33.18 82.62"/><polygon class="cls-13" points="33.18 87.97 49.84 78.36 49.84 78.55 33.18 88.17 33.18 87.97"/><polygon class="cls-13" points="33.18 93.33 49.84 83.71 49.84 83.91 33.18 93.53 33.18 93.33"/><polygon class="cls-13" points="35.49 92.01 35.49 20.41 35.66 20.31 35.66 91.91 35.49 92.01"/><polygon class="cls-36" points="38.64 90.19 38.64 18.59 38.81 18.49 38.81 90.09 38.64 90.19"/><polygon class="cls-36" points="41.8 88.37 41.8 16.77 41.97 16.67 41.97 88.27 41.8 88.37"/><polygon class="cls-13" points="44.95 86.55 44.95 14.95 45.12 14.85 45.12 86.45 44.95 86.55"/><polygon class="cls-13" points="48.11 84.72 48.11 13.13 48.28 13.03 48.28 84.62 48.11 84.72"/></g><polygon class="cls-34" points="35.66 20.86 44.25 15.83 44.27 17.49 35.66 22.47 35.66 20.86"/><polygon class="cls-18" points="23.22 13.68 31.81 8.65 44.25 15.83 35.66 20.86 23.22 13.68"/><polygon class="cls-17" points="24.88 13.68 31.82 9.62 42.59 15.84 35.66 19.9 24.88 13.68"/><polygon class="cls-34" points="31.82 10.84 41.54 16.46 42.59 15.84 31.82 9.62 24.88 13.68 25.93 14.28 31.82 10.84"/><polygon class="cls-27" points="31.82 9.62 31.82 10.84 41.54 16.46 42.59 15.84 31.82 9.62"/><polygon class="cls-37" points="50.88 0.96 50.88 1.97 74.16 15.41 75.04 14.91 50.88 0.96"/><polygon class="cls-38" points="18.1 75.55 15.13 73.83 15.13 69.94 18.1 71.65 18.1 75.55"/><polygon class="cls-39" points="17.91 75.28 15.32 73.79 15.32 70.2 17.91 71.7 17.91 75.28"/><polygon class="cls-38" points="16.55 74.53 16.69 74.61 16.69 70.95 16.55 70.87 16.55 74.53"/><polygon class="cls-40" points="15.65 73.6 15.65 70.39 15.32 70.2 15.32 73.79 17.91 75.28 17.91 74.9 15.65 73.6"/><polygon class="cls-41" points="15.32 73.79 15.65 73.6 17.91 74.9 17.91 75.28 15.32 73.79"/><polygon class="cls-38" points="18.1 67.56 15.13 65.85 15.13 61.96 18.1 63.67 18.1 67.56"/><polygon class="cls-39" points="17.91 67.3 15.32 65.81 15.32 62.22 17.91 63.72 17.91 67.3"/><polygon class="cls-38" points="16.55 66.55 16.69 66.63 16.69 62.97 16.55 62.89 16.55 66.55"/><polygon class="cls-40" points="15.65 65.61 15.65 62.41 15.32 62.22 15.32 65.81 17.91 67.3 17.91 66.92 15.65 65.61"/><polygon class="cls-41" points="15.32 65.81 15.65 65.61 17.91 66.92 17.91 67.3 15.32 65.81"/><polygon class="cls-38" points="18.1 59.58 15.13 57.87 15.13 53.98 18.1 55.69 18.1 59.58"/><polygon class="cls-39" points="17.91 59.32 15.32 57.82 15.32 54.24 17.91 55.73 17.91 59.32"/><polygon class="cls-38" points="16.55 58.56 16.69 58.65 16.69 54.99 16.55 54.91 16.55 58.56"/><polygon class="cls-40" points="15.65 57.63 15.65 54.43 15.32 54.24 15.32 57.82 17.91 59.32 17.91 58.94 15.65 57.63"/><polygon class="cls-41" points="15.32 57.82 15.65 57.63 17.91 58.94 17.91 59.32 15.32 57.82"/><polygon class="cls-38" points="18.1 51.59 15.13 49.88 15.13 45.99 18.1 47.7 18.1 51.59"/><polygon class="cls-39" points="17.91 51.33 15.32 49.84 15.32 46.25 17.91 47.75 17.91 51.33"/><polygon class="cls-38" points="16.55 50.58 16.69 50.66 16.69 47 16.55 46.92 16.55 50.58"/><polygon class="cls-40" points="15.65 49.65 15.65 46.44 15.32 46.25 15.32 49.84 17.91 51.33 17.91 50.95 15.65 49.65"/><polygon class="cls-41" points="15.32 49.84 15.65 49.65 17.91 50.95 17.91 51.33 15.32 49.84"/><polygon class="cls-38" points="22.43 78.04 19.47 76.33 19.47 72.44 22.43 74.15 22.43 78.04"/><polygon class="cls-39" points="22.24 77.78 19.66 76.28 19.66 72.7 22.24 74.19 22.24 77.78"/><polygon class="cls-38" points="20.88 77.03 21.02 77.11 21.02 73.45 20.88 73.37 20.88 77.03"/><polygon class="cls-40" points="19.98 76.09 19.98 72.89 19.66 72.7 19.66 76.28 22.24 77.78 22.24 77.39 19.98 76.09"/><polygon class="cls-41" points="19.66 76.28 19.98 76.09 22.24 77.39 22.24 77.78 19.66 76.28"/><polygon class="cls-38" points="22.43 70.06 19.47 68.34 19.47 64.45 22.43 66.16 22.43 70.06"/><polygon class="cls-39" points="22.24 69.79 19.66 68.3 19.66 64.72 22.24 66.21 22.24 69.79"/><polygon class="cls-38" points="20.88 69.04 21.02 69.13 21.02 65.47 20.88 65.38 20.88 69.04"/><polygon class="cls-40" points="19.98 68.11 19.98 64.9 19.66 64.72 19.66 68.3 22.24 69.79 22.24 69.41 19.98 68.11"/><polygon class="cls-41" points="19.66 68.3 19.98 68.11 22.24 69.41 22.24 69.79 19.66 68.3"/><polygon class="cls-38" points="22.43 62.07 19.47 60.36 19.47 56.47 22.43 58.18 22.43 62.07"/><polygon class="cls-39" points="22.24 61.81 19.66 60.31 19.66 56.73 22.24 58.23 22.24 61.81"/><polygon class="cls-38" points="20.88 61.06 21.02 61.14 21.02 57.48 20.88 57.4 20.88 61.06"/><polygon class="cls-40" points="19.98 60.12 19.98 56.92 19.66 56.73 19.66 60.31 22.24 61.81 22.24 61.43 19.98 60.12"/><polygon class="cls-41" points="19.66 60.31 19.98 60.12 22.24 61.43 22.24 61.81 19.66 60.31"/><polygon class="cls-38" points="22.43 54.09 19.47 52.38 19.47 48.48 22.43 50.2 22.43 54.09"/><polygon class="cls-39" points="22.24 53.83 19.66 52.33 19.66 48.75 22.24 50.24 22.24 53.83"/><polygon class="cls-38" points="20.88 53.08 21.02 53.16 21.02 49.5 20.88 49.41 20.88 53.08"/><polygon class="cls-40" points="19.98 52.14 19.98 48.94 19.66 48.75 19.66 52.33 22.24 53.83 22.24 53.45 19.98 52.14"/><polygon class="cls-41" points="19.66 52.33 19.98 52.14 22.24 53.45 22.24 53.83 19.66 52.33"/><polygon class="cls-38" points="44.95 91.04 41.99 89.33 41.99 85.44 44.95 87.15 44.95 91.04"/><polygon class="cls-39" points="44.77 90.78 42.18 89.28 42.18 85.7 44.77 87.19 44.77 90.78"/><polygon class="cls-38" points="43.4 90.03 43.54 90.11 43.54 86.45 43.4 86.37 43.4 90.03"/><polygon class="cls-40" points="42.51 89.09 42.51 85.89 42.18 85.7 42.18 89.28 44.77 90.78 44.77 90.4 42.51 89.09"/><polygon class="cls-41" points="42.18 89.28 42.51 89.09 44.77 90.4 44.77 90.78 42.18 89.28"/><polygon class="cls-38" points="44.95 83.06 41.99 81.34 41.99 77.45 44.95 79.17 44.95 83.06"/><polygon class="cls-39" points="44.77 82.8 42.18 81.3 42.18 77.72 44.77 79.21 44.77 82.8"/><polygon class="cls-38" points="43.4 82.05 43.54 82.13 43.54 78.47 43.4 78.39 43.4 82.05"/><polygon class="cls-40" points="42.51 81.11 42.51 77.91 42.18 77.72 42.18 81.3 44.77 82.8 44.77 82.41 42.51 81.11"/><polygon class="cls-41" points="42.18 81.3 42.51 81.11 44.77 82.41 44.77 82.8 42.18 81.3"/><polygon class="cls-38" points="44.95 75.07 41.99 73.36 41.99 69.47 44.95 71.18 44.95 75.07"/><polygon class="cls-39" points="44.77 74.81 42.18 73.32 42.18 69.73 44.77 71.23 44.77 74.81"/><polygon class="cls-38" points="43.4 74.06 43.54 74.14 43.54 70.48 43.4 70.4 43.4 74.06"/><polygon class="cls-40" points="42.51 73.13 42.51 69.92 42.18 69.73 42.18 73.32 44.77 74.81 44.77 74.43 42.51 73.13"/><polygon class="cls-41" points="42.18 73.32 42.51 73.13 44.77 74.43 44.77 74.81 42.18 73.32"/><polygon class="cls-38" points="44.95 67.09 41.99 65.38 41.99 61.49 44.95 63.2 44.95 67.09"/><polygon class="cls-39" points="44.77 66.83 42.18 65.33 42.18 61.75 44.77 63.24 44.77 66.83"/><polygon class="cls-38" points="43.4 66.08 43.54 66.16 43.54 62.5 43.4 62.42 43.4 66.08"/><polygon class="cls-40" points="42.51 65.14 42.51 61.94 42.18 61.75 42.18 65.33 44.77 66.83 44.77 66.45 42.51 65.14"/><polygon class="cls-41" points="42.18 65.33 42.51 65.14 44.77 66.45 44.77 66.83 42.18 65.33"/><polygon class="cls-38" points="49.29 93.53 46.32 91.82 46.32 87.93 49.29 89.64 49.29 93.53"/><polygon class="cls-39" points="49.1 93.27 46.51 91.78 46.51 88.19 49.1 89.69 49.1 93.27"/><polygon class="cls-38" points="47.73 92.52 47.88 92.6 47.88 88.94 47.73 88.86 47.73 92.52"/><polygon class="cls-40" points="46.84 91.59 46.84 88.38 46.51 88.19 46.51 91.78 49.1 93.27 49.1 92.89 46.84 91.59"/><polygon class="cls-41" points="46.51 91.78 46.84 91.59 49.1 92.89 49.1 93.27 46.51 91.78"/><polygon class="cls-38" points="49.29 85.55 46.32 83.84 46.32 79.95 49.29 81.66 49.29 85.55"/><polygon class="cls-39" points="49.1 85.29 46.51 83.8 46.51 80.21 49.1 81.7 49.1 85.29"/><polygon class="cls-38" points="47.73 84.54 47.88 84.62 47.88 80.96 47.73 80.88 47.73 84.54"/><polygon class="cls-40" points="46.84 83.6 46.84 80.4 46.51 80.21 46.51 83.8 49.1 85.29 49.1 84.91 46.84 83.6"/><polygon class="cls-41" points="46.51 83.8 46.84 83.6 49.1 84.91 49.1 85.29 46.51 83.8"/><polygon class="cls-38" points="49.29 77.57 46.32 75.86 46.32 71.97 49.29 73.68 49.29 77.57"/><polygon class="cls-39" points="49.1 77.31 46.51 75.81 46.51 72.23 49.1 73.72 49.1 77.31"/><polygon class="cls-38" points="47.73 76.56 47.88 76.64 47.88 72.98 47.73 72.89 47.73 76.56"/><polygon class="cls-40" points="46.84 75.62 46.84 72.42 46.51 72.23 46.51 75.81 49.1 77.31 49.1 76.92 46.84 75.62"/><polygon class="cls-41" points="46.51 75.81 46.84 75.62 49.1 76.92 49.1 77.31 46.51 75.81"/><polygon class="cls-38" points="49.29 69.58 46.32 67.87 46.32 63.98 49.29 65.69 49.29 69.58"/><polygon class="cls-39" points="49.1 69.32 46.51 67.83 46.51 64.24 49.1 65.74 49.1 69.32"/><polygon class="cls-38" points="47.73 68.57 47.88 68.65 47.88 64.99 47.73 64.91 47.73 68.57"/><polygon class="cls-40" points="46.84 67.64 46.84 64.43 46.51 64.24 46.51 67.83 49.1 69.32 49.1 68.94 46.84 67.64"/><polygon class="cls-41" points="46.51 67.83 46.84 67.64 49.1 68.94 49.1 69.32 46.51 67.83"/><polygon class="cls-38" points="58.08 75.07 61.04 73.36 61.04 69.47 58.08 71.18 58.08 75.07"/><polygon class="cls-42" points="58.27 74.81 60.86 73.32 60.86 69.73 58.27 71.23 58.27 74.81"/><polygon class="cls-38" points="59.63 74.06 59.49 74.14 59.49 70.48 59.63 70.4 59.63 74.06"/><polygon class="cls-40" points="60.53 73.13 60.53 69.92 60.86 69.73 60.86 73.32 58.27 74.81 58.27 74.43 60.53 73.13"/><polygon class="cls-41" points="60.86 73.32 60.53 73.13 58.27 74.43 58.27 74.81 60.86 73.32"/><polygon class="cls-38" points="58.08 67.09 61.04 65.38 61.04 61.49 58.08 63.2 58.08 67.09"/><polygon class="cls-42" points="58.27 66.83 60.86 65.33 60.86 61.75 58.27 63.24 58.27 66.83"/><polygon class="cls-38" points="59.63 66.08 59.49 66.16 59.49 62.5 59.63 62.42 59.63 66.08"/><polygon class="cls-40" points="60.53 65.14 60.53 61.94 60.86 61.75 60.86 65.33 58.27 66.83 58.27 66.45 60.53 65.14"/><polygon class="cls-41" points="60.86 65.33 60.53 65.14 58.27 66.45 58.27 66.83 60.86 65.33"/><polygon class="cls-38" points="53.74 77.57 56.71 75.86 56.71 71.97 53.74 73.68 53.74 77.57"/><polygon class="cls-42" points="53.93 77.31 56.52 75.81 56.52 72.23 53.93 73.72 53.93 77.31"/><polygon class="cls-38" points="55.3 76.56 55.16 76.64 55.16 72.98 55.3 72.89 55.3 76.56"/><polygon class="cls-40" points="56.19 75.62 56.19 72.42 56.52 72.23 56.52 75.81 53.93 77.31 53.93 76.92 56.19 75.62"/><polygon class="cls-41" points="56.52 75.81 56.19 75.62 53.93 76.92 53.93 77.31 56.52 75.81"/><polygon class="cls-38" points="53.74 69.58 56.71 67.87 56.71 63.98 53.74 65.69 53.74 69.58"/><polygon class="cls-42" points="53.93 69.32 56.52 67.83 56.52 64.24 53.93 65.74 53.93 69.32"/><polygon class="cls-38" points="55.3 68.57 55.16 68.65 55.16 64.99 55.3 64.91 55.3 68.57"/><polygon class="cls-40" points="56.19 67.64 56.19 64.43 56.52 64.24 56.52 67.83 53.93 69.32 53.93 68.94 56.19 67.64"/><polygon class="cls-41" points="56.52 67.83 56.19 67.64 53.93 68.94 53.93 69.32 56.52 67.83"/><polygon class="cls-38" points="66.67 70.13 69.63 68.41 69.63 64.52 66.67 66.23 66.67 70.13"/><polygon class="cls-42" points="66.86 69.86 69.44 68.37 69.44 64.79 66.86 66.28 66.86 69.86"/><polygon class="cls-38" points="68.22 69.11 68.08 69.2 68.08 65.54 68.22 65.45 68.22 69.11"/><polygon class="cls-40" points="69.12 68.18 69.12 64.97 69.44 64.79 69.44 68.37 66.86 69.86 66.86 69.48 69.12 68.18"/><polygon class="cls-41" points="69.44 68.37 69.12 68.18 66.86 69.48 66.86 69.86 69.44 68.37"/><polygon class="cls-38" points="66.67 62.14 69.63 60.43 69.63 56.54 66.67 58.25 66.67 62.14"/><polygon class="cls-42" points="66.86 61.88 69.44 60.39 69.44 56.8 66.86 58.3 66.86 61.88"/><polygon class="cls-38" points="68.22 61.13 68.08 61.21 68.08 57.55 68.22 57.47 68.22 61.13"/><polygon class="cls-40" points="69.12 60.19 69.12 56.99 69.44 56.8 69.44 60.39 66.86 61.88 66.86 61.5 69.12 60.19"/><polygon class="cls-41" points="69.44 60.39 69.12 60.19 66.86 61.5 66.86 61.88 69.44 60.39"/><polygon class="cls-38" points="62.33 72.62 65.3 70.91 65.3 67.02 62.33 68.73 62.33 72.62"/><polygon class="cls-42" points="62.52 72.36 65.11 70.86 65.11 67.28 62.52 68.77 62.52 72.36"/><polygon class="cls-38" points="63.89 71.61 63.74 71.69 63.74 68.03 63.89 67.95 63.89 71.61"/><polygon class="cls-40" points="64.78 70.67 64.78 67.47 65.11 67.28 65.11 70.86 62.52 72.36 62.52 71.98 64.78 70.67"/><polygon class="cls-41" points="65.11 70.86 64.78 70.67 62.52 71.98 62.52 72.36 65.11 70.86"/><polygon class="cls-38" points="62.33 64.64 65.3 62.92 65.3 59.03 62.33 60.74 62.33 64.64"/><polygon class="cls-42" points="62.52 64.37 65.11 62.88 65.11 59.3 62.52 60.79 62.52 64.37"/><polygon class="cls-38" points="63.89 63.62 63.74 63.71 63.74 60.05 63.89 59.96 63.89 63.62"/><polygon class="cls-40" points="64.78 62.69 64.78 59.48 65.11 59.3 65.11 62.88 62.52 64.37 62.52 63.99 64.78 62.69"/><polygon class="cls-41" points="65.11 62.88 64.78 62.69 62.52 63.99 62.52 64.37 65.11 62.88"/><polygon class="cls-38" points="75.4 65.08 78.36 63.37 78.36 59.48 75.4 61.19 75.4 65.08"/><polygon class="cls-42" points="75.58 64.82 78.17 63.33 78.17 59.74 75.58 61.24 75.58 64.82"/><polygon class="cls-38" points="76.95 64.07 76.81 64.15 76.81 60.49 76.95 60.41 76.95 64.07"/><polygon class="cls-40" points="77.84 63.14 77.84 59.93 78.17 59.74 78.17 63.33 75.58 64.82 75.58 64.44 77.84 63.14"/><polygon class="cls-41" points="78.17 63.33 77.84 63.14 75.58 64.44 75.58 64.82 78.17 63.33"/><polygon class="cls-38" points="75.4 57.1 78.36 55.39 78.36 51.5 75.4 53.21 75.4 57.1"/><polygon class="cls-42" points="75.58 56.84 78.17 55.34 78.17 51.76 75.58 53.26 75.58 56.84"/><polygon class="cls-38" points="76.95 56.09 76.81 56.17 76.81 52.51 76.95 52.43 76.95 56.09"/><polygon class="cls-40" points="77.84 55.15 77.84 51.95 78.17 51.76 78.17 55.34 75.58 56.84 75.58 56.46 77.84 55.15"/><polygon class="cls-41" points="78.17 55.34 77.84 55.15 75.58 56.46 75.58 56.84 78.17 55.34"/><polygon class="cls-38" points="71.06 67.58 74.03 65.87 74.03 61.98 71.06 63.69 71.06 67.58"/><polygon class="cls-42" points="71.25 67.32 73.84 65.82 73.84 62.24 71.25 63.73 71.25 67.32"/><polygon class="cls-38" points="72.61 66.57 72.47 66.65 72.47 62.99 72.61 62.91 72.61 66.57"/><polygon class="cls-40" points="73.51 65.63 73.51 62.43 73.84 62.24 73.84 65.82 71.25 67.32 71.25 66.94 73.51 65.63"/><polygon class="cls-41" points="73.84 65.82 73.51 65.63 71.25 66.94 71.25 67.32 73.84 65.82"/><polygon class="cls-38" points="71.06 59.59 74.03 57.88 74.03 53.99 71.06 55.7 71.06 59.59"/><polygon class="cls-42" points="71.25 59.33 73.84 57.84 73.84 54.25 71.25 55.75 71.25 59.33"/><polygon class="cls-38" points="72.61 58.58 72.47 58.66 72.47 55 72.61 54.92 72.61 58.58"/><polygon class="cls-40" points="73.51 57.65 73.51 54.44 73.84 54.25 73.84 57.84 71.25 59.33 71.25 58.95 73.51 57.65"/><polygon class="cls-41" points="73.84 57.84 73.51 57.65 71.25 58.95 71.25 59.33 73.84 57.84"/><polygon class="cls-38" points="55.9 41.94 58.86 40.23 58.86 36.34 55.9 38.05 55.9 41.94"/><polygon class="cls-42" points="56.09 41.68 58.67 40.19 58.67 36.6 56.09 38.1 56.09 41.68"/><polygon class="cls-38" points="57.45 40.93 57.31 41.01 57.31 37.35 57.45 37.27 57.45 40.93"/><polygon class="cls-40" points="58.35 39.99 58.35 36.79 58.67 36.6 58.67 40.19 56.09 41.68 56.09 41.3 58.35 39.99"/><polygon class="cls-41" points="58.67 40.19 58.35 39.99 56.09 41.3 56.09 41.68 58.67 40.19"/><polygon class="cls-38" points="55.9 33.96 58.86 32.25 58.86 28.36 55.9 30.07 55.9 33.96"/><polygon class="cls-42" points="56.09 33.7 58.67 32.2 58.67 28.62 56.09 30.11 56.09 33.7"/><polygon class="cls-38" points="57.45 32.95 57.31 33.03 57.31 29.37 57.45 29.29 57.45 32.95"/><polygon class="cls-40" points="58.35 32.01 58.35 28.81 58.67 28.62 58.67 32.2 56.09 33.7 56.09 33.32 58.35 32.01"/><polygon class="cls-41" points="58.67 32.2 58.35 32.01 56.09 33.32 56.09 33.7 58.67 32.2"/><polygon class="cls-38" points="51.56 44.44 54.53 42.73 54.53 38.83 51.56 40.55 51.56 44.44"/><polygon class="cls-42" points="51.75 44.17 54.34 42.68 54.34 39.1 51.75 40.59 51.75 44.17"/><polygon class="cls-38" points="53.12 43.42 52.97 43.51 52.97 39.85 53.12 39.77 53.12 43.42"/><polygon class="cls-40" points="54.01 42.49 54.01 39.28 54.34 39.1 54.34 42.68 51.75 44.17 51.75 43.79 54.01 42.49"/><polygon class="cls-41" points="54.34 42.68 54.01 42.49 51.75 43.79 51.75 44.17 54.34 42.68"/><polygon class="cls-38" points="51.56 36.45 54.53 34.74 54.53 30.85 51.56 32.56 51.56 36.45"/><polygon class="cls-42" points="51.75 36.19 54.34 34.7 54.34 31.11 51.75 32.61 51.75 36.19"/><polygon class="cls-38" points="53.12 35.44 52.97 35.52 52.97 31.86 53.12 31.78 53.12 35.44"/><polygon class="cls-40" points="54.01 34.51 54.01 31.3 54.34 31.11 54.34 34.7 51.75 36.19 51.75 35.81 54.01 34.51"/><polygon class="cls-41" points="54.34 34.7 54.01 34.51 51.75 35.81 51.75 36.19 54.34 34.7"/><polygon class="cls-38" points="64.49 37 67.45 35.28 67.45 31.39 64.49 33.1 64.49 37"/><polygon class="cls-42" points="64.67 36.73 67.26 35.24 67.26 31.66 64.67 33.15 64.67 36.73"/><polygon class="cls-38" points="66.04 35.98 65.9 36.06 65.9 32.41 66.04 32.32 66.04 35.98"/><polygon class="cls-40" points="66.94 35.05 66.94 31.84 67.26 31.66 67.26 35.24 64.67 36.73 64.67 36.35 66.94 35.05"/><polygon class="cls-41" points="67.26 35.24 66.94 35.05 64.67 36.35 64.67 36.73 67.26 35.24"/><polygon class="cls-38" points="64.49 29.01 67.45 27.3 67.45 23.41 64.49 25.12 64.49 29.01"/><polygon class="cls-42" points="64.67 28.75 67.26 27.26 67.26 23.67 64.67 25.17 64.67 28.75"/><polygon class="cls-38" points="66.04 28 65.9 28.08 65.9 24.42 66.04 24.34 66.04 28"/><polygon class="cls-40" points="66.94 27.06 66.94 23.86 67.26 23.67 67.26 27.26 64.67 28.75 64.67 28.37 66.94 27.06"/><polygon class="cls-41" points="67.26 27.26 66.94 27.06 64.67 28.37 64.67 28.75 67.26 27.26"/><polygon class="cls-38" points="60.15 39.49 63.12 37.78 63.12 33.89 60.15 35.6 60.15 39.49"/><polygon class="cls-42" points="60.34 39.23 62.93 37.73 62.93 34.15 60.34 35.64 60.34 39.23"/><polygon class="cls-38" points="61.7 38.48 61.56 38.56 61.56 34.9 61.7 34.82 61.7 38.48"/><polygon class="cls-40" points="62.6 37.54 62.6 34.34 62.93 34.15 62.93 37.73 60.34 39.23 60.34 38.85 62.6 37.54"/><polygon class="cls-41" points="62.93 37.73 62.6 37.54 60.34 38.85 60.34 39.23 62.93 37.73"/><polygon class="cls-38" points="60.15 31.51 63.12 29.79 63.12 25.9 60.15 27.61 60.15 31.51"/><polygon class="cls-42" points="60.34 31.24 62.93 29.75 62.93 26.16 60.34 27.66 60.34 31.24"/><polygon class="cls-38" points="61.7 30.49 61.56 30.57 61.56 26.92 61.7 26.83 61.7 30.49"/><polygon class="cls-40" points="62.6 29.56 62.6 26.35 62.93 26.16 62.93 29.75 60.34 31.24 60.34 30.86 62.6 29.56"/><polygon class="cls-41" points="62.93 29.75 62.6 29.56 60.34 30.86 60.34 31.24 62.93 29.75"/><polygon class="cls-38" points="73.21 31.95 76.18 30.24 76.18 26.35 73.21 28.06 73.21 31.95"/><polygon class="cls-42" points="73.4 31.69 75.99 30.2 75.99 26.61 73.4 28.11 73.4 31.69"/><polygon class="cls-38" points="74.77 30.94 74.63 31.02 74.63 27.36 74.77 27.28 74.77 30.94"/><polygon class="cls-40" points="75.66 30.01 75.66 26.8 75.99 26.61 75.99 30.2 73.4 31.69 73.4 31.31 75.66 30.01"/><polygon class="cls-41" points="75.99 30.2 75.66 30.01 73.4 31.31 73.4 31.69 75.99 30.2"/><polygon class="cls-38" points="73.21 23.97 76.18 22.26 76.18 18.37 73.21 20.08 73.21 23.97"/><polygon class="cls-39" points="73.4 23.71 75.99 22.21 75.99 18.63 73.4 20.12 73.4 23.71"/><polygon class="cls-38" points="74.77 22.96 74.63 23.04 74.63 19.38 74.77 19.3 74.77 22.96"/><polygon class="cls-40" points="75.66 22.02 75.66 18.82 75.99 18.63 75.99 22.21 73.4 23.71 73.4 23.33 75.66 22.02"/><polygon class="cls-41" points="75.99 22.21 75.66 22.02 73.4 23.33 73.4 23.71 75.99 22.21"/><polygon class="cls-38" points="68.88 34.45 71.84 32.74 71.84 28.84 68.88 30.56 68.88 34.45"/><polygon class="cls-42" points="69.07 34.19 71.66 32.69 71.66 29.11 69.07 30.6 69.07 34.19"/><polygon class="cls-38" points="70.43 33.44 70.29 33.52 70.29 29.86 70.43 29.77 70.43 33.44"/><polygon class="cls-40" points="71.33 32.5 71.33 29.3 71.66 29.11 71.66 32.69 69.07 34.19 69.07 33.8 71.33 32.5"/><polygon class="cls-41" points="71.66 32.69 71.33 32.5 69.07 33.8 69.07 34.19 71.66 32.69"/><polygon class="cls-38" points="68.88 26.46 71.84 24.75 71.84 20.86 68.88 22.57 68.88 26.46"/><polygon class="cls-42" points="69.07 26.2 71.66 24.71 71.66 21.12 69.07 22.62 69.07 26.2"/><polygon class="cls-38" points="70.43 25.45 70.29 25.53 70.29 21.87 70.43 21.79 70.43 25.45"/><polygon class="cls-40" points="71.33 24.52 71.33 21.31 71.66 21.12 71.66 24.71 69.07 26.2 69.07 25.82 71.33 24.52"/><polygon class="cls-41" points="71.66 24.71 71.33 24.52 69.07 25.82 69.07 26.2 71.66 24.71"/><polygon class="cls-38" points="83.98 60.14 86.95 58.42 86.95 54.53 83.98 56.25 83.98 60.14"/><polygon class="cls-42" points="84.17 59.88 86.76 58.38 86.76 54.8 84.17 56.29 84.17 59.88"/><polygon class="cls-38" points="85.54 59.12 85.4 59.21 85.4 55.55 85.54 55.47 85.54 59.12"/><polygon class="cls-40" points="86.43 58.19 86.43 54.98 86.76 54.8 86.76 58.38 84.17 59.88 84.17 59.49 86.43 58.19"/><polygon class="cls-41" points="86.76 58.38 86.43 58.19 84.17 59.49 84.17 59.88 86.76 58.38"/><polygon class="cls-38" points="83.98 52.15 86.95 50.44 86.95 46.55 83.98 48.26 83.98 52.15"/><polygon class="cls-42" points="84.17 51.89 86.76 50.4 86.76 46.81 84.17 48.31 84.17 51.89"/><polygon class="cls-38" points="85.54 51.14 85.4 51.22 85.4 47.56 85.54 47.48 85.54 51.14"/><polygon class="cls-40" points="86.43 50.2 86.43 47 86.76 46.81 86.76 50.4 84.17 51.89 84.17 51.51 86.43 50.2"/><polygon class="cls-41" points="86.76 50.4 86.43 50.2 84.17 51.51 84.17 51.89 86.76 50.4"/><polygon class="cls-38" points="79.65 62.63 82.62 60.92 82.62 57.03 79.65 58.74 79.65 62.63"/><polygon class="cls-42" points="79.84 62.37 82.43 60.87 82.43 57.29 79.84 58.78 79.84 62.37"/><polygon class="cls-38" points="81.2 61.62 81.06 61.7 81.06 58.04 81.2 57.96 81.2 61.62"/><polygon class="cls-40" points="82.1 60.68 82.1 57.48 82.43 57.29 82.43 60.87 79.84 62.37 79.84 61.99 82.1 60.68"/><polygon class="cls-41" points="82.43 60.87 82.1 60.68 79.84 61.99 79.84 62.37 82.43 60.87"/><polygon class="cls-38" points="79.65 54.65 82.62 52.94 82.62 49.04 79.65 50.76 79.65 54.65"/><polygon class="cls-42" points="79.84 54.38 82.43 52.89 82.43 49.31 79.84 50.8 79.84 54.38"/><polygon class="cls-38" points="81.2 53.63 81.06 53.72 81.06 50.06 81.2 49.98 81.2 53.63"/><polygon class="cls-40" points="82.1 52.7 82.1 49.49 82.43 49.31 82.43 52.89 79.84 54.38 79.84 54 82.1 52.7"/><polygon class="cls-41" points="82.43 52.89 82.1 52.7 79.84 54 79.84 54.38 82.43 52.89"/><polygon class="cls-43" points="27.83 88.9 32.61 96.2 34.43 95.14 34.43 85.09 27.83 88.9"/><polygon class="cls-21" points="29.2 89.68 33.98 96.98 35.8 95.93 35.8 85.87 29.2 89.68"/><polygon class="cls-43" points="27.83 88.9 29.2 89.68 33.98 96.98 32.61 96.2 27.83 88.9"/><polygon class="cls-43" points="16.43 82.38 21.2 89.68 23.03 88.63 23.03 78.57 16.43 82.38"/><polygon class="cls-8" points="17.8 83.16 22.57 90.47 24.4 89.41 24.4 79.35 17.8 83.16"/><polygon class="cls-43" points="16.43 82.38 17.8 83.16 22.57 90.47 21.2 89.68 16.43 82.38"/><polygon class="cls-44" points="28.5 90.78 15.67 83.4 15.67 82.25 28.5 89.63 28.5 90.78"/><polygon class="cls-44" points="35.88 86.53 23.05 79.15 23.05 78 35.88 85.38 35.88 86.53"/><polygon class="cls-45" points="28.5 90.78 35.88 86.53 35.88 85.38 28.5 89.63 28.5 90.78"/><polygon class="cls-46" points="15.67 82.25 23.05 78 35.88 85.38 28.5 89.63 15.67 82.25"/><polygon class="cls-38" points="55.9 49.54 58.86 47.83 58.86 43.94 55.9 45.65 55.9 49.54"/><polygon class="cls-42" points="56.09 49.28 58.67 47.79 58.67 44.2 56.09 45.7 56.09 49.28"/><polygon class="cls-38" points="57.45 48.53 57.31 48.61 57.31 44.95 57.45 44.87 57.45 48.53"/><polygon class="cls-40" points="58.35 47.59 58.35 44.39 58.67 44.2 58.67 47.79 56.09 49.28 56.09 48.9 58.35 47.59"/><polygon class="cls-41" points="58.67 47.79 58.35 47.59 56.09 48.9 56.09 49.28 58.67 47.79"/><polygon class="cls-38" points="51.56 52.04 54.53 50.33 54.53 46.43 51.56 48.15 51.56 52.04"/><polygon class="cls-42" points="51.75 51.77 54.34 50.28 54.34 46.7 51.75 48.19 51.75 51.77"/><polygon class="cls-38" points="53.12 51.02 52.97 51.11 52.97 47.45 53.12 47.36 53.12 51.02"/><polygon class="cls-40" points="54.01 50.09 54.01 46.88 54.34 46.7 54.34 50.28 51.75 51.77 51.75 51.39 54.01 50.09"/><polygon class="cls-41" points="54.34 50.28 54.01 50.09 51.75 51.39 51.75 51.77 54.34 50.28"/><polygon class="cls-38" points="49.06 44.44 46.1 42.73 46.1 38.83 49.07 40.55 49.06 44.44"/><polygon class="cls-47" points="48.88 44.17 46.29 42.68 46.29 39.1 48.88 40.59 48.88 44.17"/><polygon class="cls-38" points="47.51 43.42 47.65 43.51 47.65 39.85 47.51 39.77 47.51 43.42"/><polygon class="cls-40" points="46.62 42.49 46.62 39.28 46.29 39.1 46.29 42.68 48.88 44.17 48.88 43.79 46.62 42.49"/><polygon class="cls-41" points="46.29 42.68 46.62 42.49 48.88 43.79 48.88 44.17 46.29 42.68"/><polygon class="cls-38" points="49.06 36.45 46.1 34.74 46.1 30.85 49.07 32.56 49.06 36.45"/><polygon class="cls-47" points="48.88 36.19 46.29 34.7 46.29 31.11 48.88 32.61 48.88 36.19"/><polygon class="cls-38" points="47.51 35.44 47.65 35.52 47.65 31.86 47.51 31.78 47.51 35.44"/><polygon class="cls-40" points="46.62 34.51 46.62 31.3 46.29 31.11 46.29 34.7 48.88 36.19 48.88 35.81 46.62 34.51"/><polygon class="cls-41" points="46.29 34.7 46.62 34.51 48.88 35.81 48.88 36.19 46.29 34.7"/><polygon class="cls-38" points="49.06 52.04 46.1 50.33 46.1 46.43 49.07 48.15 49.06 52.04"/><polygon class="cls-47" points="48.88 51.77 46.29 50.28 46.29 46.7 48.88 48.19 48.88 51.77"/><polygon class="cls-38" points="47.51 51.02 47.65 51.11 47.65 47.45 47.51 47.36 47.51 51.02"/><polygon class="cls-40" points="46.62 50.09 46.62 46.88 46.29 46.7 46.29 50.28 48.88 51.77 48.88 51.39 46.62 50.09"/><polygon class="cls-41" points="46.29 50.28 46.62 50.09 48.88 51.39 48.88 51.77 46.29 50.28"/><polygon class="cls-38" points="64.49 44.59 67.45 42.88 67.45 38.99 64.49 40.7 64.49 44.59"/><polygon class="cls-42" points="64.67 44.33 67.26 42.84 67.26 39.26 64.67 40.75 64.67 44.33"/><polygon class="cls-38" points="66.04 43.58 65.9 43.66 65.9 40.01 66.04 39.92 66.04 43.58"/><polygon class="cls-40" points="66.94 42.65 66.94 39.44 67.26 39.26 67.26 42.84 64.67 44.33 64.67 43.95 66.94 42.65"/><polygon class="cls-41" points="67.26 42.84 66.94 42.65 64.67 43.95 64.67 44.33 67.26 42.84"/><polygon class="cls-38" points="60.15 47.09 63.12 45.38 63.12 41.49 60.15 43.2 60.15 47.09"/><polygon class="cls-42" points="60.34 46.83 62.93 45.33 62.93 41.75 60.34 43.24 60.34 46.83"/><polygon class="cls-38" points="61.7 46.08 61.56 46.16 61.56 42.5 61.7 42.42 61.7 46.08"/><polygon class="cls-40" points="62.6 45.14 62.6 41.94 62.93 41.75 62.93 45.33 60.34 46.83 60.34 46.45 62.6 45.14"/><polygon class="cls-41" points="62.93 45.33 62.6 45.14 60.34 46.45 60.34 46.83 62.93 45.33"/><polygon class="cls-38" points="73.21 39.55 76.18 37.84 76.18 33.95 73.21 35.66 73.21 39.55"/><polygon class="cls-42" points="73.4 39.29 75.99 37.8 75.99 34.21 73.4 35.71 73.4 39.29"/><polygon class="cls-38" points="74.77 38.54 74.63 38.62 74.63 34.96 74.77 34.88 74.77 38.54"/><polygon class="cls-40" points="75.66 37.6 75.66 34.4 75.99 34.21 75.99 37.8 73.4 39.29 73.4 38.91 75.66 37.6"/><polygon class="cls-41" points="75.99 37.8 75.66 37.6 73.4 38.91 73.4 39.29 75.99 37.8"/><polygon class="cls-38" points="68.88 42.05 71.84 40.34 71.84 36.45 68.88 38.16 68.88 42.05"/><polygon class="cls-42" points="69.07 41.78 71.66 40.29 71.66 36.71 69.07 38.2 69.07 41.78"/><polygon class="cls-38" points="70.43 41.03 70.29 41.12 70.29 37.46 70.43 37.38 70.43 41.03"/><polygon class="cls-40" points="71.33 40.1 71.33 36.9 71.66 36.71 71.66 40.29 69.07 41.78 69.07 41.4 71.33 40.1"/><polygon class="cls-41" points="71.66 40.29 71.33 40.1 69.07 41.4 69.07 41.78 71.66 40.29"/><polygon class="cls-48" points="33.98 96.98 47.26 96.98 47.26 88.68 39.92 84.5 35.88 85.38 35.8 95.93 33.98 96.98"/><polygon class="cls-49" points="50.96 57.2 62.75 57.2 88.14 42.55 76.76 35.96 76.77 42.3 50.96 57.2"/><polygon class="cls-50" points="45.36 105.34 49.92 106.01 49.66 106.25 45.13 105.59 45.36 105.34"/><polygon class="cls-50" points="49.13 105.98 49.91 105.65 51.14 105.6 54.07 105.91 54.45 106.2 54.35 106.84 53.71 107.36 52.58 107.84 51.22 107.71 48.67 106.89 48.65 106.43 49.13 105.98"/><path class="cls-50" d="M35.1,106.82a4.35,4.35,0,0,1-1.11-.3s-.05-.07.19-.62l.11,0c-.08.19-.17.41-.19.49s.6.17,1,.27Z" transform="translate(13.94)"/><path class="cls-50" d="M34.85,106l-.06-.1a2.19,2.19,0,0,1,1.42-.23l0,.12A2.13,2.13,0,0,0,34.85,106Z" transform="translate(13.94)"/><path class="cls-51" d="M32.45,104.69a.66.66,0,0,1,0,1.24,2.39,2.39,0,0,1-2.15,0,.66.66,0,0,1,0-1.24A2.39,2.39,0,0,1,32.45,104.69Z" transform="translate(13.94)"/><path class="cls-52" d="M32.45,104.17a.66.66,0,0,1,0,1.24,2.39,2.39,0,0,1-2.15,0,.66.66,0,0,1,0-1.24A2.39,2.39,0,0,1,32.45,104.17Z" transform="translate(13.94)"/><path class="cls-53" d="M32.21,104.3c.47.27.47.71,0,1a1.82,1.82,0,0,1-1.67,0c-.47-.26-.47-.7,0-1A1.89,1.89,0,0,1,32.21,104.3Z" transform="translate(13.94)"/><path class="cls-54" d="M30.59,104.66a1.84,1.84,0,0,1,1.68,0,.73.73,0,0,1,.27.25c.07-.22,0-.44-.33-.61a1.89,1.89,0,0,0-1.67,0c-.34.2-.43.48-.28.73A.64.64,0,0,1,30.59,104.66Z" transform="translate(13.94)"/><path class="cls-55" d="M31.3,102.61a2.67,2.67,0,0,1-.63-.14c-.38-.13-.43-.23-.44-.31s0-1.31,0-1.36h.21c0,.4,0,1.18,0,1.33a.75.75,0,0,0,.34.16,3.35,3.35,0,0,0,.54.12Z" transform="translate(13.94)"/><path class="cls-55" d="M31.54,102.06l0-.13c.14-.05.53-.2.62-.36a2.53,2.53,0,0,0,.11-.8h.13a2.71,2.71,0,0,1-.12.86.84.84,0,0,1-.41.31Zm0-.07,0-.06Z" transform="translate(13.94)"/><rect class="cls-55" x="45.12" y="100.64" width="0.43" height="4.23"/><polygon class="cls-56" points="42.79 96.16 42.87 98.49 43.27 99.86 43.55 100.83 44.31 101.32 45.79 101.4 47.11 100.84 47.53 99.14 47.63 96.69 42.79 96.16"/><polygon class="cls-57" points="42.79 96.16 43.33 97.45 45.47 97.9 47.63 96.69 47.33 95.63 45.76 95.1 44.63 95.09 42.79 96.16"/><path class="cls-58" d="M31.53,97.9l.2,1.87.12,1.63a10.42,10.42,0,0,0,1.32-.56l.42-1.7.1-2.45Z" transform="translate(13.94)"/><polygon class="cls-59" points="43.33 97.45 42.91 98.58 43.55 100.83 44.31 101.32 43.33 97.45"/><polygon class="cls-56" points="43.33 97.45 45.47 97.9 45.79 101.4 44.31 101.32 43.33 97.45"/><path class="cls-55" d="M31.63,104.87c0,.06-.11.1-.24.1s-.24,0-.24-.1.11-.1.24-.1S31.63,104.82,31.63,104.87Z" transform="translate(13.94)"/><polygon class="cls-50" points="59.17 106.17 63.73 106.84 63.47 107.08 58.94 106.42 59.17 106.17"/><polygon class="cls-50" points="62.94 106.81 63.72 106.48 64.95 106.43 67.88 106.74 68.27 107.03 68.17 107.67 67.52 108.19 66.39 108.67 65.03 108.54 62.49 107.72 62.47 107.26 62.94 106.81"/><path class="cls-50" d="M48.91,107.65a4.66,4.66,0,0,1-1.11-.3s0-.07.2-.62l.11,0a3.89,3.89,0,0,0-.2.49c.13,0,.6.17,1,.27Z" transform="translate(13.94)"/><path class="cls-50" d="M48.66,106.79l-.06-.1a2.25,2.25,0,0,1,1.42-.22v.11A2.28,2.28,0,0,0,48.66,106.79Z" transform="translate(13.94)"/><path class="cls-51" d="M46.26,105.52a.65.65,0,0,1,0,1.24,2.33,2.33,0,0,1-2.15,0,.66.66,0,0,1,0-1.24A2.39,2.39,0,0,1,46.26,105.52Z" transform="translate(13.94)"/><path class="cls-52" d="M46.26,105a.65.65,0,0,1,0,1.24,2.39,2.39,0,0,1-2.15,0,.66.66,0,0,1,0-1.24A2.39,2.39,0,0,1,46.26,105Z" transform="translate(13.94)"/><path class="cls-53" d="M46,105.14a.51.51,0,0,1,0,1,1.84,1.84,0,0,1-1.68,0,.51.51,0,0,1,0-1A1.84,1.84,0,0,1,46,105.14Z" transform="translate(13.94)"/><path class="cls-54" d="M44.41,105.49a1.82,1.82,0,0,1,1.67,0,.77.77,0,0,1,.28.25.54.54,0,0,0-.33-.6,1.84,1.84,0,0,0-1.68,0c-.34.19-.43.47-.27.72A.64.64,0,0,1,44.41,105.49Z" transform="translate(13.94)"/><path class="cls-55" d="M45.12,103.44a2.74,2.74,0,0,1-.64-.14c-.38-.13-.43-.23-.43-.31s0-1.31,0-1.36h.21c0,.41,0,1.18,0,1.34a1.27,1.27,0,0,0,.34.15,3.45,3.45,0,0,0,.55.12Z" transform="translate(13.94)"/><path class="cls-55" d="M45.35,102.89l0-.13c.15,0,.54-.2.62-.36a2.45,2.45,0,0,0,.11-.8h.14a2.8,2.8,0,0,1-.13.86.8.8,0,0,1-.4.31Zm0-.07,0-.06Z" transform="translate(13.94)"/><rect class="cls-55" x="58.93" y="101.47" width="0.43" height="4.23"/><polygon class="cls-56" points="56.61 96.99 56.68 99.32 57.08 100.69 57.37 101.66 58.13 102.15 59.6 102.23 60.92 101.67 61.35 99.97 61.44 97.52 56.61 96.99"/><polygon class="cls-57" points="56.61 96.99 57.15 98.29 59.28 98.73 61.44 97.52 61.14 96.46 59.57 95.93 58.44 95.92 56.61 96.99"/><path class="cls-58" d="M45.34,98.73l.2,1.88.12,1.62a10.42,10.42,0,0,0,1.32-.56l.43-1.7.09-2.45Z" transform="translate(13.94)"/><polygon class="cls-59" points="57.15 98.29 56.72 99.41 57.37 101.66 58.13 102.15 57.15 98.29"/><polygon class="cls-56" points="57.15 98.29 59.28 98.73 59.6 102.23 58.13 102.15 57.15 98.29"/><path class="cls-55" d="M45.44,105.7c0,.06-.11.11-.24.11s-.23,0-.23-.11.1-.1.23-.1S45.44,105.65,45.44,105.7Z" transform="translate(13.94)"/><polygon class="cls-50" points="52.13 110.44 56.69 111.11 56.42 111.36 51.9 110.69 52.13 110.44"/><polygon class="cls-50" points="55.9 111.09 56.68 110.76 57.9 110.7 60.83 111.02 61.22 111.31 61.12 111.94 60.48 112.47 59.35 112.94 57.99 112.81 55.44 112 55.42 111.54 55.9 111.09"/><path class="cls-50" d="M41.86,111.93c-1.06-.26-1.09-.29-1.1-.31s0-.06.19-.61l.11,0c-.08.19-.17.42-.19.5l1,.26Z" transform="translate(13.94)"/><path class="cls-50" d="M41.62,111.06l-.06-.1a2.3,2.3,0,0,1,1.42-.22l0,.12A2.25,2.25,0,0,0,41.62,111.06Z" transform="translate(13.94)"/><path class="cls-51" d="M39.22,109.8a.66.66,0,0,1,0,1.24,2.39,2.39,0,0,1-2.15,0,.66.66,0,0,1,0-1.24A2.33,2.33,0,0,1,39.22,109.8Z" transform="translate(13.94)"/><path class="cls-52" d="M39.22,109.27a.66.66,0,0,1,0,1.25,2.39,2.39,0,0,1-2.15,0,.66.66,0,0,1,0-1.25A2.39,2.39,0,0,1,39.22,109.27Z" transform="translate(13.94)"/><path class="cls-53" d="M39,109.41a.51.51,0,0,1,0,1,1.82,1.82,0,0,1-1.67,0c-.47-.27-.47-.7,0-1A1.82,1.82,0,0,1,39,109.41Z" transform="translate(13.94)"/><path class="cls-54" d="M37.36,109.77a1.84,1.84,0,0,1,1.68,0,.8.8,0,0,1,.27.24c.07-.21,0-.44-.33-.6a1.82,1.82,0,0,0-1.67,0c-.34.2-.43.48-.28.72A.66.66,0,0,1,37.36,109.77Z" transform="translate(13.94)"/><path class="cls-55" d="M38.07,107.72a3.13,3.13,0,0,1-.63-.14c-.38-.13-.44-.24-.44-.31s0-1.32,0-1.37h.21c0,.41,0,1.19,0,1.34a1,1,0,0,0,.34.15,2.41,2.41,0,0,0,.54.12Z" transform="translate(13.94)"/><path class="cls-55" d="M38.31,107.16l0-.13c.14,0,.53-.19.62-.36a2.43,2.43,0,0,0,.11-.79h.13a2.74,2.74,0,0,1-.12.86,1,1,0,0,1-.41.31A2.2,2.2,0,0,1,38.31,107.16Zm0-.06,0-.07Z" transform="translate(13.94)"/><rect class="cls-55" x="51.88" y="105.74" width="0.43" height="4.23"/><polygon class="cls-56" points="49.56 101.27 49.63 103.59 50.04 104.97 50.32 105.94 51.08 106.43 52.56 106.5 53.88 105.95 54.3 104.24 54.4 101.8 49.56 101.27"/><polygon class="cls-57" points="49.56 101.27 50.1 102.56 52.24 103.01 54.4 101.8 54.1 100.73 52.53 100.2 51.4 100.2 49.56 101.27"/><path class="cls-58" d="M38.3,103l.19,1.87.13,1.62a10.94,10.94,0,0,0,1.32-.55l.42-1.71.1-2.44Z" transform="translate(13.94)"/><polygon class="cls-59" points="50.1 102.56 49.68 103.68 50.32 105.94 51.08 106.43 50.1 102.56"/><polygon class="cls-56" points="50.1 102.56 52.24 103.01 52.56 106.5 51.08 106.43 50.1 102.56"/><path class="cls-55" d="M38.39,110c0,.06-.1.1-.23.1s-.24,0-.24-.1.11-.1.24-.1S38.39,109.92,38.39,110Z" transform="translate(13.94)"/><polygon class="cls-50" points="66.93 102.21 71.49 102.88 71.23 103.13 66.7 102.46 66.93 102.21"/><polygon class="cls-50" points="70.7 102.86 71.48 102.52 72.71 102.47 75.64 102.78 76.02 103.08 75.92 103.71 75.28 104.24 74.15 104.71 72.79 104.58 70.25 103.76 70.22 103.3 70.7 102.86"/><path class="cls-50" d="M56.67,103.7a4.43,4.43,0,0,1-1.11-.31s-.05-.06.19-.62l.11,0a4.52,4.52,0,0,0-.19.5l1,.26Z" transform="translate(13.94)"/><path class="cls-50" d="M56.42,102.83l-.06-.1a2.23,2.23,0,0,1,1.42-.22l0,.11A2.21,2.21,0,0,0,56.42,102.83Z" transform="translate(13.94)"/><path class="cls-51" d="M54,101.56a.66.66,0,0,1,0,1.25,2.39,2.39,0,0,1-2.15,0,.66.66,0,0,1,0-1.25A2.39,2.39,0,0,1,54,101.56Z" transform="translate(13.94)"/><ellipse class="cls-52" cx="66.89" cy="101.66" rx="1.52" ry="0.88"/><path class="cls-53" d="M53.78,101.18c.47.27.47.7,0,1a1.89,1.89,0,0,1-1.67,0,.51.51,0,0,1,0-1A1.82,1.82,0,0,1,53.78,101.18Z" transform="translate(13.94)"/><path class="cls-54" d="M52.16,101.53a1.91,1.91,0,0,1,1.68,0,.74.74,0,0,1,.27.25c.07-.21,0-.44-.33-.6a1.82,1.82,0,0,0-1.67,0c-.34.19-.43.48-.28.72A.76.76,0,0,1,52.16,101.53Z" transform="translate(13.94)"/><path class="cls-55" d="M52.87,99.49a3.55,3.55,0,0,1-.63-.15c-.38-.12-.43-.23-.44-.31s0-1.31,0-1.36H52c0,.41,0,1.18,0,1.34a1.1,1.1,0,0,0,.34.15,2.54,2.54,0,0,0,.54.12Z" transform="translate(13.94)"/><path class="cls-55" d="M53.11,98.93l0-.13c.14,0,.53-.19.62-.36a2.45,2.45,0,0,0,.11-.8h.13a2.71,2.71,0,0,1-.12.86.84.84,0,0,1-.41.32A1.75,1.75,0,0,1,53.11,98.93Zm0-.06,0-.07Z" transform="translate(13.94)"/><rect class="cls-55" x="66.69" y="97.51" width="0.43" height="4.23"/><polygon class="cls-56" points="64.36 93.04 64.44 95.36 64.84 96.73 65.12 97.7 65.89 98.19 67.36 98.27 68.68 97.72 69.11 96.01 69.2 93.57 64.36 93.04"/><polygon class="cls-57" points="64.36 93.04 64.9 94.33 67.04 94.78 69.2 93.57 68.9 92.5 67.33 91.97 66.2 91.96 64.36 93.04"/><path class="cls-58" d="M53.1,94.78l.2,1.87.12,1.62a12,12,0,0,0,1.32-.55L55.16,96l.1-2.44Z" transform="translate(13.94)"/><polygon class="cls-59" points="64.9 94.33 64.48 95.45 65.12 97.7 65.89 98.19 64.9 94.33"/><polygon class="cls-56" points="64.9 94.33 67.04 94.78 67.36 98.27 65.89 98.19 64.9 94.33"/><path class="cls-55" d="M53.2,101.75s-.11.1-.24.1-.24,0-.24-.1.11-.1.24-.1S53.2,101.69,53.2,101.75Z" transform="translate(13.94)"/></g></g></g></svg>