<svg xmlns="http://www.w3.org/2000/svg" xmlns:xlink="http://www.w3.org/1999/xlink" viewBox="0 0 133.76 94.64"><defs><style>.cls-1{fill:none;}.cls-2{fill:#7ac4be;}.cls-3{isolation:isolate;}.cls-4{fill:#94907a;}.cls-5{fill:#e8e2c0;}.cls-6{fill:#bdcc12;}.cls-7{fill:#cfc699;}.cls-8{fill:#b5a974;}.cls-9{clip-path:url(#clip-path);}.cls-10{fill:#cdd987;}.cls-10,.cls-47,.cls-48{mix-blend-mode:multiply;}.cls-11{fill:#63584f;}.cls-12{fill:#9e9893;}.cls-13{fill:#614026;}.cls-14{fill:#e89a5b;}.cls-15{fill:#ffb57a;}.cls-16{fill:#b85f1a;}.cls-17{fill:#cf7736;}.cls-18{fill:#b57240;}.cls-19{fill:#ffae70;}.cls-20{clip-path:url(#clip-path-2);}.cls-21{fill:#8cded8;}.cls-22{clip-path:url(#clip-path-3);}.cls-23{fill:#ad5a13;}.cls-24{fill:#eda266;}.cls-25{fill:#c76d26;}.cls-26{fill:#523117;}.cls-27{clip-path:url(#clip-path-4);}.cls-28{clip-path:url(#clip-path-5);}.cls-29{clip-path:url(#clip-path-6);}.cls-30{fill:#35a199;}.cls-31{fill:#c97a38;}.cls-32{fill:#694629;}.cls-33{fill:#402814;}.cls-34{fill:#9e6f4a;}.cls-35{fill:#857870;}.cls-36{fill:#baafa6;}.cls-37{fill:#bfb6ae;}.cls-38{fill:#d9d2ca;}.cls-39{fill:#e0d9d3;}.cls-40{fill:#e8e2de;}.cls-41{fill:#f2f0ed;}.cls-42{fill:#8eab00;}.cls-43{fill:#667a00;}.cls-44{fill:#849e00;}.cls-45{fill:#99b800;}.cls-46{clip-path:url(#clip-path-7);}.cls-47{fill:#d5de9e;}.cls-48{fill:#dae3a3;}.cls-49{fill:#a8a8a8;}.cls-50{fill:#ededed;}.cls-51{fill:#6e5535;}.cls-52{fill:#c7c7c7;}.cls-53{fill:#8f5100;}.cls-54{fill:#778f00;}.cls-55{fill:#abc90e;}.cls-56{fill:#8ca800;}</style><clipPath id="clip-path"><polygon class="cls-1" points="59.08 92.2 0 58.1 59.08 23.99 118.15 58.1 59.08 92.2"/></clipPath><clipPath id="clip-path-2"><polygon class="cls-2" points="56.63 19.93 56.63 39.61 70.74 47.76 70.74 39.26 56.63 19.93"/></clipPath><clipPath id="clip-path-3"><polygon class="cls-1" points="56.63 19.93 56.63 39.61 70.74 47.76 70.74 39.26 56.63 19.93"/></clipPath><clipPath id="clip-path-4"><polygon class="cls-2" points="47.49 21.09 47.48 40.77 33.37 32.62 33.37 24.12 47.49 21.09"/></clipPath><clipPath id="clip-path-5"><polygon class="cls-1" points="47.49 21.09 47.48 40.77 33.37 32.62 33.37 24.12 47.49 21.09"/></clipPath><clipPath id="clip-path-6"><polygon class="cls-1" points="47.55 43.1 33.54 35.02 33.54 45.02 47.55 53.1 47.55 43.1"/></clipPath><clipPath id="clip-path-7"><polygon class="cls-1" points="84.92 73.31 84.92 68.9 81.61 66.98 62.51 78 65.83 79.92 65.83 84.33 84.92 73.31"/></clipPath></defs><g class="cls-3"><g id="Capa_2" data-name="Capa 2"><g id="Ñëîé_2" data-name="Ñëîé 2"><polygon class="cls-4" points="59.08 94.64 0 60.53 59.08 26.42 118.15 60.53 59.08 94.64"/><polygon class="cls-5" points="59.08 92.2 0 58.1 59.08 23.99 118.15 58.1 59.08 92.2"/><polygon class="cls-6" points="114.14 58.1 59.08 89.89 4.01 58.1 59.08 26.3 114.14 58.1"/><polygon class="cls-7" points="0 58.1 0 60.53 59.08 94.64 59.08 92.2 0 58.1"/><polygon class="cls-8" points="118.15 58.1 118.15 60.53 59.08 94.64 59.08 92.2 118.15 58.1"/><g class="cls-9"><polygon class="cls-10" points="123.98 58.61 114.17 38 78.75 31.76 67.02 75.92 75.61 75.92 65.83 84.33 70.16 84.33 84.53 75.92 90.75 75.92 123.98 58.61"/></g><polygon class="cls-5" points="32.64 70.42 9.62 57.11 12.54 55.42 35.56 68.74 32.64 70.42"/><polygon class="cls-5" points="12.44 58.69 35.46 45.37 32.54 43.68 9.52 57 12.44 58.69"/><polygon class="cls-11" points="29.86 54.47 62.56 36.58 96.41 58.88 67.02 75.92 29.86 54.47"/><polygon class="cls-12" points="29.86 51.13 62.56 33.25 96.41 55.55 67.02 72.59 29.86 51.13"/><polygon class="cls-13" points="32.17 51.16 67.02 71.28 94.26 55.48 62.51 34.57 32.17 51.16"/><path class="cls-14" d="M76.83,0,59.41,3.78V35.36L94.26,55.48V23.91Zm1.31,3.1L92.25,22.43V35.2L78.14,27.05ZM92.7,52.56,78.21,44.19V28.83L92.7,37.2Z"/><polygon class="cls-13" points="76.83 0 56.07 4.5 56.07 5.82 76.83 1.31 97.53 29.66 97.53 28.35 76.83 0"/><polygon class="cls-15" points="65.51 68.38 70.84 65.18 54.32 53.15 50.71 60.06 65.51 68.38"/><polygon class="cls-16" points="50.97 59.99 56.35 56.82 57.34 44.14 49.6 43.15 50.97 59.99"/><polygon class="cls-17" points="70.84 49.83 56.35 41.46 56.35 56.82 70.84 65.18 70.84 49.83"/><polygon class="cls-13" points="66.42 62.63 60.77 59.37 60.77 48.06 66.42 51.32 66.42 62.63"/><polygon class="cls-18" points="67.3 51.91 59.84 47.6 59.84 46.91 67.3 51.21 67.3 51.91"/><polygon class="cls-19" points="60.78 59.45 60.26 59.16 60.26 46.55 60.78 46.85 60.78 59.45"/><polygon class="cls-18" points="66.92 62.96 66.41 62.66 66.41 50.06 66.92 50.36 66.92 62.96"/><polygon class="cls-15" points="65.02 50.99 71.15 48.48 61.53 38.38 54.12 36.77 52.28 39.66 50.55 43.26 65.02 50.99"/><polygon class="cls-16" points="50.91 42.86 56.21 39.85 56.21 18.79 50.15 17.47 50.91 42.86"/><polygon class="cls-13" points="71.15 48.48 71.15 39.25 56.21 18.79 56.21 39.85 71.15 48.48"/><polygon class="cls-2" points="56.63 19.93 56.63 39.61 70.74 47.76 70.74 39.26 56.63 19.93"/><g class="cls-20"><polygon class="cls-21" points="66.43 24.73 52.61 39.08 54.52 41.49 71.84 24.82 66.43 24.73"/><polygon class="cls-21" points="55.55 43.51 73.44 25.86 73.85 26.34 55.44 45.84 55.55 43.51"/></g><g class="cls-22"><polygon class="cls-13" points="56.6 23.85 61.68 26.79 61.68 23.12 61.99 23.3 61.99 31.07 66.84 33.87 66.84 26.9 67.15 27.08 67.15 36.85 71.09 39.12 71.09 39.42 67.15 37.14 67.15 47.62 66.84 47.44 66.84 34.17 61.99 31.37 61.99 43.84 61.68 43.66 61.68 27.08 56.6 24.15 56.6 23.85"/><polygon class="cls-13" points="56.42 33.42 61.89 36.58 61.89 36.13 56.42 32.98 56.42 33.42"/></g><path class="cls-13" d="M51.62,42.7,55,41.42a2.19,2.19,0,0,1-.26-.41L51.4,42.28A2.41,2.41,0,0,1,51.62,42.7Z"/><path class="cls-23" d="M62,45.08l-3.9-2.26-2.91-1.67-3.91-2.26v3.77l3.38,2,3.91,2.26,2.91,1.67,3.91,2.26V47ZM51.68,42.44V39.67l3,1.7v2.77ZM58,46.11l-2.86-1.66V41.68L58,43.33Zm.52.29V43.63l2.91,1.67v2.78ZM64.84,50,62,48.38V45.61l2.87,1.66Z"/><path class="cls-24" d="M49.6,15.8,32.17,19.58V51.16L67,71.28V39.7Zm1.3,3.09L65,38.22V51L50.9,42.85ZM65.46,68.35,51,60V44.63L65.46,53Z"/><polygon class="cls-25" points="67.02 71.28 94.26 55.48 94.25 25.2 67.02 40.98 67.02 71.28"/><polygon class="cls-26" points="49.6 15.8 28.84 20.3 28.84 21.61 49.6 17.11 70.3 45.46 70.3 44.15 49.6 15.8"/><polygon class="cls-13" points="50.55 20.18 51.46 18.89 51.15 18.5 50.13 19.94 49.16 19.39 48.15 16.77 47.84 16.8 48.75 19.15 45.03 17 45.03 17.6 53.98 22.76 53.98 22.17 50.55 20.18"/><polygon class="cls-13" points="32.96 32.86 32.96 23.63 47.9 20.42 47.9 41.49 32.96 32.86"/><polygon class="cls-2" points="47.49 21.09 47.48 40.77 33.37 32.62 33.37 24.12 47.49 21.09"/><g class="cls-27"><polygon class="cls-21" points="44.08 18.27 30.26 32.61 32.17 35.02 49.49 18.36 44.08 18.27"/><polygon class="cls-21" points="33.2 37.05 51.09 19.4 51.5 19.87 33.1 39.37 33.2 37.05"/></g><g class="cls-28"><polygon class="cls-13" points="48.16 25.41 43.08 22.48 43.08 18.82 42.77 18.64 42.77 26.41 37.93 23.61 37.93 16.65 37.62 16.47 37.62 26.23 33.67 23.96 33.29 24.03 37.62 26.53 37.62 37.01 37.93 37.19 37.93 23.91 42.77 26.71 42.77 39.18 43.08 39.36 43.08 22.78 48.16 25.71 48.16 25.41"/><polygon class="cls-13" points="47.69 34.82 42.88 32.04 42.88 31.59 47.69 34.37 47.69 34.82"/></g><polygon class="cls-13" points="33.13 45.26 33.13 34.3 47.96 42.86 47.96 53.81 33.13 45.26"/><polygon class="cls-2" points="47.55 43.1 33.54 35.02 33.54 45.02 47.55 53.1 47.55 43.1"/><g class="cls-29"><polygon class="cls-21" points="45.47 31.81 31.65 46.16 33.56 48.57 50.88 31.9 45.47 31.81"/><polygon class="cls-21" points="37.84 49.49 49.29 37.41 49.8 38 38.2 51.19 37.84 49.49"/></g><polygon class="cls-13" points="37.91 47.92 37.65 47.77 37.65 37.3 37.91 37.45 37.91 47.92"/><polygon class="cls-13" points="43.14 50.85 42.88 50.7 42.88 40.23 43.14 40.38 43.14 50.85"/><polygon class="cls-13" points="88.65 49.37 88.65 38.42 73.83 46.98 73.83 57.93 88.65 49.37"/><polygon class="cls-30" points="74.24 47.22 88.24 39.13 88.24 49.13 74.24 57.22 74.24 47.22"/><polygon class="cls-13" points="83.88 52.04 84.14 51.89 84.14 41.42 83.88 41.57 83.88 52.04"/><polygon class="cls-13" points="78.64 54.97 78.9 54.82 78.9 44.35 78.64 44.5 78.64 54.97"/><path class="cls-13" d="M55.43,62.3a.5.5,0,0,1,.1-.14s-3.84-6-3.84-6l-.25-.11a.4.4,0,0,1-.21-.07l-.1-.06,4.23,6.51Z"/><path class="cls-13" d="M51.42,60l4.14-1.58a2.6,2.6,0,0,1-.31-.5l-4.09,1.56A2.11,2.11,0,0,1,51.42,60Z"/><path class="cls-31" d="M51,55.34V60l4.81,2.78V58.12Zm4.18,6.48-3.65-2.1V56.31l3.65,2.1Z"/><path class="cls-13" d="M65.16,67.91l.1-.14s-3.85-6-3.85-6l-.24-.11A.52.52,0,0,1,61,61.6l-.11-.06L65.09,68Z"/><path class="cls-13" d="M61.15,65.66l4.14-1.59a2.84,2.84,0,0,1-.32-.5l-4.08,1.57A2.53,2.53,0,0,1,61.15,65.66Z"/><path class="cls-31" d="M60.7,61V65.6l4.81,2.78V63.74Zm4.17,6.48-3.64-2.1V61.92L64.87,64Z"/><path class="cls-13" d="M54.53,44.73a.44.44,0,0,1,.08-.11s-3.12-4.87-3.12-4.87l-.2-.09a.32.32,0,0,1-.17-.06L51,39.55l3.43,5.29Z"/><path class="cls-13" d="M57.91,46.69l.09-.11s-3.12-4.87-3.12-4.87l-.21-.09a.38.38,0,0,1-.17-.06l-.08-.05,3.44,5.28A.93.93,0,0,0,57.91,46.69Z"/><path class="cls-13" d="M54.66,44.86,58,43.57a3.34,3.34,0,0,1-.25-.4l-3.32,1.27A1.65,1.65,0,0,1,54.66,44.86Z"/><path class="cls-13" d="M61.35,48.66a.44.44,0,0,1,.08-.11s-3.12-4.87-3.12-4.87l-.2-.09a.32.32,0,0,1-.17-.06l-.09,0,3.44,5.28Z"/><path class="cls-13" d="M58.09,46.83l3.36-1.28a2.8,2.8,0,0,1-.25-.41l-3.32,1.27A1.83,1.83,0,0,1,58.09,46.83Z"/><path class="cls-13" d="M64.73,50.62a.44.44,0,0,1,.08-.11s-3.12-4.87-3.12-4.87l-.2-.09a.32.32,0,0,1-.17-.06l-.08-.05,3.43,5.29Z"/><path class="cls-13" d="M61.48,48.79l3.36-1.29a2.48,2.48,0,0,1-.26-.4l-3.32,1.27A2.1,2.1,0,0,1,61.48,48.79Z"/><path class="cls-31" d="M61.63,45.28,57.73,43l-2.91-1.67-3.91-2.26v3.77l3.38,2,3.91,2.26,2.91,1.67L65,51V47.23ZM51.34,42.64V39.87l2.95,1.7v2.77Zm6.34,3.66-2.86-1.65V41.88l2.86,1.65Zm.52.29V43.82l2.91,1.68v2.77Zm6.3,3.65-2.87-1.66V45.81l2.87,1.65Z"/><polygon class="cls-32" points="70.3 44.15 97.53 28.35 76.83 0 49.6 15.8 70.3 44.15"/><polygon class="cls-33" points="70.3 45.46 97.53 29.66 97.53 28.35 70.3 44.15 70.3 45.46"/><polygon class="cls-34" points="56.07 4.5 76.83 0 49.6 15.8 28.84 20.3 56.07 4.5"/><polygon class="cls-35" points="29.86 51.13 29.86 54.47 67.02 75.92 67.02 72.59 29.86 51.13"/><polygon class="cls-11" points="96.41 58.88 96.41 55.55 67.02 72.59 67.02 75.92 96.41 58.88"/><path class="cls-36" d="M63.4,74.56l-.38.38.35.06c-4.21,2.06-10.52,1.94-14.49-.35-4.17-2.41-4.19-6.31-.05-8.73l-1.14-.66c-4.77,2.79-4.75,7.28.05,10s12.57,2.78,17.4,0v-.86Z"/><path class="cls-36" d="M64,73l-1.07.18-.07,0-.12.07h-.08A14.23,14.23,0,0,1,50,73.13c-3.54-2-3.56-5.35-.05-7.41l-1.14-.66c-4.14,2.42-4.12,6.32.05,8.73a16.75,16.75,0,0,0,15.11,0Z"/><path class="cls-37" d="M62.85,71.44l-1.08,0s-.14.27-.2.4a11.72,11.72,0,0,1-10.41-.1c-2.91-1.68-2.93-4.4,0-6.09L50,64.94c-3.51,2.06-3.49,5.37.05,7.41a14.21,14.21,0,0,0,12.83,0Z"/><path class="cls-37" d="M61.71,69.62l-1.36.11-.19.17-9-5.22c-2.88,1.69-2.86,4.41,0,6.09a11.7,11.7,0,0,0,10.55,0Z"/><path class="cls-38" d="M64,73.81a16.75,16.75,0,0,1-15.11,0c-4.17-2.41-4.19-6.31-.05-8.72l-1.14-.66c-4.77,2.78-4.75,7.27.05,10s12.57,2.78,17.4,0Z"/><path class="cls-39" d="M50,72.34c-3.54-2-3.56-5.36-.05-7.41l-1.14-.66c-4.14,2.42-4.12,6.32.05,8.73A16.75,16.75,0,0,0,64,73l-1.14-.65A14.28,14.28,0,0,1,50,72.34Z"/><path class="cls-40" d="M50,71.42a14.24,14.24,0,0,0,12.83,0l-1.14-.65a11.73,11.73,0,0,1-10.55,0c-2.91-1.68-2.93-4.4,0-6.09L50,64C46.46,66.06,46.48,69.37,50,71.42Z"/><path class="cls-41" d="M51.16,69.59a11.7,11.7,0,0,0,10.55,0L51.11,63.5C48.23,65.19,48.25,67.91,51.16,69.59Z"/><polygon class="cls-42" points="81.61 71.39 62.51 82.41 62.51 78 81.61 66.98 81.61 71.39"/><polygon class="cls-43" points="84.92 73.31 65.83 84.33 65.83 79.92 84.92 68.9 84.92 73.31"/><polygon class="cls-44" points="62.51 78 65.83 79.92 65.83 84.33 62.51 82.41 62.51 78"/><polygon class="cls-45" points="84.92 68.9 81.61 66.98 62.51 78 65.83 79.92 77.2 73.36 84.92 68.9"/><g class="cls-46"><polygon class="cls-47" points="73.11 71.83 79.71 71.82 80.9 87.82 133.76 52.49 123.95 31.88 88.53 25.64 73.11 71.83"/></g><path class="cls-48" d="M39.11,59.12l-4.84-.51-1.63.06a3.81,3.81,0,0,0-2.29.33l-5.64-.82-.38.41,4.87.71c-.31.73-.26.78-.23.82s.06.08,1.22.36v.26l4.21,1.35,2.25.22,1.87-.79,1.06-.86.16-1ZM32,58.81l-.73.32-.51-.08A4.16,4.16,0,0,1,32,58.81ZM29.15,60a5.63,5.63,0,0,1,.26-.67l1.25.19-.49.46v.3C29.71,60.16,29.29,60.05,29.15,60Z"/><ellipse class="cls-49" cx="24.65" cy="58.13" rx="2.51" ry="1.45"/><ellipse class="cls-50" cx="24.65" cy="57.27" rx="2.51" ry="1.45"/><ellipse class="cls-51" cx="24.65" cy="57.27" rx="1.96" ry="1.13"/><path class="cls-52" d="M23.35,57.05a3.09,3.09,0,0,1,2.78,0,1.39,1.39,0,0,1,.45.41c.1-.35-.08-.72-.55-1a3,3,0,0,0-2.77,0c-.56.32-.71.79-.45,1.19A1.18,1.18,0,0,1,23.35,57.05Z"/><path class="cls-53" d="M24.53,53.67a4.91,4.91,0,0,1-1.05-.24c-.63-.21-.72-.38-.72-.51s0-2.17,0-2.26h.34c0,.67,0,2,0,2.21a1.72,1.72,0,0,0,.56.25,4.35,4.35,0,0,0,.9.2Z"/><path class="cls-53" d="M24.92,52.75l-.07-.21c.24-.08.88-.33,1-.6a4.08,4.08,0,0,0,.18-1.32h.23A4.22,4.22,0,0,1,26.07,52a1.37,1.37,0,0,1-.67.52A3.25,3.25,0,0,1,24.92,52.75Zm0-.11,0-.1Z"/><rect class="cls-53" x="24.32" y="50.4" width="0.71" height="6.99"/><polygon class="cls-54" points="20.47 43 20.6 46.85 21.26 49.12 21.73 50.72 22.99 51.53 25.43 51.66 27.61 50.74 28.32 47.92 28.47 43.88 20.47 43"/><polygon class="cls-55" points="20.47 43 21.37 45.14 24.9 45.88 28.47 43.88 27.97 42.12 25.38 41.24 23.51 41.23 20.47 43"/><path class="cls-43" d="M24.9,45.88,25.23,49l.2,2.69a17.91,17.91,0,0,0,2.18-.92c0-.13.7-2.82.7-2.82l.16-4Z"/><polygon class="cls-56" points="21.37 45.14 20.66 46.99 21.73 50.72 22.99 51.53 21.37 45.14"/><polygon class="cls-54" points="21.37 45.14 24.9 45.88 25.43 51.66 22.99 51.53 21.37 45.14"/><path class="cls-53" d="M25.06,57.41c0,.09-.17.16-.39.16s-.39-.07-.39-.16.17-.17.39-.17S25.06,57.31,25.06,57.41Z"/></g></g></g></svg>