<svg xmlns="http://www.w3.org/2000/svg" viewBox="0 0 767.63 767.17"><defs><style>.cls-1{fill:#ff5f4a;}.cls-2{fill:#ce4949;}.cls-3{fill:#ffc7a1;}.cls-4{fill:#f2f1eb;}.cls-5{fill:#54678c;}.cls-6{fill:#b1d5de;}.cls-7{fill:#529ae3;}.cls-8{fill:#fff;}.cls-9{fill:#c66c67;}.cls-10{fill:#ffdcc5;}.cls-11{fill:none;}.cls-12{fill:#4f7f59;}.cls-13{fill:#cfcbbe;}.cls-14{fill:#7f635d;}.cls-15{fill:#5cbec6;}.cls-16{fill:#afada5;}.cls-17{fill:#dbd9d1;}.cls-18{fill:#5b4541;}.cls-19{fill:#75a378;}</style></defs><g id="Capa_2" data-name="Capa 2"><g id="Capa_1-2" data-name="Capa 1"><path class="cls-1" d="M47.23,25.53,0,197,122.09,299.45s1.52-26.89,10.16-41.09c10.74-17.67,54.94-66.69,95.36-52.68L54.26,0"/><path class="cls-2" d="M118.27,294s1.13,6.62,14.55,11.41c24.69,8.81,84.79-50,94.09-70.52s.7-29.16.7-29.16-17.89-24.68-67,5.11S118.27,294,118.27,294Z"/><path class="cls-3" d="M398.13,303.87s26.09-18,22.73-26.93-6.54-6.51-26.94-7.59-39.8-21.14-57.19-28-29.28,3.86-38.91,6.13c-1.11.26-2.46.65-4,1.12C337.52,265.22,398.13,303.87,398.13,303.87Z"/><path class="cls-4" d="M150,305.21s5.77,13.93,28.25,4.84c17.8-7.19,49.06-44.52,60.52-63.53,3.06-5.07,2.68-12.1-2-15-22.52-13.71-64,12.65-74.79,32.81A110.72,110.72,0,0,0,150,305.21Z"/><rect class="cls-5" x="428.82" y="242.45" width="12.65" height="57.13" transform="translate(516.17 777.22) rotate(-131.01)"/><path class="cls-5" d="M455.53,113.83a100.35,100.35,0,1,1-9.88,141.57,100.46,100.46,0,0,1,9.88-141.57"/><path class="cls-5" d="M463.67,123.2c-36.59,31.82-39.37,86.64-7.55,123.23s86.36,41.29,123,9.48A87.93,87.93,0,0,0,463.67,123.2Z"/><path class="cls-6" d="M464.74,120.53c-36.59,31.82-36.44,90.43-5.79,128,32.9,40.31,87.23,38,123.82,6.14s37.84-88.88,6-125.47A88,88,0,0,0,464.74,120.53Z"/><path class="cls-7" d="M464.74,120.53a100.35,100.35,0,1,1-9.88,141.57A100.47,100.47,0,0,1,464.74,120.53Zm8.15,9.37a87.93,87.93,0,1,0,124.05,8.66A88,88,0,0,0,472.89,129.9Z"/><path class="cls-1" d="M424.39,281.23h0a13.73,13.73,0,0,1-1.65,19.29L381.6,335.15a13.73,13.73,0,0,1-19.29-1.66h0A13.73,13.73,0,0,1,364,314.2l41.13-34.63A13.73,13.73,0,0,1,424.39,281.23Z"/><path class="cls-8" d="M517.67,131.22a44.45,44.45,0,0,0-23.25,5.7c-6.87,3.86-12.64,9.24-18,14.92-4.24,4.47,3.22,10.43,7.42,6,8.63-9.09,19.22-17.47,32.42-17.18,2.58.05,5-1.22,5.44-4C522,134.36,520.26,131.28,517.67,131.22Z"/><path class="cls-8" d="M538.18,128.19a4.61,4.61,0,0,0-1.75.56,4.9,4.9,0,0,0-2.18.87A3.7,3.7,0,0,0,533,131a3.65,3.65,0,0,0-.68,1.76,4.8,4.8,0,0,0,.88,3.54,4.89,4.89,0,0,0,3.12,1.89,6.84,6.84,0,0,0,3.33-.33,5.05,5.05,0,0,0,1.88-1.08,3.61,3.61,0,0,0,1.21-1.37,3.56,3.56,0,0,0,.68-1.76,3.64,3.64,0,0,0-.13-1.88,3.49,3.49,0,0,0-.75-1.66,4.78,4.78,0,0,0-3.12-1.89Z"/><path class="cls-3" d="M423.41,327.85c.26-4-3.27-9.36-7.64-14.43A86.1,86.1,0,0,0,390,293.22c-19.75-10.19-63.4-32.15-96.19-44.6-11.93,3.66-35.17,12.59-42.33,9-8.09-4.09-38.42-29.29-42.48-32.92S144.06,280.3,147.27,285s57,48.09,69.65,61.31,35.38,30.29,44.32,34.86,20.25,15,25,15,14.92,3.19,22.61,2.77,19.6-7.95,19.6-7.95,11.86,2.61,20.25-3.07,12.71-16.57,12.71-16.57,14,6.5,25,.08,10.3-19.85,10.3-19.85,6.16-2.48,9.57-3.72S422.74,337.86,423.41,327.85Z"/><path class="cls-9" d="M361.4,338.66a.66.66,0,0,1-.14-1.3s3.63-.85,8-6.18a42.93,42.93,0,0,0,6.79-12.82.65.65,0,1,1,1.25.38,43.24,43.24,0,0,1-7,13.27c-4.74,5.73-8.61,6.6-8.78,6.63Z"/><path class="cls-9" d="M341,361a.66.66,0,0,1-.19-1.29s2-.69,6.93-5,6.18-11.65,6.2-11.73a.64.64,0,0,1,.75-.54.67.67,0,0,1,.54.76c-.05.32-1.35,7.89-6.63,12.5s-7.32,5.22-7.41,5.25Z"/><path class="cls-9" d="M316.4,380a.64.64,0,0,1-.57-.34.66.66,0,0,1,.25-.89,25.24,25.24,0,0,0,9.43-9.08.65.65,0,0,1,.88-.27.66.66,0,0,1,.27.89,26.14,26.14,0,0,1-9.94,9.61A.63.63,0,0,1,316.4,380Z"/><path class="cls-8" d="M236.77,231.56s-36.24,6.76-63,37.2C153.89,291.32,150,305.21,150,305.21l-47.54-49s49.93-70.75,91.05-68.83Z"/><path class="cls-10" d="M395.15,269.41s5.17,4.74,10.5,4.31,9.61-3.24,11.39-2.4c0,0-1.16-1.83-6-2.35S400.47,269.13,395.15,269.41Z"/><path class="cls-9" d="M391.63,294.73a.64.64,0,0,1-.35-.1c-.41-.25-41.16-25.07-56.5-29.93-15.14-4.8-24.31.23-24.39.28a.68.68,0,0,1-.9-.25.67.67,0,0,1,.25-.9c.39-.21,9.76-5.35,25.44-.38,15.49,4.91,56.37,29.81,56.79,30.06a.66.66,0,0,1,.22.9A.65.65,0,0,1,391.63,294.73Z"/><path class="cls-9" d="M354.79,273.75a.66.66,0,0,1-.44-.17c-15.66-14.6-31.14-15.15-31.3-15.16a.65.65,0,0,1-.63-.67.68.68,0,0,1,.67-.64c.16,0,16.11.56,32.15,15.51a.65.65,0,0,1-.45,1.13Z"/><polyline class="cls-11" points="641.4 50.35 641.4 524.92 105.17 524.92 105.17 50.35"/><path class="cls-12" d="M258.91,690.3s-8-14.41-23.23-5.6c-21,12.14-16.34,37.1-16.34,37.1s-17,12.81-21.56,27-3.2,18.41-3.2,18.41h83.81S279.46,712.19,258.91,690.3Z"/><rect class="cls-13" x="588.82" y="524.92" width="135.33" height="242.25"/><polygon class="cls-2" points="548.47 410.2 415.54 410.2 602.05 531.88 734.98 531.88 744.67 513.46 548.47 410.2"/><polygon class="cls-4" points="588.82 767.17 254.1 767.17 254.1 506.93 421.46 418.84 588.82 506.93 588.82 767.17"/><polygon class="cls-1" points="611.75 513.46 415.54 410.2 219.34 513.46 229.03 531.88 415.54 433.72 602.05 531.88 611.75 513.46"/><rect class="cls-14" x="313.05" y="559.02" width="102.49" height="208.15"/><rect class="cls-15" x="460.07" y="559.02" width="86.3" height="113.66"/><polygon class="cls-7" points="466.48 564.94 546.38 564.94 546.38 559.02 460.07 559.02 460.07 672.68 466.48 672.68 466.48 564.94"/><rect class="cls-4" x="500.11" y="559.02" width="6.23" height="113.66"/><rect class="cls-4" x="500.11" y="572.7" width="6.23" height="86.3" transform="translate(1119.08 112.63) rotate(90)"/><rect class="cls-7" x="607.49" y="559.02" width="33.91" height="113.66"/><rect class="cls-16" x="623.22" y="559.02" width="2.45" height="113.66"/><rect class="cls-16" x="621.33" y="598.9" width="6.23" height="33.91" transform="translate(1240.3 -8.59) rotate(90)"/><rect class="cls-7" x="673.15" y="559.02" width="33.91" height="113.66"/><rect class="cls-16" x="688.88" y="559.02" width="2.45" height="113.66"/><rect class="cls-16" x="686.99" y="598.9" width="6.23" height="33.91" transform="translate(1305.96 -74.25) rotate(90)"/><rect class="cls-17" x="313.05" y="559.02" width="11.92" height="208.15"/><rect class="cls-18" x="324.97" y="559.02" width="8.68" height="183.73"/><rect class="cls-18" x="324.97" y="559.02" width="90.57" height="6.56"/><rect class="cls-8" x="290.14" y="742.75" width="125.41" height="24.42"/><polygon class="cls-17" points="254.1 528.95 426.87 439.68 415.54 433.72 254.1 518.69 254.1 528.95"/><rect class="cls-4" x="404.64" y="625.17" width="5.54" height="47.51"/><polygon class="cls-16" points="602.05 531.88 724.15 544.3 724.15 531.88 602.05 531.88"/><polygon class="cls-17" points="290.14 742.75 282.93 767.17 290.14 767.17 290.14 742.75"/><rect class="cls-17" x="375.02" y="742.75" width="40.53" height="24.42"/><polygon class="cls-4" points="543.63 442.57 584.55 464.1 584.55 372.85 543.63 372.85 543.63 442.57"/><rect class="cls-17" x="584.55" y="372.85" width="30.96" height="91.25"/><rect class="cls-8" x="272.12" y="546.97" width="143.42" height="12.06"/><rect class="cls-17" x="371.81" y="546.97" width="43.73" height="12.06"/><path class="cls-12" d="M675.9,731.74s4.81-19,19.22-19.62,18.22,2.6,18.22,2.6,1.8-24,21-23.42S754,739.75,754,739.75a7.44,7.44,0,0,1,10,0c5.4,4.4,3.2,27.42,3.2,27.42H683.11S667.09,750,675.9,731.74Z"/><path class="cls-19" d="M588.82,767.17s-9.61-22.15-2.67-36,21.34-13.88,21.34-13.88-3.78-16.55,15.73-22.15,26.19,22.42,26.19,22.42,8-6.14,20.29,0,10.41,32,10.41,32,5.63-2.94,11.22,5.07,5.59,12.54,5.59,12.54Z"/><rect class="cls-17" x="407.29" y="501.53" width="24.63" height="13.03" rx="1.13"/><rect class="cls-17" x="433.6" y="486.22" width="24.63" height="13.03" rx="1.13"/><rect class="cls-17" x="435.45" y="502.48" width="24.63" height="13.03" rx="1.13"/><rect class="cls-17" x="340.48" y="476.89" width="24.63" height="13.03" rx="1.13"/><rect class="cls-17" x="297.43" y="528.95" width="24.63" height="13.03" rx="1.13"/><rect class="cls-17" x="275.19" y="586.49" width="24.63" height="13.03" rx="1.13"/><rect class="cls-17" x="294.38" y="602.82" width="24.63" height="13.03" rx="1.13"/><rect class="cls-17" x="439.8" y="694.37" width="24.63" height="13.03" rx="1.13"/><rect class="cls-17" x="484.28" y="751.05" width="24.63" height="13.03" rx="1.13"/><rect class="cls-17" x="511.07" y="736.23" width="24.63" height="13.03" rx="1.13"/><path class="cls-17" d="M588.82,694.45a1.27,1.27,0,0,0-.44-.08H566a1.12,1.12,0,0,0-1.12,1.12v10.78A1.13,1.13,0,0,0,566,707.4h22.37a1.08,1.08,0,0,0,.44-.09Z"/><rect class="cls-17" x="539.46" y="531.57" width="24.63" height="13.03" rx="1.13"/></g></g></svg>