<svg xmlns="http://www.w3.org/2000/svg" viewBox="0 0 311.8 213.73"><defs><style>.cls-1{fill:#f1d10c;}.cls-2{fill:#f52a7b;}.cls-3{fill:#561f7d;}.cls-4{fill:#ff7a00;}.cls-5{fill:#07d2f0;}.cls-6{font-size:60px;fill:#f1f2f2;font-family:BerlinSansFBDemi-Bold, Berlin Sans FB Demi;font-weight:700;}</style></defs><g id="Capa_2" data-name="Capa 2"><g id="Layer_1" data-name="Layer 1"><rect class="cls-1" x="20.12" y="18.36" width="264.05" height="155.99" rx="14.33"/><path class="cls-2" d="M279.28,34.93,107.8,11.61C81.49,25.58,46.23,44.31,24.4,56L12.75,141.64A14.31,14.31,0,0,0,25,157.77L258.26,189.5a14.34,14.34,0,0,0,16.13-12.27L291.55,51.06A14.33,14.33,0,0,0,279.28,34.93Z"/><rect class="cls-2" x="30.08" y="5.49" width="0.05" height="0.05" transform="translate(4.92 22.9) rotate(-45)"/><path class="cls-2" d="M36.1,6.43a.92.92,0,1,0-.92-.92A.91.91,0,0,0,36.1,6.43Z"/><path class="cls-2" d="M42.1,7a1.5,1.5,0,1,0-1.5-1.5A1.5,1.5,0,0,0,42.1,7Z"/><path class="cls-2" d="M48.1,7a1.47,1.47,0,1,0-1.46-1.47A1.46,1.46,0,0,0,48.1,7Z"/><path class="cls-2" d="M54.1,6.78a1.27,1.27,0,1,0-1.26-1.27A1.26,1.26,0,0,0,54.1,6.78Z"/><path class="cls-2" d="M60.1,6.54a1,1,0,1,0-1-1A1,1,0,0,0,60.1,6.54Z"/><path class="cls-2" d="M66.1,6.31a.8.8,0,1,0-.8-.8A.8.8,0,0,0,66.1,6.31Z"/><path class="cls-2" d="M72.1,6.08a.58.58,0,0,0,.57-.57.57.57,0,0,0-1.14,0A.58.58,0,0,0,72.1,6.08Z"/><path class="cls-2" d="M78.1,5.85a.34.34,0,1,0-.33-.34A.34.34,0,0,0,78.1,5.85Z"/><path class="cls-2" d="M84.1,5.68a.18.18,0,0,0,.17-.17.17.17,0,0,0-.34,0A.18.18,0,0,0,84.1,5.68Z"/><rect class="cls-2" x="90.08" y="5.49" width="0.05" height="0.05" transform="translate(22.49 65.32) rotate(-45)"/><path class="cls-2" d="M30.1,12.14a.63.63,0,1,0-.63-.63A.63.63,0,0,0,30.1,12.14Z"/><path class="cls-2" d="M36.1,13.19a1.68,1.68,0,1,0-1.68-1.68A1.68,1.68,0,0,0,36.1,13.19Z"/><path class="cls-2" d="M42.1,13.19a1.68,1.68,0,1,0-1.68-1.68A1.68,1.68,0,0,0,42.1,13.19Z"/><path class="cls-2" d="M48.1,13.19a1.68,1.68,0,1,0-1.68-1.68A1.68,1.68,0,0,0,48.1,13.19Z"/><path class="cls-2" d="M54.1,13.19a1.68,1.68,0,1,0-1.68-1.68A1.68,1.68,0,0,0,54.1,13.19Z"/><path class="cls-2" d="M60.1,13.19a1.68,1.68,0,1,0-1.68-1.68A1.68,1.68,0,0,0,60.1,13.19Z"/><path class="cls-2" d="M66.1,13.19a1.68,1.68,0,1,0-1.68-1.68A1.68,1.68,0,0,0,66.1,13.19Z"/><path class="cls-2" d="M72.1,13.19a1.68,1.68,0,1,0-1.68-1.68A1.68,1.68,0,0,0,72.1,13.19Z"/><path class="cls-2" d="M78.1,13.19a1.68,1.68,0,1,0-1.68-1.68A1.68,1.68,0,0,0,78.1,13.19Z"/><path class="cls-2" d="M84.1,13.14a1.63,1.63,0,1,0-1.63-1.63A1.63,1.63,0,0,0,84.1,13.14Z"/><path class="cls-2" d="M90.1,13a1.53,1.53,0,1,0-1.53-1.53A1.52,1.52,0,0,0,90.1,13Z"/><path class="cls-2" d="M96.1,12.84a1.33,1.33,0,1,0-1.33-1.33A1.33,1.33,0,0,0,96.1,12.84Z"/><path class="cls-2" d="M102.1,12.54a1,1,0,1,0-1-1A1,1,0,0,0,102.1,12.54Z"/><path class="cls-2" d="M108.1,11.73a.22.22,0,0,0,.22-.22.22.22,0,0,0-.44,0A.22.22,0,0,0,108.1,11.73Z"/><path class="cls-2" d="M30.1,18.58A1.07,1.07,0,1,0,29,17.51,1.06,1.06,0,0,0,30.1,18.58Z"/><path class="cls-2" d="M36.1,19.19a1.68,1.68,0,1,0-1.68-1.68A1.68,1.68,0,0,0,36.1,19.19Z"/><path class="cls-2" d="M42.1,19.19a1.68,1.68,0,1,0-1.68-1.68A1.68,1.68,0,0,0,42.1,19.19Z"/><path class="cls-2" d="M48.1,19.19a1.68,1.68,0,1,0-1.68-1.68A1.68,1.68,0,0,0,48.1,19.19Z"/><path class="cls-2" d="M54.1,19.19a1.68,1.68,0,1,0-1.68-1.68A1.68,1.68,0,0,0,54.1,19.19Z"/><path class="cls-2" d="M60.1,19.19a1.68,1.68,0,1,0-1.68-1.68A1.68,1.68,0,0,0,60.1,19.19Z"/><path class="cls-2" d="M66.1,19.19a1.68,1.68,0,1,0-1.68-1.68A1.68,1.68,0,0,0,66.1,19.19Z"/><path class="cls-2" d="M72.1,19.19a1.68,1.68,0,1,0-1.68-1.68A1.68,1.68,0,0,0,72.1,19.19Z"/><path class="cls-2" d="M78.1,19.19a1.68,1.68,0,1,0-1.68-1.68A1.68,1.68,0,0,0,78.1,19.19Z"/><path class="cls-2" d="M84.1,19.19a1.68,1.68,0,1,0-1.68-1.68A1.68,1.68,0,0,0,84.1,19.19Z"/><path class="cls-2" d="M90.1,19.14a1.63,1.63,0,1,0-1.63-1.63A1.63,1.63,0,0,0,90.1,19.14Z"/><path class="cls-2" d="M96.1,18.56a1.05,1.05,0,1,0-1-1A1,1,0,0,0,96.1,18.56Z"/><path class="cls-2" d="M102.1,17.73a.22.22,0,0,0,.22-.22.22.22,0,0,0-.44,0A.22.22,0,0,0,102.1,17.73Z"/><path class="cls-2" d="M30.1,24.79a1.28,1.28,0,1,0-1.28-1.28A1.28,1.28,0,0,0,30.1,24.79Z"/><path class="cls-2" d="M36.1,25.19a1.68,1.68,0,1,0-1.68-1.68A1.68,1.68,0,0,0,36.1,25.19Z"/><path class="cls-2" d="M42.1,25.19a1.68,1.68,0,1,0-1.68-1.68A1.68,1.68,0,0,0,42.1,25.19Z"/><path class="cls-2" d="M48.1,25.19a1.68,1.68,0,1,0-1.68-1.68A1.68,1.68,0,0,0,48.1,25.19Z"/><path class="cls-2" d="M54.1,25.19a1.68,1.68,0,1,0-1.68-1.68A1.68,1.68,0,0,0,54.1,25.19Z"/><path class="cls-2" d="M60.1,25.19a1.68,1.68,0,1,0-1.68-1.68A1.68,1.68,0,0,0,60.1,25.19Z"/><path class="cls-2" d="M66.1,25.19a1.68,1.68,0,1,0-1.68-1.68A1.68,1.68,0,0,0,66.1,25.19Z"/><path class="cls-2" d="M72.1,25.19a1.68,1.68,0,1,0-1.68-1.68A1.68,1.68,0,0,0,72.1,25.19Z"/><path class="cls-2" d="M78.1,25.18a1.67,1.67,0,1,0-1.66-1.67A1.66,1.66,0,0,0,78.1,25.18Z"/><path class="cls-2" d="M84.1,24.66A1.15,1.15,0,1,0,83,23.51,1.15,1.15,0,0,0,84.1,24.66Z"/><path class="cls-2" d="M90.1,23.83a.32.32,0,1,0-.32-.32A.32.32,0,0,0,90.1,23.83Z"/><path class="cls-2" d="M30.1,31a1.52,1.52,0,1,0-1.51-1.52A1.51,1.51,0,0,0,30.1,31Z"/><path class="cls-2" d="M36.1,31.19a1.68,1.68,0,1,0-1.68-1.68A1.68,1.68,0,0,0,36.1,31.19Z"/><path class="cls-2" d="M42.1,31.19a1.68,1.68,0,1,0-1.68-1.68A1.68,1.68,0,0,0,42.1,31.19Z"/><path class="cls-2" d="M48.1,31.19a1.68,1.68,0,1,0-1.68-1.68A1.68,1.68,0,0,0,48.1,31.19Z"/><path class="cls-2" d="M54.1,31.19a1.68,1.68,0,1,0-1.68-1.68A1.68,1.68,0,0,0,54.1,31.19Z"/><path class="cls-2" d="M60.1,31.19a1.68,1.68,0,1,0-1.68-1.68A1.68,1.68,0,0,0,60.1,31.19Z"/><path class="cls-2" d="M66.1,31.18a1.67,1.67,0,1,0-1.66-1.67A1.66,1.66,0,0,0,66.1,31.18Z"/><path class="cls-2" d="M72.1,30.74a1.23,1.23,0,1,0-1.23-1.23A1.23,1.23,0,0,0,72.1,30.74Z"/><path class="cls-2" d="M78.1,29.89a.38.38,0,1,0-.38-.38A.38.38,0,0,0,78.1,29.89Z"/><rect class="cls-2" x="84.09" y="29.5" width="0.02" height="0.02" transform="translate(3.76 68.11) rotate(-45)"/><polygon class="cls-2" points="24.1 35.63 24.22 35.51 24.1 35.4 23.98 35.51 24.1 35.63"/><path class="cls-2" d="M30.1,37.14a1.63,1.63,0,1,0-1.63-1.63A1.63,1.63,0,0,0,30.1,37.14Z"/><path class="cls-2" d="M36.1,37.19a1.68,1.68,0,1,0-1.68-1.68A1.68,1.68,0,0,0,36.1,37.19Z"/><path class="cls-2" d="M42.1,37.19a1.68,1.68,0,1,0-1.68-1.68A1.68,1.68,0,0,0,42.1,37.19Z"/><path class="cls-2" d="M48.1,37.19a1.68,1.68,0,1,0-1.68-1.68A1.68,1.68,0,0,0,48.1,37.19Z"/><path class="cls-2" d="M54.1,37.19a1.68,1.68,0,1,0-1.68-1.68A1.68,1.68,0,0,0,54.1,37.19Z"/><path class="cls-2" d="M60.1,36.84a1.33,1.33,0,1,0-1.33-1.33A1.33,1.33,0,0,0,60.1,36.84Z"/><path class="cls-2" d="M66.1,36a.49.49,0,1,0-.48-.49A.48.48,0,0,0,66.1,36Z"/><rect class="cls-2" x="72.09" y="35.5" width="0.02" height="0.02" transform="translate(-3.99 61.38) rotate(-45)"/><path class="cls-2" d="M24.1,41.81a.3.3,0,0,0,.3-.3.31.31,0,0,0-.3-.3.3.3,0,0,0-.3.3A.29.29,0,0,0,24.1,41.81Z"/><path class="cls-2" d="M30.1,43.18a1.67,1.67,0,1,0-1.66-1.67A1.66,1.66,0,0,0,30.1,43.18Z"/><path class="cls-2" d="M36.1,43.19a1.68,1.68,0,1,0-1.68-1.68A1.68,1.68,0,0,0,36.1,43.19Z"/><path class="cls-2" d="M42.1,43.19a1.68,1.68,0,1,0-1.68-1.68A1.68,1.68,0,0,0,42.1,43.19Z"/><path class="cls-2" d="M48.1,42.93a1.42,1.42,0,1,0-1.41-1.42A1.42,1.42,0,0,0,48.1,42.93Z"/><path class="cls-2" d="M54.1,42.08a.58.58,0,0,0,.57-.57.57.57,0,0,0-1.14,0A.58.58,0,0,0,54.1,42.08Z"/><rect class="cls-2" x="60.08" y="41.49" width="0.05" height="0.05" transform="translate(-11.75 54.66) rotate(-45)"/><path class="cls-2" d="M24.1,48a.52.52,0,1,0,0-1,.52.52,0,1,0,0,1Z"/><path class="cls-2" d="M30.1,49.19a1.68,1.68,0,1,0-1.68-1.68A1.68,1.68,0,0,0,30.1,49.19Z"/><path class="cls-2" d="M36.1,49a1.48,1.48,0,1,0-1.48-1.48A1.48,1.48,0,0,0,36.1,49Z"/><path class="cls-2" d="M42.1,48.19a.68.68,0,1,0-.68-.68A.67.67,0,0,0,42.1,48.19Z"/><rect class="cls-2" x="48.06" y="47.48" width="0.07" height="0.07" transform="translate(-19.51 47.93) rotate(-45)"/><path class="cls-2" d="M24.1,54.11a.6.6,0,1,0-.6-.6A.6.6,0,0,0,24.1,54.11Z"/><path class="cls-2" d="M30.1,54.29a.78.78,0,1,0-.78-.78A.78.78,0,0,0,30.1,54.29Z"/><polygon class="cls-2" points="36.1 53.61 36.2 53.51 36.1 53.41 36 53.51 36.1 53.61"/><rect class="cls-2" x="24.09" y="59.5" width="0.02" height="0.02" transform="translate(-35.02 34.47) rotate(-45)"/><path class="cls-3" d="M276.45,180.06l-.63,0-235.2-9.52a15.33,15.33,0,0,1-14.7-15.93L31.07,27.36A15.33,15.33,0,0,1,47,12.66l235.2,9.52a15.35,15.35,0,0,1,14.7,15.94l-5.15,127.23a15.36,15.36,0,0,1-15.31,14.71ZM46.38,14.65A13.35,13.35,0,0,0,33.07,27.44L27.92,154.67A13.33,13.33,0,0,0,40.7,168.52L275.9,178a13.33,13.33,0,0,0,13.86-12.78L294.91,38a13.35,13.35,0,0,0-12.78-13.86L46.92,14.66Z"/><path class="cls-1" d="M186.93,177.56a.57.57,0,1,0-.57-.57A.56.56,0,0,0,186.93,177.56Z"/><circle class="cls-1" cx="192.93" cy="176.99" r="0.65"/><path class="cls-1" d="M198.93,177.54a.55.55,0,1,0,0-1.09.55.55,0,1,0,0,1.09Z"/><circle class="cls-1" cx="204.93" cy="176.99" r="0.5"/><circle class="cls-1" cx="210.93" cy="176.99" r="0.4"/><path class="cls-1" d="M216.93,177.31a.32.32,0,1,0-.32-.32A.31.31,0,0,0,216.93,177.31Z"/><circle class="cls-1" cx="222.93" cy="176.99" r="0.25"/><circle class="cls-1" cx="228.93" cy="176.99" r="0.18"/><circle class="cls-1" cx="234.93" cy="176.99" r="0.17"/><rect class="cls-1" x="240.86" y="176.92" width="0.14" height="0.14" transform="translate(-54.59 222.2) rotate(-45)"/><rect class="cls-1" x="246.88" y="176.95" width="0.09" height="0.09" transform="translate(-52.83 226.44) rotate(-45)"/><circle class="cls-1" cx="186.93" cy="182.99" r="1.41"/><path class="cls-1" d="M192.93,184.66a1.67,1.67,0,1,0-1.67-1.67A1.66,1.66,0,0,0,192.93,184.66Z"/><path class="cls-1" d="M198.93,184.66a1.67,1.67,0,1,0-1.67-1.67A1.66,1.66,0,0,0,198.93,184.66Z"/><path class="cls-1" d="M204.93,184.66a1.67,1.67,0,1,0-1.67-1.67A1.66,1.66,0,0,0,204.93,184.66Z"/><path class="cls-1" d="M210.93,184.66a1.67,1.67,0,1,0-1.67-1.67A1.66,1.66,0,0,0,210.93,184.66Z"/><path class="cls-1" d="M216.93,184.66a1.67,1.67,0,1,0-1.67-1.67A1.66,1.66,0,0,0,216.93,184.66Z"/><path class="cls-1" d="M222.93,184.66a1.67,1.67,0,1,0-1.67-1.67A1.66,1.66,0,0,0,222.93,184.66Z"/><circle class="cls-1" cx="228.93" cy="182.99" r="1.63"/><circle class="cls-1" cx="234.93" cy="182.99" r="1.61"/><circle class="cls-1" cx="240.93" cy="182.99" r="1.56"/><circle class="cls-1" cx="246.93" cy="182.99" r="1.35"/><circle class="cls-1" cx="186.93" cy="188.99" r="1.15"/><path class="cls-1" d="M192.93,190.66a1.67,1.67,0,1,0-1.67-1.67A1.66,1.66,0,0,0,192.93,190.66Z"/><path class="cls-1" d="M198.93,190.66a1.67,1.67,0,1,0-1.67-1.67A1.66,1.66,0,0,0,198.93,190.66Z"/><path class="cls-1" d="M204.93,190.66a1.67,1.67,0,1,0-1.67-1.67A1.66,1.66,0,0,0,204.93,190.66Z"/><path class="cls-1" d="M210.93,190.66a1.67,1.67,0,1,0-1.67-1.67A1.66,1.66,0,0,0,210.93,190.66Z"/><path class="cls-1" d="M216.93,190.66a1.67,1.67,0,1,0-1.67-1.67A1.66,1.66,0,0,0,216.93,190.66Z"/><path class="cls-1" d="M222.93,190.66a1.67,1.67,0,1,0-1.67-1.67A1.66,1.66,0,0,0,222.93,190.66Z"/><path class="cls-1" d="M228.93,190.66a1.67,1.67,0,1,0-1.67-1.67A1.66,1.66,0,0,0,228.93,190.66Z"/><path class="cls-1" d="M234.93,190.66a1.67,1.67,0,1,0-1.67-1.67A1.66,1.66,0,0,0,234.93,190.66Z"/><path class="cls-1" d="M240.93,190.66a1.67,1.67,0,1,0-1.67-1.67A1.66,1.66,0,0,0,240.93,190.66Z"/><circle class="cls-1" cx="246.93" cy="188.99" r="1.15"/><circle class="cls-1" cx="186.93" cy="194.99" r="0.52"/><path class="cls-1" d="M192.93,196.66a1.67,1.67,0,1,0-1.67-1.67A1.66,1.66,0,0,0,192.93,196.66Z"/><path class="cls-1" d="M198.93,196.66a1.67,1.67,0,1,0-1.67-1.67A1.66,1.66,0,0,0,198.93,196.66Z"/><path class="cls-1" d="M204.93,196.66a1.67,1.67,0,1,0-1.67-1.67A1.66,1.66,0,0,0,204.93,196.66Z"/><path class="cls-1" d="M210.93,196.66a1.67,1.67,0,1,0-1.67-1.67A1.66,1.66,0,0,0,210.93,196.66Z"/><path class="cls-1" d="M216.93,196.66a1.67,1.67,0,1,0-1.67-1.67A1.66,1.66,0,0,0,216.93,196.66Z"/><path class="cls-1" d="M222.93,196.66a1.67,1.67,0,1,0-1.67-1.67A1.66,1.66,0,0,0,222.93,196.66Z"/><path class="cls-1" d="M228.93,196.66a1.67,1.67,0,1,0-1.67-1.67A1.66,1.66,0,0,0,228.93,196.66Z"/><path class="cls-1" d="M234.93,196.66a1.67,1.67,0,1,0-1.67-1.67A1.66,1.66,0,0,0,234.93,196.66Z"/><path class="cls-1" d="M240.93,196.64a1.65,1.65,0,1,0-1.65-1.65A1.64,1.64,0,0,0,240.93,196.64Z"/><path class="cls-1" d="M246.93,195.53a.54.54,0,1,0-.54-.54A.54.54,0,0,0,246.93,195.53Z"/><rect class="cls-1" x="186.91" y="200.98" width="0.02" height="0.02" transform="translate(-87.38 191.05) rotate(-45)"/><path class="cls-1" d="M192.93,202a1,1,0,1,0-1-1A1,1,0,0,0,192.93,202Z"/><path class="cls-1" d="M198.93,202.66a1.67,1.67,0,1,0-1.67-1.67A1.66,1.66,0,0,0,198.93,202.66Z"/><path class="cls-1" d="M204.93,202.66a1.67,1.67,0,1,0-1.67-1.67A1.66,1.66,0,0,0,204.93,202.66Z"/><path class="cls-1" d="M210.93,202.66a1.67,1.67,0,1,0-1.67-1.67A1.66,1.66,0,0,0,210.93,202.66Z"/><path class="cls-1" d="M216.93,202.66a1.67,1.67,0,1,0-1.67-1.67A1.66,1.66,0,0,0,216.93,202.66Z"/><path class="cls-1" d="M222.93,202.66a1.67,1.67,0,1,0-1.67-1.67A1.66,1.66,0,0,0,222.93,202.66Z"/><path class="cls-1" d="M228.93,202.66a1.67,1.67,0,1,0-1.67-1.67A1.66,1.66,0,0,0,228.93,202.66Z"/><path class="cls-1" d="M234.93,202.66a1.67,1.67,0,1,0-1.67-1.67A1.66,1.66,0,0,0,234.93,202.66Z"/><circle class="cls-1" cx="240.93" cy="200.99" r="1.06"/><rect class="cls-1" x="246.91" y="200.98" width="0.02" height="0.02" transform="translate(-69.8 233.47) rotate(-45)"/><rect class="cls-1" x="192.89" y="206.96" width="0.07" height="0.07" transform="translate(-89.86 197.05) rotate(-45)"/><circle class="cls-1" cx="198.93" cy="206.99" r="0.87"/><circle class="cls-1" cx="204.93" cy="206.99" r="1.58"/><path class="cls-1" d="M210.93,208.66a1.67,1.67,0,1,0-1.67-1.67A1.66,1.66,0,0,0,210.93,208.66Z"/><path class="cls-1" d="M216.93,208.66a1.67,1.67,0,1,0-1.67-1.67A1.66,1.66,0,0,0,216.93,208.66Z"/><path class="cls-1" d="M222.93,208.66a1.67,1.67,0,1,0-1.67-1.67A1.66,1.66,0,0,0,222.93,208.66Z"/><circle class="cls-1" cx="228.93" cy="206.99" r="1.58"/><circle class="cls-1" cx="234.93" cy="206.99" r="0.87"/><rect class="cls-1" x="240.89" y="206.96" width="0.07" height="0.07" transform="translate(-75.8 230.99) rotate(-45)"/><circle class="cls-1" cx="204.93" cy="212.99" r="0.17"/><path class="cls-1" d="M210.93,213.54a.55.55,0,1,0,0-1.09.55.55,0,1,0,0,1.09Z"/><circle class="cls-1" cx="216.93" cy="212.99" r="0.73"/><path class="cls-1" d="M222.93,213.54a.55.55,0,1,0,0-1.09.55.55,0,1,0,0,1.09Z"/><rect class="cls-1" x="228.82" y="212.89" width="0.21" height="0.21" transform="translate(-83.58 223.75) rotate(-44.91)"/><path class="cls-4" d="M307.86,172.43a3.95,3.95,0,1,1,3.94-3.94A3.95,3.95,0,0,1,307.86,172.43Zm0-6.69a2.75,2.75,0,1,0,2.75,2.75A2.75,2.75,0,0,0,307.86,165.74Z"/><polygon class="cls-4" points="16.57 75.24 8.65 75.24 8.65 67.32 16.57 75.24"/><path class="cls-5" d="M239.81,7.89a3.95,3.95,0,1,1,3.95-3.95A3.95,3.95,0,0,1,239.81,7.89Zm0-6.69a2.75,2.75,0,1,0,2.75,2.74A2.75,2.75,0,0,0,239.81,1.2Z"/><path class="cls-5" d="M24.08,58.24a3.95,3.95,0,1,1,4-4A3.95,3.95,0,0,1,24.08,58.24Zm0-6.69a2.75,2.75,0,1,0,2.75,2.74A2.74,2.74,0,0,0,24.08,51.55Z"/><path class="cls-5" d="M256.32,26.39H249a.6.6,0,0,1-.6-.6V18.47a.6.6,0,0,1,.6-.6h7.32a.6.6,0,0,1,.6.6v7.32A.6.6,0,0,1,256.32,26.39Zm-6.72-1.2h6.12V19.06H249.6Z"/><polygon class="cls-2" points="291.68 16.5 283.76 16.5 283.76 8.58 291.68 16.5"/><polygon class="cls-2" points="0.73 57.92 0 50.03 7.88 49.3 0.73 57.92"/><path class="cls-2" d="M186.73,184.16c-2.31,0-3.49-1.38-4.53-2.6s-1.86-2.18-3.63-2.18-2.62,1-3.62,2.18-2.22,2.6-4.54,2.6-3.49-1.38-4.53-2.6-1.86-2.18-3.62-2.18-2.62,1-3.62,2.18-2.22,2.6-4.54,2.6-3.49-1.38-4.53-2.6-1.86-2.18-3.62-2.18a.6.6,0,1,1,0-1.2c2.32,0,3.49,1.39,4.53,2.6s1.86,2.18,3.62,2.18,2.63-1,3.63-2.18,2.22-2.6,4.53-2.6,3.49,1.39,4.53,2.6,1.86,2.18,3.62,2.18,2.63-1,3.63-2.18,2.22-2.6,4.53-2.6,3.5,1.39,4.54,2.6S185,183,186.73,183a.6.6,0,0,1,0,1.2Z"/><path class="cls-2" d="M186.73,191.13c-2.31,0-3.49-1.38-4.53-2.6s-1.86-2.18-3.63-2.18-2.62,1-3.62,2.18-2.22,2.6-4.54,2.6-3.49-1.38-4.53-2.6-1.86-2.18-3.62-2.18-2.62,1-3.62,2.18-2.22,2.6-4.54,2.6-3.49-1.38-4.53-2.6-1.86-2.18-3.62-2.18a.6.6,0,0,1-.6-.6.59.59,0,0,1,.6-.59c2.32,0,3.49,1.38,4.53,2.6s1.86,2.18,3.62,2.18,2.63-1,3.63-2.18,2.22-2.6,4.53-2.6,3.49,1.38,4.53,2.6,1.86,2.18,3.62,2.18,2.63-1,3.63-2.18,2.22-2.6,4.53-2.6,3.5,1.38,4.54,2.6,1.86,2.18,3.62,2.18a.6.6,0,1,1,0,1.19Z"/><text class="cls-6" transform="translate(54.96 79.81)">Oferta<tspan x="0" y="72">Especial</tspan></text></g></g></svg>