<svg xmlns="http://www.w3.org/2000/svg" viewBox="0 0 2000 2000"><defs><style>.cls-1{fill:#fff;}.cls-2{fill:#dce6ff;}.cls-3{fill:#d4e8ff;}.cls-4{fill:#eef7ff;}.cls-5{fill:#cfddf9;}.cls-6{fill:#7689d6;}.cls-7{fill:#fcb4b4;}.cls-8{fill:#f99370;}.cls-9{fill:#eb5648;}.cls-10{fill:#ce3932;}.cls-11{fill:#f4d4be;}.cls-12{fill:#3a72aa;}.cls-13{fill:#23659b;}.cls-14{fill:#1d3f70;}.cls-15{fill:#395b96;}.cls-16{fill:#e57d61;}.cls-17{fill:#c16256;}.cls-18{fill:#163356;}.cls-19{fill:#8e4a35;}.cls-20{fill:#e8c0a6;}.cls-21{fill:#103663;}.cls-22{fill:#0f2e54;}.cls-23{fill:#662948;}</style></defs><g id="Capa_2" data-name="Capa 2"><g id="Ñëîé_1" data-name="Ñëîé 1"><rect id="_8" data-name="8" class="cls-1" width="2000" height="2000"/><g id="_7" data-name="7"><path class="cls-2" d="M256.62,1537.55c-3.54-13-7-26.5-10.4-40.08l8.29-3c3.34,13.49,6.81,26.89,10.32,39.82Zm1482.55-16.81-8.59-1.27c1.43-13.85,2.78-27.81,4-41.47l8.59,1.13C1742,1492.84,1740.59,1506.84,1739.17,1520.74ZM236.68,1457.1c-3-13.42-6-27.09-8.73-40.63l8.4-2.47c2.75,13.45,5.66,27,8.67,40.38Zm1510.06-19.65-8.61-1c1.1-13.91,2.11-27.9,3-41.59l8.62.82C1748.86,1409.45,1747.84,1423.49,1746.74,1437.45ZM220.05,1375.6c-2.49-13.68-4.87-27.5-7.06-41.1l8.49-2c2.17,13.51,4.54,27.25,7,40.84Zm1532.19-21.68-8.62-.66c.73-13.9,1.37-27.92,1.9-41.67l8.64.49C1753.62,1325.88,1753,1340,1752.24,1353.92ZM206.79,1293.2c-1.92-13.84-3.7-27.79-5.29-41.48l8.57-1.43c1.57,13.59,3.34,27.45,5.25,41.2Zm1548.69-23-8.64-.3c.33-14,.57-28,.69-41.72l8.64.11C1756.05,1242.07,1755.82,1256.17,1755.48,1270.2ZM197.17,1210.07c-1.29-14-2.42-28-3.34-41.79l8.62-.84c.92,13.65,2,27.61,3.31,41.48Zm1550.39-23.61c-.1-14-.32-28-.65-41.7l8.64-.3c.33,13.77.56,27.87.66,41.91Zm-1556-60.08c-.57-14.07-.95-28.18-1.13-42l8.65-.16c.17,13.67.55,27.67,1.12,41.62Zm1554-23.29c-.6-13.95-1.33-27.95-2.17-41.61l8.62-.77c.85,13.74,1.58,27.82,2.18,41.85ZM199.16,1042.62l-8.64-.21c.24-14.1.7-28.23,1.38-42l8.63.61C199.86,1014.66,199.4,1028.65,199.16,1042.62ZM1740.35,1020c-1.16-14-2.46-27.89-3.89-41.42l8.58-1.3c1.43,13.62,2.75,27.65,3.91,41.69ZM203.27,959.58l-8.6-1c1.17-14,2.6-28.09,4.25-41.73l8.56,1.49C205.85,931.79,204.43,945.68,203.27,959.58Zm1528.35-22.29c-1.8-13.86-3.77-27.67-5.87-41l8.5-1.92c2.11,13.48,4.1,27.4,5.91,41.37ZM709.1,935.82c-12-2.27-20.71-8.84-32.74-20.19l5.46-8c10.55,9.92,18.16,15.86,28.2,17.91Zm30-24.71-7.7-4.72c4-9.32,7.46-22.24,10.4-38.41l8.45,2.22C747.09,887.48,743.45,900.86,739.09,911.11ZM651,885.84c-6.89-9.22-14.25-19.82-22.5-32.42l6.79-6.43c8.14,12.43,15.38,22.86,22.14,31.91Zm-437.73-8.52-8.48-2c2.24-13.86,4.77-27.69,7.53-41.09l8.39,2.5C218,850,215.46,863.63,213.25,877.32Zm1505.51-21.85c-2.56-13.72-5.32-27.32-8.2-40.43l8.35-2.65c2.92,13.23,5.71,27,8.29,40.81Zm-962.7-27.08-8.58-1.32c1.33-12.4,2.52-26,3.64-41.51l8.61.9C758.6,802.13,757.4,815.85,756.06,828.39ZM607.3,820c-7-11.4-14.31-23.46-20.59-33.86l7-6.1c6.27,10.39,13.55,22.41,20.55,33.78Zm633-.85c-6.74,0-13.34-2.42-19.64-7.19l4.61-8.78c9.46,7.17,18.76,7.18,28.81,1.46l3.72,9.38A35.3,35.3,0,0,1,1240.29,819.1ZM229.89,796.72l-8.27-3c3.43-13.5,7.2-26.92,11.2-39.9l8.11,3.61C237,770.18,233.27,783.41,229.89,796.72Zm1056.17-9.91-6.35-7a347.28,347.28,0,0,0,21.48-32.17l7,6.09A355.59,355.59,0,0,1,1286.06,786.81Zm-90-7.14a344.31,344.31,0,0,1-17-37.33l7.81-4.45A336.53,336.53,0,0,0,1203.32,774Zm504.93-4.6c-3.48-13.46-7.2-26.71-11-39.38l8.12-3.56c3.89,12.83,7.66,26.24,11.18,39.86ZM566.22,752.23c-7.91-13-14.51-23.65-20.75-33.56l6.89-6.27c6.28,10,12.89,20.66,20.83,33.69Zm196.11-7.72-8.62-.67c.65-12.17,1.32-25.85,2-41.82l8.64.56C763.66,718.59,763,732.3,762.33,744.51ZM253.89,718.94l-7.91-4.2q7.13-19.37,15.18-38l7.66,4.8Q260.9,699.85,253.89,718.94Zm1074.11,0-7.22-5.7c6.14-11.22,12.49-23.12,18.91-35.13l7.27,5.62C1340.53,695.76,1334.17,707.66,1328,718.93Zm-162.8-15.36c-3.92-11.8-8-24.67-12.37-39.36l8.13-3.52c4.38,14.57,8.39,27.34,12.27,39Zm512-6.48c-4.65-13-9.57-25.64-14.62-37.55l7.71-4.72c5.13,12.12,10.13,25,14.85,38.18ZM524.12,685.76c-7.84-11.7-15.14-22.12-22.32-31.84l6.47-6.89c7.27,9.85,14.65,20.38,22.59,32.21Zm242.06-25.08-8.64-.53c.58-13.87,1.16-27.76,1.78-41.89l8.63.55C767.34,632.93,766.76,646.81,766.18,660.68Zm599.74-12-7.21-5.73c7.22-13.13,13.68-24.49,19.75-34.73l7,6C1379.49,624.34,1373.09,635.6,1365.92,648.64ZM286,645.7l-7.29-5.59A327,327,0,0,1,299.5,605.8l6.61,6.7A316.06,316.06,0,0,0,286,645.7Zm855.31-21.13c-4-14-7.85-27.93-11.13-39.75l8.2-3.28c3.28,11.8,7.16,25.75,11.12,39.68ZM478,623.84A325.49,325.49,0,0,0,452.2,596.7l5.27-8.23a333.32,333.32,0,0,1,26.59,27.93Zm1167.81-.44c-6.2-12.15-12.69-23.63-19.31-34.14l6.9-6.27c6.78,10.78,13.44,22.55,19.78,35ZM330.36,584.24,325.12,576c10.32-9.46,21.07-16.29,31.93-20.28l2.53,9.93C349.7,569.27,339.87,575.53,330.36,584.24Zm1076-3.18-6.71-6.54a392.17,392.17,0,0,1,23.49-31.62l6.11,7.34C1421.76,559.24,1414.27,569.33,1406.35,581.06ZM769.89,577l-8.63-.62c.75-15.1,1.49-28.81,2.27-41.92l8.63.74C771.38,548.25,770.64,561.92,769.89,577ZM423.62,574.8c-10.79-6.45-21.4-10.56-31.54-12.23l1.17-10.29c11.07,1.82,22.59,6.27,34.22,13.22ZM1604.29,558a220.89,220.89,0,0,0-25.61-26.88l5.09-8.39a230,230,0,0,1,26.71,28Zm-485.17-12.94c-4.3-15.45-7.85-28.05-11.16-39.65l8.18-3.37c3.32,11.63,6.87,24.25,11.18,39.73Zm336-21.34-5-8.51c10.63-8.94,21.37-15.56,31.92-19.67l2.67,9.88C1475,509.22,1465.05,515.38,1455.12,523.73ZM1549.45,511a94.92,94.92,0,0,0-32.21-10l.8-10.34a102.32,102.32,0,0,1,34.77,10.75ZM774.92,493.48l-8.61-.92c1.08-14.57,2.25-28.65,3.48-41.83l8.6,1.16C777.16,465,776,479,774.92,493.48Zm321.54-27.57c-4.18-14-8.11-26.82-12-39.15l8.08-3.71c3.94,12.4,7.9,25.28,12.1,39.36ZM782.79,410.47,774.23,409c1.75-14.54,3.67-28.52,5.71-41.56l8.5,1.92C786.42,382.23,784.52,396.07,782.79,410.47ZM1071.58,388c-4.65-13.42-9.33-26.27-13.92-38.17l7.85-4.37c4.63,12,9.36,25,14,38.56Zm-275.8-59.28-8.38-2.52c3-14.5,6.34-28.17,9.88-40.61l8.18,3.36C802,301.09,798.74,314.47,795.78,328.69Zm246.53-16.17c-5.69-12.87-11.5-24.95-17.27-35.9l7.31-5.56c5.88,11.18,11.8,23.49,17.59,36.59ZM818.44,250.87l-7.75-4.6A217,217,0,0,1,829.4,210l6.79,6.43A205.35,205.35,0,0,0,818.44,250.87Zm186.79-7.94a243,243,0,0,0-23.18-30l5.8-7.7A250.72,250.72,0,0,1,1012,236.45ZM860.31,189.45l-4.66-8.74a77.92,77.92,0,0,1,33.54-15.22l1.32,10.26A70.19,70.19,0,0,0,860.31,189.45Zm94.46,0a93.45,93.45,0,0,0-31.18-13.26L925.11,166a101.17,101.17,0,0,1,33.76,14.33Z"/><path class="cls-3" d="M421.37,1593.74s-210.57-621.29-59-759.63C463.62,741.64,571,945.48,699.12,837.64c114.08-96,77.81-388.1,259.75-428.47,204.57-45.4,249.61,499.4,417.48,424.94,203.7-90.36,406.34,93.07,231.23,760.82Z"/><path class="cls-4" d="M1794,1379.55c-71.75-12.78-60,102.66-162.31,102.66-93.5,0-123.42-439.59-191.45-313.93-348.78,644.2-146.25-274-423.62-285.63-125.43-5.27-209,155.4-239.82,439.88-44.67,257.18-148.28-196.15-254.9-154-67.77,26.79-60,313.68-153.51,313.68-102.27,0-90.56-115.44-162.31-102.66-77.24,13.76-100.32,218.07-100.32,218.07H1894.28S1871.2,1393.31,1794,1379.55Z"/><path class="cls-2" d="M1730.42,1504.5c-66-5.45-55.23,43.84-149.32,43.84-86,0-83.66-110.47-141.22-133.95-106-43.23-193.41,175.58-234.5,65.76-78.06-291.39-305.73-437.53-410.76,0C753.53,1590,657.41,1394,560.12,1414.39c-59.89,12.54-55.2,133.95-141.22,133.95-94.09,0-83.32-49.29-149.32-43.84-71.07,5.88-92.29,93.12-92.29,93.12H1822.71S1801.49,1510.38,1730.42,1504.5Z"/><path id="_5" data-name="5" class="cls-5" d="M105.72,1597.62s-11.21,55,40.77,68.73c71.1,18.83,488.48,68.29,387.08,105.88-57.23,21.21,29.22,50,308,60.63s757.17-31,596.3-92.46,496.32-14.85,456.4-142.78Z"/></g><g id="_6" data-name="6"><path class="cls-6" d="M963.34,1421.33h-.55c-59.93,0-121.29,41.36-123,120.66v1c1,79.56,62.39,121.45,122.49,121.7h.56c59.92,0,121.28-41.36,123-120.66,0-.34,0-.68,0-1C1084.82,1463.47,1023.44,1421.58,963.34,1421.33Z"/><path class="cls-6" d="M1347.33,570.29c-14.47-60.94-41.71-113.38-81-155.87-42.91-46.41-98-78.37-163.8-95l-.54-.13c-59.78-13.92-119.25-13-176.77,2.74a350.28,350.28,0,0,0-145.55,81A344.82,344.82,0,0,0,689.87,539.4c-19.54,54.94-24.72,113-15.4,172.58,3.23,23.62,20.49,41.2,44.11,44.86a55.08,55.08,0,0,0,59-31.33c.27-.56.51-1.14.74-1.72,49.1-126,176.42-182.34,260-154,30.46,10.32,52.74,31.64,64.41,61.66,14.26,36.65,13.12,86.53-3.28,144.34-28.45,61.53-63.72,108.28-97.84,153.5C929.93,1024.15,862.3,1113.78,883.82,1306c.08.75.19,1.5.33,2.24,3.86,20.42,11.87,38.16,23.16,51.3,12.9,15,29.31,23.24,46.34,23.24l1.46,0c24.19-.67,52.36-19,58.91-68.27l.12-1c9.82-101.37,105-231.34,191.42-298.43.42-.32.83-.66,1.24-1,60.12-52,105.25-122.91,130.51-204.92C1361.6,730.15,1365.16,645.36,1347.33,570.29Z"/></g><g id="_5-2" data-name="5"><path class="cls-7" d="M1563.43,692.37c-8.22,48.4-80.41,37.4-73.84-11.25C1497.81,632.72,1570,643.72,1563.43,692.37Z"/><path class="cls-7" d="M1471.43,349.71c-.85-92.65,90.57-153.5,176.42-119.64,112.26,46.7,89.17,203.15-1.27,260.67-42.19,23.79-88.9,72.81-99.35,114.85-7,24.65-26.63,16.81-27.59-7.28,3.87-109.15,68-119.69,115.34-192.52,56.45-123.61-91.94-145.18-145.52-51.29C1484.29,362.37,1471.23,359.55,1471.43,349.71Z"/></g><g id="_4" data-name="4"><path class="cls-7" d="M541.28,736c10.38,34.39-40.49,50.69-52,16.68C478.87,718.34,529.74,702,541.28,736Z"/><path class="cls-7" d="M369.42,541.53c-30.73-60.41,9.34-130,76.61-135.82,88.75-6,124.57,104,84.05,171.17-19.88,29.32-34.52,76.65-27.67,107.59,3.4,18.45-12,19.68-20.45,4.22-33-72.77,5.59-100.57,12.86-163.68-3.27-99.36-107.51-65.16-112,13.79C382,545.64,372.5,548,369.42,541.53Z"/></g><g id="_3" data-name="3"><path class="cls-8" d="M1707.86,1676.25l1.13-.6c0,.8,1,3.55,1.77,3.55l33.45.68c.8,0,1.28-1.49,1.28-2.28l2.86-.81c.23-10.32-6-16.41-5.67-19,0,0,10.14-200,7-285-.77-20.65-81.79-34.22-80.81-23.42,7.26,79.79,45.39,300.2,45.39,300.2a29.14,29.14,0,0,1-3.39,16.52C1708.62,1670,1707.85,1671.24,1707.86,1676.25Z"/><path class="cls-8" d="M1562.85,1681.06h66.63a5.31,5.31,0,0,0,5.29-5.59c-7.37-33.79,26.41-207.33,26.25-326.57,0-3.14-72.23,5.3-75.31,41.4-5.55,65,17.9,251,17.9,251,2.24,19.49-18.53,21.52-31.79,24.1-5.27,1.33-10.78,3.38-13.35,7.32A5.31,5.31,0,0,0,1562.85,1681.06Z"/><path class="cls-9" d="M1754.65,1615.81c-.34,11.22-.57,17.87-.57,17.87-27.69,11.4-56.33.71-56.33.71l-1.93-16.47-30.45-260.27c-10.16,87.62-15.25,211.79-16.88,257.88-.4,11.51-.6,18.15-.6,18.15-3.7.85-7.31,1.51-10.78,2-26.49,3.76-45.4-2-45.4-2s-.78-6.52-2-18.15c-5.26-51.81-18.49-205.07-6.42-335.48,6.35-68.65,167.66-38.22,167.66-38.22s4,25.47,6.26,187.2C1758.11,1490.44,1755.78,1578.45,1754.65,1615.81Z"/><path class="cls-10" d="M1606.23,1626.56c-19.63-189.44-.19-339.12,0-340.61l6.08.81c-.2,1.48-19.54,150.49,0,339.17Z"/><path class="cls-10" d="M1722.19,1627.71c-9.76-89.19-29.23-336.42-29.42-338.91l6.11-.48c.2,2.49,19.65,249.63,29.41,338.72Z"/><path class="cls-8" d="M1655.27,1131.58c-38.36,1.11-81.37-4.7-112-32.93-35.83-33-8.8-74.79,29.1-89.81,15.72-6.9,31.25-10.53,47.84-12.5,7.09-.58,18.91-3.39,19.65,6.95a8.11,8.11,0,0,1-4.28,7.43c-15.64,9.49-64.77,27.86-57.36,48.26,5,13.6,51.79,15.73,76.22,18.24C1690,1076.83,1690.81,1130.88,1655.27,1131.58Z"/><path class="cls-11" d="M1583.34,1280.06s4.52,7.78,17.13,13.74,35.87,16.33,44.81,15.92,8.52-10.85,15.74-11.74,3.64,8.3,12.59,11.75,40.47-.46,80.47-21.17v-22.79Z"/><path class="cls-12" d="M1657.83,1075.87l-40.44,43.23L1606.23,1131c-19,.86-44.19-8.51-62.84-23.2l0,0c-22.26-17.55-35.16-42.66-16.89-67,33.56-44.66,93.73-44.51,93.73-44.51,13.92,5.43,11.7,17.31,11.7,17.31-64.3,31.95-53.12,58.44-22.62,56.81S1657.83,1075.87,1657.83,1075.87Z"/><path class="cls-13" d="M1617.39,1119.1,1606.23,1131c-19,.86-44.19-8.51-62.84-23.2,21,12.93,52.84,19.28,57.08,15.25s15.32-13.75,15.32-13.75Z"/><path class="cls-12" d="M1752.86,1277.4q-9.18,2.58-18,4.56c-89.94,20.44-151.53-1.91-151.53-1.91,4.67-69.4,8.69-177.75,65.52-201.86,9.41-4.44,26.7-.92,35.57-1.33,14.22,10.17,26.15,27.85,35.85,48.86C1743.71,1176.47,1754.18,1246.64,1752.86,1277.4Z"/><path class="cls-14" d="M1636.72,1674.15a21,21,0,0,1-.62,3.16,5.18,5.18,0,0,1-5,3.75H1562a5.13,5.13,0,0,1-4.88-6.79l0-.12c2.68-7.55,11.1-18.83,43.76-20.68,0,0,14.27,3.87,33,0a24.54,24.54,0,0,1,1.76,4.07C1637,1661.59,1637.46,1668.09,1636.72,1674.15Z"/><path class="cls-14" d="M1743.05,1681.06H1713.5a6.54,6.54,0,0,1-6.55-6.79v-.12c.37-8.12,3.81-20.51,21.32-20.67s21,12.45,21.33,20.67v.14A6.54,6.54,0,0,1,1743.05,1681.06Z"/><path class="cls-15" d="M1557.18,1674.15h79.54a18.15,18.15,0,0,1-2.18,6.91H1562a5.13,5.13,0,0,1-4.88-6.79Z"/><path class="cls-15" d="M1743.05,1681.06H1713.5a6.54,6.54,0,0,1-6.55-6.79v-.12h42.65v.14A6.54,6.54,0,0,1,1743.05,1681.06Z"/><path class="cls-8" d="M1635,1010.75s8.1-1.71,10.21-6.13c5.24-11,17.53-24.55,17.53-24.55s-4.33-3.34-11.44-1.15-21.14,16.64-21.14,16.64Z"/><path class="cls-8" d="M1717.62,1324.05c2.94,2.34,7.26-3.84,10.68-4.36a42.25,42.25,0,0,1-2.82,10.43,186,186,0,0,1-12.45,15.59c-1.1,9.82,14.81-9.32,17.13-11.13l.1.05a135.5,135.5,0,0,1-9.16,18.56c.94,10.67,13.51-14.3,15.05-16.71h0a78,78,0,0,1-6.39,18.62c2.26,10.46,12.41-15.47,13.2-18.48h.09a79.75,79.75,0,0,1-2.41,15.5c3.56,9.63,8.84-14.22,9.2-17,1.08-1.56,4.86-12,4.09-23.84-.26-3.89-14.12-7.82-16.11-4.58-1.49,2.43-8.14,5.93-9.46,7.14C1725.43,1315.76,1716.15,1320.1,1717.62,1324.05Z"/><path class="cls-8" d="M1756.59,1309.7v0c-1.11,1.39-2.23,2.74-3.37,4.07l-15.34-7.12s.39-.9,1-2.63l0-.07c3.45-9.67,13.93-44.36,6.28-90.6-8.2-49.49-47.35-77.9-52.47-126.92-.32-3-8.24-6.46-8.28-9.59,0,0,9.3,3.2,11.55,3.51,11.38,1.57,44.09,8.41,67.76,48.75C1808.12,1204.8,1789.34,1269,1756.59,1309.7Z"/><path class="cls-13" d="M1752.86,1277.4q-9.18,2.58-18,4.56c3.21-22.68,2.21-52.56-1.51-73.89-4.22-24.15-31.71-71-31.71-71l18.63-11.32C1743.71,1176.47,1754.18,1246.64,1752.86,1277.4Z"/><path class="cls-12" d="M1756.59,1309.7v0s-6.71-5-17.7-5.68l0-.07c.68-2.47,18.4-67.7-5.54-118.2-22.35-47.15-56.47-65-48.93-95.79.69-2.83-1.3-10.1,0-13.12,11.39,1.57,59.16,10.46,82.83,50.8C1811.64,1203.34,1789.34,1269,1756.59,1309.7Z"/><path class="cls-14" d="M1645.19,1004.62s-3.77-21.26,14.89-28.14l11.79,8.86Z"/><path class="cls-8" d="M1657.83,1075.86c-.26-2-.42-4.09-.51-6.31-.5-12.82,1.49-28.73,2.53-34.67a7.92,7.92,0,0,1,.57-2.39c.1-.37.2-.74.33-1.11a12.12,12.12,0,0,1,7.68-8.09h0a14.56,14.56,0,0,1,14.72,3.53c.08.08.15.17.21.24a12,12,0,0,1,3,10.24l-.09.59c0,.27-.1.53-.17.79-.61-.41-2.34,16.31-2.35,28.45a53.16,53.16,0,0,0,.65,9.73C1709.32,1084.32,1646.72,1093.06,1657.83,1075.86Z"/><path class="cls-16" d="M1686.39,1037.3l-.09.59c0,.27-.1.53-.17.79-.61-.41-2.34,16.31-2.35,28.45-11.41,5.18-24.13,2.9-26.46,2.42-.5-12.82,1.49-28.73,2.53-34.67.31-1.4.53-2.22.57-2.39.1-.37.2-.74.33-1.11a13.22,13.22,0,0,1,7.68-8.09h0a13.27,13.27,0,0,1,14.72,3.53c.08.08.15.17.21.24A13.22,13.22,0,0,1,1686.39,1037.3Z"/><path class="cls-8" d="M1704.31,1026.13c-1.92,11.88-5.93,25.27-15.32,33.13h0a29.72,29.72,0,0,1-13.31,6.12c-27.46,7.93-60.37-24.75-38.58-48,7.34-6.71,9-17.85,14.19-25.13C1674.61,961.12,1710.68,993.73,1704.31,1026.13Z"/><path class="cls-17" d="M1659,1018.8a1.8,1.8,0,1,1,2.42.79A1.8,1.8,0,0,1,1659,1018.8Z"/><path class="cls-17" d="M1643.83,1016.26a1.8,1.8,0,1,1,2.42.79A1.8,1.8,0,0,1,1643.83,1016.26Z"/><path class="cls-16" d="M1704.31,1026.13c-.13,1-.28,1.95-.46,2.93s-.36,1.8-.57,2.71a2.29,2.29,0,0,0-.07.34c-.23,1-.47,1.87-.69,2.77-.17.6-.33,1.2-.51,1.79s-.39,1.32-.6,1.95a67,67,0,0,1-2.37,6.48c-.59,1.36-1.21,2.66-1.87,3.9a33.75,33.75,0,0,1-8.18,10.26h0a24.6,24.6,0,0,1-2.44,1.79c7.14-7.09,11.28-22.29,11.28-22.29l-1.68-12.87c-11.53-11.68-6.57-24.82-6.57-24.82-19.28,5.41-25.78-6.49-25.78-6.49-6.09.79-12.51-2.28-12.51-2.28.53-.8,1.07-1.55,1.63-2.27a29.85,29.85,0,0,1,4.33-4.54,23.44,23.44,0,0,1,4.39-3,21.91,21.91,0,0,1,3.2-1.35l.32-.1a24.28,24.28,0,0,1,8.2-1,33.33,33.33,0,0,1,6.26.89,28.41,28.41,0,0,1,13.28,7.28,6,6,0,0,0,.44.43,35.66,35.66,0,0,1,6.69,9.39A49,49,0,0,1,1704.31,1026.13Z"/><path class="cls-14" d="M1698.4,995.17s-14.06,6.37-.52,28l8.81,7.31S1726.66,999,1698.4,995.17Z"/><path class="cls-17" d="M1649.55,1031.9c-2.39,0-5-1-5.62-2.49-.21-.48-.48-1.69,1.37-2.7,3.4-1.84,5.9-8.88,5.92-9a.7.7,0,0,1,.87-.42.69.69,0,0,1,.42.87c-.11.31-2.7,7.61-6.56,9.7-.44.24-.93.6-.77,1,.44,1,3.67,2.18,6,1.45a.68.68,0,1,1,.42,1.29A6.49,6.49,0,0,1,1649.55,1031.9Z"/><path class="cls-8" d="M1711.86,1032.13c-1.21,5.7-5.91,9.54-10.5,8.57s-7.33-6.38-6.12-12.08,5.9-9.54,10.49-8.57S1713.07,1026.43,1711.86,1032.13Z"/><path class="cls-17" d="M1707.57,1034.92l-.2,0a.68.68,0,0,1-.45-.85c1.22-4,1.18-6.76-.12-8-1.73-1.61-5.3-.25-5.33-.24a.68.68,0,1,1-.5-1.26c.18-.07,4.39-1.69,6.75.5,1.74,1.61,1.91,4.76.5,9.37A.68.68,0,0,1,1707.57,1034.92Z"/><path class="cls-17" d="M1701.22,1034a.66.66,0,0,1-.27-.06.68.68,0,0,1-.36-.89c.1-.23,2.5-5.75,7.71-6.09a.68.68,0,0,1,.09,1.36c-4.36.29-6.52,5.22-6.55,5.27A.69.69,0,0,1,1701.22,1034Z"/><path class="cls-14" d="M1698.84,974.33a14.44,14.44,0,0,0-2.54-2.52c-9.57-7.41-14.09-19.93-14.09-19.93s-6,7.6-8.3,16.5a99.92,99.92,0,0,1-10.17-14.7,36.13,36.13,0,0,0-5.35,12.88,32.53,32.53,0,0,0-14.77-7.66c-9.15,25.56,11.6,30.11,20.71,30.9,9.11,10.49,25.12,11.5,34.16,7.26l10.59,13.69C1725.87,984.94,1707.27,976.66,1698.84,974.33Z"/><path class="cls-10" d="M1665.37,1357.65c-10.16,87.62-15.25,211.79-16.88,257.88-.4,11.51-.6,18.15-.6,18.15-3.7.85-7.31,1.51-10.78,2h0s.17-6.56.48-17.53c1.43-51.29,5.8-198.94,9.67-223C1651.91,1366,1665.37,1357.65,1665.37,1357.65Z"/><path class="cls-10" d="M1648.49,1615.53c-.4,11.51-.6,18.15-.6,18.15-3.7.85-7.31,1.51-10.78,2-26.49,3.76-45.4-2-45.4-2s-.78-6.52-2-18.15c0,0,16.54,8.69,47.79,2.61C1641,1617.46,1644.66,1616.6,1648.49,1615.53Z"/><path class="cls-10" d="M1754.65,1615.81c-.34,11.22-.57,17.87-.57,17.87-27.69,11.4-56.33.71-56.33.71l-1.93-16.47s30,11.55,58.83-2.11Z"/><path class="cls-11" d="M1657.83,1075.86a16.82,16.82,0,0,0-11.37-3s-8.82,14.79,4.6,22.62c0,0,2.21-6.91,9-8.17,0,0-2.11,6.57-1.35,10.6,0,0,18.37-.72,30.21-10.44a35.77,35.77,0,0,0,7.06-8.37,15.6,15.6,0,0,0-11.6-2.22s-10.82,8.6-21,7.21C1654.8,1082.9,1657.83,1075.86,1657.83,1075.86Z"/><path class="cls-17" d="M1652.85,1044.74a2.89,2.89,0,0,1-1.46-.38,3.33,3.33,0,0,1-1.56-2.67,5.94,5.94,0,0,1,.83-3.45c1.36-2.35,3.9-3.44,5.66-2.42s2.09,3.76.73,6.11A5.17,5.17,0,0,1,1652.85,1044.74Zm2-8a4,4,0,0,0-3,2.16,4.61,4.61,0,0,0-.66,2.67,2,2,0,0,0,.91,1.65c1.12.65,2.89-.25,3.86-1.94s.87-3.68-.24-4.33A1.68,1.68,0,0,0,1654.84,1036.74Z"/><path class="cls-17" d="M1667.91,1016.84a.66.66,0,0,1-.66-.62,11.43,11.43,0,0,0-6.09-10,.66.66,0,1,1,.53-1.2,12.57,12.57,0,0,1,6.87,11.09.64.64,0,0,1-.62.68Z"/><path class="cls-17" d="M1644.88,1010.8a.64.64,0,0,1-.43-.16.65.65,0,0,1-.07-.93c.17-.19,4.13-4.7,9.48-4.7a.66.66,0,0,1,0,1.32c-4.75,0-8.45,4.2-8.49,4.24A.65.65,0,0,1,1644.88,1010.8Z"/></g><g id="_2" data-name="2"><path class="cls-8" d="M567.8,1080.12c19.12,24.9,27.89,53.78,47.36,77.33,1.34,1.18-9.48-58.41-15.91-92.36-2.12-11.23,7-14,7-14,34.06,19.76,91.24,131.25,18.69,153.56-53.32,12-77.75-57.92-103-91.52C501.46,1083.19,546,1051.24,567.8,1080.12Z"/><path class="cls-14" d="M667.74,1171.29c-.46,16.61-11.93,41.17-43.84,41.17a36.22,36.22,0,0,1-11.5-1.84c-13.72-4.56-24.27-17.17-32.5-33.34-17.73-34.84-24.7-86.17-29.47-108.76,24.72,2.7,54.88,47.19,62.26,72.36-.86-3.14-7.8-32.68-10-51.49a83.45,83.45,0,0,1-.68-9.4c2.22.12,14.92.61,23.77-10.68.42.51,2.89,3.31,6.42,8C644,1092.87,667.76,1129.3,667.74,1171.29Z"/><path class="cls-18" d="M612.4,1210.62c-13.72-4.56-24.27-17.17-32.5-33.34l-2.41-68.35S608.85,1152.91,612.4,1210.62Z"/><path class="cls-8" d="M540.06,1066.53c.28-2.11.46-4.39.55-6.77.54-13.76-1.6-30.81-2.71-37.19a8.16,8.16,0,0,0-.61-2.55c-.1-.41-.22-.8-.35-1.19a13,13,0,0,0-8.24-8.68h0a15.6,15.6,0,0,0-15.78,3.79c-.09.08-.16.17-.24.25a12.92,12.92,0,0,0-3.23,11c0,.21.06.43.1.63s.11.57.17.85c.67-.43,2.52,17.49,2.53,30.51a56.44,56.44,0,0,1-.7,10.43C484.85,1075.6,565.13,1101.92,540.06,1066.53Z"/><path class="cls-19" d="M560.34,1002.25s1.43-14.79-2-25.48l-8.9,3.17Z"/><path class="cls-8" d="M555.66,1045.44c-14.61,11.33-43.53,10-52.26-1.93-32.6-44.7,31.38-122.83,52.53-52C563.58,1011.88,579.72,1023.49,555.66,1045.44Z"/><path class="cls-17" d="M539.77,1004.69a1.9,1.9,0,1,0-2.63.54A1.9,1.9,0,0,0,539.77,1004.69Z"/><path class="cls-17" d="M556,1003.85a1.9,1.9,0,1,0-2.64.53A1.91,1.91,0,0,0,556,1003.85Z"/><path class="cls-17" d="M549.16,1019.62a7.58,7.58,0,0,1-3.16-.6.71.71,0,1,1,.59-1.3c2.31,1,5.83.22,6.42-.8.21-.37-.26-.8-.69-1.1-3.8-2.66-5.64-10.63-5.71-11a.71.71,0,0,1,.54-.86.73.73,0,0,1,.86.54c0,.08,1.79,7.77,5.13,10.11,1.82,1.27,1.39,2.51,1.12,3C553.56,1018.87,551.35,1019.61,549.16,1019.62Z"/><path class="cls-16" d="M554.15,986.17c-9.8-6.61-28.48-3.37-37.71-4.51,0,0,.16,15.81-16.84,25.13-3,14.18-6,20.17,6.69,39.35h0a28.91,28.91,0,0,1-2.89-2.63h0C463.14,992.67,529.53,922.83,554.15,986.17Z"/><path class="cls-19" d="M565.56,956.36c-4.55-12.27-21.25-20.56-37.93-8-12.84,9.71-25.33,8.2-26.4,19.85-24.44,7.9-15.83,34.83-15.83,34.83l11.8-.05c14.53-9.26,15.93-25.14,15.93-25.14h0a30.91,30.91,0,0,0,8.93.32c8.83-1.21,21.63-.82,30.89,3.84S570.65,970.06,565.56,956.36Z"/><path class="cls-19" d="M568.25,1025.19h0c0-.29-.07-.56-.12-.82-9.85-7.1-20.17-3.85-29.88.36-10.42,4.53-20.13,10.15-27.78,5.24l-.22-.14c-8.93-6.62-8.05-17.71-6.4-25.75.82-4,1.84-7.26,1.91-8.8h0L497.2,1003l-2.68,11.49h0l-.19.79v.06h0l-1.68,7.16v0h0c-2.13,16.56,7.67,25.95,19.56,31.19,8.33,3.67,17.69,5.3,24.67,5.92a23.47,23.47,0,0,0,3.72.43c15.83.65,25-14.66,27.27-26.84a32.5,32.5,0,0,0,.53-4.71A21.7,21.7,0,0,0,568.25,1025.19Zm-29.34,4.27c8.68-6.1,21.37-10.14,22.84,1.89-4,6.79-13.15,8.15-21.82,7.69a79.3,79.3,0,0,1-9-1C531.63,1035.66,534.82,1032.33,538.91,1029.46Z"/><path class="cls-8" d="M482.67,1012.29c.58,6.13,5,10.72,10,10.26s8.47-5.81,7.89-11.94-5-10.72-10-10.26S482.09,1006.16,482.67,1012.29Z"/><path class="cls-17" d="M495.16,1005.67c-.18-.1-4.4-2.3-7.14-.29a4.57,4.57,0,0,0-1.56,2.2s0,0,0,0c-.65,1.77-.69,4.29-.09,7.55a.71.71,0,0,0,.71.59h.12a.72.72,0,0,0,.58-.84,15.8,15.8,0,0,1-.19-6c4,1.2,5.56,6.1,5.58,6.15a.71.71,0,0,0,.69.52l.2,0a.71.71,0,0,0,.48-.89c-.07-.25-1.73-5.66-6.46-7.1a3,3,0,0,1,.79-1c2-1.48,5.59.38,5.63.4a.72.72,0,1,0,.67-1.27Z"/><path class="cls-20" d="M462.82,1208.17h-4.67c.12-.86.19-1.3.19-1.3l.58.17c1.13.34,2.26.67,3.4,1Z"/><path class="cls-17" d="M549.14,1030.74a.62.62,0,0,1-.26-.06.63.63,0,0,1-.33-.83c.07-.17,1.78-4,7.13-4.51a.64.64,0,1,1,.12,1.28,7.15,7.15,0,0,0-6.08,3.73A.64.64,0,0,1,549.14,1030.74Z"/><path class="cls-17" d="M556.26,997.15a.34.34,0,0,1-.14,0,12.6,12.6,0,0,1-8.68-6.71.64.64,0,0,1,.34-.84.64.64,0,0,1,.84.33,11.52,11.52,0,0,0,7.78,6,.64.64,0,0,1-.14,1.26Z"/><path class="cls-17" d="M532.26,999.18a.66.66,0,0,1-.35-.11.64.64,0,0,1-.19-.88,13.67,13.67,0,0,1,9.62-5.49.66.66,0,0,1,.72.56.64.64,0,0,1-.56.71,12.61,12.61,0,0,0-8.7,4.91A.66.66,0,0,1,532.26,999.18Z"/><path class="cls-8" d="M487.12,1676.18l-1.14-.6c0,.8-1,3.59-1.8,3.59l-33.88.7c-.81,0-1.3-1.51-1.3-2.31l-2.89-.83c0-5.08.42-6.92,2.66-10.84,8.24-10.89-1.6-60-1.31-72.72-2-3.5,35.68-.75,36.21-1.58a1.46,1.46,0,0,1,1.45,1.57l-4.44,56C479.08,1662.25,487.09,1665.86,487.12,1676.18Z"/><path class="cls-8" d="M634,1681.06h-67.5c-5.89-.24-5.84-6.25-4.76-10.91,3.72-16.8-2.85-55.37-4.07-72.65a5.37,5.37,0,0,1,5.34-5.91h29.79a5.36,5.36,0,0,1,5.32,6l-5.41,43.2c-2.08,20,18.6,21.67,32.2,24.43,5.34,1.34,10.93,3.42,13.53,7.4A5.38,5.38,0,0,1,634,1681.06Z"/><path class="cls-21" d="M559.19,1674.05c.18,3.31,1.82,7.09,5.66,7h70c17.46-5.36-8.1-29.8-39.63-28-2.49.59-18.41,2.73-32.38.79C562.86,1653.9,558.9,1667.22,559.19,1674.05Z"/><path class="cls-21" d="M451.48,1681.06h29.93c14.45-1.64,4.32-27.76-15-28S437,1679.45,451.48,1681.06Z"/><path class="cls-20" d="M618.17,1671.58a1.48,1.48,0,0,0,1.38-.93c2.72-6.71,7.7-8.73,7.75-8.75a1.49,1.49,0,0,0-1.1-2.77c-.25.1-6.21,2.53-9.4,10.4A1.5,1.5,0,0,0,618.17,1671.58Z"/><path class="cls-20" d="M606.61,1670.19a1.48,1.48,0,0,0,1.42-1,20.61,20.61,0,0,1,9.15-11.28,1.49,1.49,0,0,0-1.38-2.64,23.44,23.44,0,0,0-10.61,13A1.5,1.5,0,0,0,606.61,1670.19Z"/><path class="cls-20" d="M593.46,1668.57a1.49,1.49,0,0,0,1.4-1,26.92,26.92,0,0,1,9.26-12.38,1.49,1.49,0,0,0-1.64-2.48,29.43,29.43,0,0,0-10.43,13.88A1.5,1.5,0,0,0,593.46,1668.57Z"/><path class="cls-20" d="M455.71,1662c11.4-6.42,21.48,2,23.08-.87,1.34-3-13.53-7.53-23.83-1.9A1.49,1.49,0,0,0,455.71,1662Z"/><path class="cls-22" d="M639.76,1674.05H559.19a18.61,18.61,0,0,0,2.21,7h73.47A5.21,5.21,0,0,0,639.76,1674.05Z"/><path class="cls-22" d="M451.48,1681.06h29.93a6.64,6.64,0,0,0,6.63-7h-43.2A6.64,6.64,0,0,0,451.48,1681.06Z"/><path class="cls-9" d="M442.74,1642.87s31.91,7.75,48.36-.58c8.55-53.67,32.31-203.11,40.59-305.51.31,6,17.7,246.79,21,305.51,11.35,3.8,34.18,8.38,46.95-.82,5.74-61.82,24.17-265.35-3.59-431.57,0,0-76.06,8.46-135.46-9.49C444.25,1253.13,439.92,1579.59,442.74,1642.87Z"/><path class="cls-10" d="M587.37,1636.34c15.44-178.63-2.82-330.6-7.39-332.3C576.63,1304.81,595.71,1459.35,587.37,1636.34Z"/><path class="cls-10" d="M467.85,1636.34c10.64-183,37.51-353.69,34.34-356.14C498.11,1280,470.85,1454.49,467.85,1636.34Z"/><path class="cls-14" d="M449.53,1272.18q4.08,5,8.68,9.94s15,2.81,26.65-12.76c-47.7-103.15,44.27-108.79,26-200.57C449.3,1076.06,363.66,1167.94,449.53,1272.18Z"/><path class="cls-18" d="M449.53,1272.18q4.08,5,8.68,9.94s15,2.81,26.65-12.76c-1.4-5-3.48-7.9-4.94-12C479.92,1257.31,471,1267.76,449.53,1272.18Z"/><path class="cls-10" d="M457.14,1284.12c25.7,1.56,38.4-25.58,28-19.22-.26.68-6.55,16.29-30.25,15.26C451.17,1280.9,452.71,1284.93,457.14,1284.12Z"/><path class="cls-11" d="M607.12,1281.35s-4.65,19.93-41.83,29.76c-10.64,2.82-16.8,1.43-18.36-6-.78-3.7-2.81-10.16-6.53-12.55,0,0-8.32,3.6-11.46,8.69-6.88,11.18-17.25,1-22.29-10.67-6.25-14.47-22.06-26.72-25.52-38.86Z"/><path class="cls-14" d="M455.62,1256.72c1.21,2.14,1.93,1.8,3.17.56,33.41-24.94,45.35,29.56,81.34,30.53,36.64,3.63,57,5.7,67-6.46,17.42-27-10.28-147.7-32.69-176.93-9.82-15.19-25-30-34.37-37.89.19.79,3.62,21.62-28.52,1.06-1.61.68-12.49,11.82-11.85,17.14C498.06,1109.17,440.08,1229.27,455.62,1256.72Z"/><path class="cls-18" d="M475,1264.39l7.32-1.52C453,1197,487.43,1169.1,505.64,1132,463.4,1180.85,457,1207.64,475,1264.39Z"/><path class="cls-11" d="M501,1070.56c-.17,12.26,31.28,23.08,33.07,23.1l3.77-11.16c4.84,1.2,9.1,8,9.1,8,13.06-12.74,6.79-20.39,3.52-22-3.78-1.81-10.37-2-10.37-2,.2.79.71,19.69-28.52,1.06C507.78,1065.85,501,1070.56,501,1070.56Z"/><path class="cls-10" d="M552.7,1642.29a74.5,74.5,0,0,0,9.85,2.62s-16-239-18.43-270.88-12.43-37.25-12.43-37.25S553,1637.13,552.7,1642.29Z"/><path class="cls-10" d="M552.06,1630.7c.43,6.9.67,11,.64,11.59,11.35,3.8,34.18,8.38,46.95-.82,0,0,.41-3.79,1.07-10.77C600.72,1630.7,578.34,1641,552.06,1630.7Z"/><path class="cls-10" d="M442.74,1642.87s31.91,7.75,48.36-.58c0,0,.67-4.15,1.86-11.59,0,0-22.48,6.31-50.61,0C442.22,1638,442.84,1642.27,442.74,1642.87Z"/><path class="cls-18" d="M632.19,1077.29c-9.34,9.84-22.73,11.78-29.51,12.1a83.45,83.45,0,0,1-.68-9.4c2.22.12,14.92.61,23.77-10.68C626.19,1069.82,628.66,1072.62,632.19,1077.29Z"/><path class="cls-8" d="M625.77,1069.31,602,1080c-.18-.09.3-10.7-6.3-12.54-7.27-2-14.42-10.66-14.27-11-2.28,5.84-13.36-5.26-9.59-7.34-2.53-2.33-.83-5,2.34-6.52-2.12-2,.14-4.49,3.19-5.47a57.82,57.82,0,0,0-10.78-4.19c-5.62-1.73-1.91-5,1.42-4.38C595.16,1033.25,607,1044.12,625.77,1069.31Z"/></g><g id="_1" data-name="1"><path class="cls-8" d="M1323.22,1766.47l59.29-30c-1.83-2.91-9.13-9.2-13-22.22-20.67-70.32-53.44-138-58.53-148.83l-54.94,11.37L1342.49,1720a12.33,12.33,0,0,1-1.52,15.62c-8.84,9.6-21.61,13.85-25,25.51A5.07,5.07,0,0,0,1323.22,1766.47Z"/><path class="cls-9" d="M1381.41,1729.77a17,17,0,0,1,1.1,6.65l-60.19,30.51a4.8,4.8,0,0,1-6.94-3.57c-1-7.61,2.21-21,29.22-36.51,0,0,10.86-2,25-12.65C1369.55,1714.2,1378.27,1721.09,1381.41,1729.77Z"/><path class="cls-20" d="M1332,1752.25a1.36,1.36,0,0,1-1.5-.19c-5-4.33-9.78-4-10-4a1.37,1.37,0,0,1-.25-2.72c.24,0,6.14-.51,12,4.61A1.38,1.38,0,0,1,1332,1752.25Z"/><path class="cls-20" d="M1340.92,1746.31a1.38,1.38,0,0,1-1.58-.28,19.08,19.08,0,0,0-12.18-5.44c-5.72-4.25,7.88-3.49,14.14,3.54A1.37,1.37,0,0,1,1340.92,1746.31Z"/><path class="cls-20" d="M1351,1739.52a1.38,1.38,0,0,1-1.55-.25,24.62,24.62,0,0,0-12.73-6.29c-5.21-4.85,8-2.47,14.63,4.32A1.38,1.38,0,0,1,1351,1739.52Z"/><path class="cls-10" d="M1315.37,1763.24l66-33.47a17,17,0,0,1,1.1,6.65l-60.19,30.51A4.79,4.79,0,0,1,1315.37,1763.24Z"/><path class="cls-8" d="M1134.75,1765.08l67.43-.18c1.14-3.56-2.65-19.79-1.58-25.68,22.68-125.18,19.45-169.6,19.83-174.56l-64.36-5,17.76,172.51a12.35,12.35,0,0,1-8.37,13.28c-12.5,4.93-27.77,2.25-34.88,13.26A4.5,4.5,0,0,0,1134.75,1765.08Z"/><path class="cls-9" d="M1204.19,1758.46a16.83,16.83,0,0,1-2,6.44l-67.47.19a4.8,4.8,0,0,1-4.58-6.32c2.54-7.24,11.4-17.76,42.49-19.47,0,0,10.59,3.12,28-.08C1200.6,1739.22,1205.28,1749.29,1204.19,1758.46Z"/><path class="cls-20" d="M1149.11,1756c-2.27-5.5-7.34-8.84-7.53-8.55a1.37,1.37,0,0,1,1-2.54c.23.09,5.72,2.31,8.68,9.53A1.38,1.38,0,0,1,1149.11,1756Z"/><path class="cls-20" d="M1159.73,1754.7c-2.06-6.41-8.69-11.3-8.86-11a1.37,1.37,0,0,1,1.26-2.43,21.49,21.49,0,0,1,9.78,12A1.37,1.37,0,0,1,1159.73,1754.7Z"/><path class="cls-20" d="M1171.81,1753.18c-3.14-9.07-10.61-11.62-9.34-13.83,1.86-2.16,8,3.71,11.51,12.33A1.37,1.37,0,0,1,1171.81,1753.18Z"/><path class="cls-10" d="M1130.16,1758.66l74-.2a16.83,16.83,0,0,1-2,6.44l-67.47.19A4.81,4.81,0,0,1,1130.16,1758.66Z"/><path class="cls-8" d="M1183.76,1274.26c-83.84-18.52-133.18-101.89-133.79-184-.38-9.55,13.58-12.81,17.52-4.24,31,69.06,52.8,114.17,129.14,138.37C1229.22,1232.92,1216.42,1282.53,1183.76,1274.26Z"/><path class="cls-8" d="M1238.43,1224.22c96.65,3.56,197.4,103.74,68.36,156.92-13.14,4.94-17.93-9.86-7.85-17.82,76.27-60.22-14.24-79.45-66.38-87.9C1199.37,1270.63,1205.09,1221.35,1238.43,1224.22Z"/><path class="cls-14" d="M1369.35,1303.75a15.08,15.08,0,0,1-1.87,4.88c.48-.8-30.18-2.54-39.83,10.41-4.81-.11-15-4.7-19.85-11-8.55-9.42-26.38-16.28-34.54-19.32l-41.48-79C1252,1201.88,1376.17,1244.7,1369.35,1303.75Z"/><path class="cls-12" d="M1151.67,1559.68c.72,8.67,1.26,13.74,1.26,13.74,85,31,166.91.41,166.91.41-.1-3.53,0-7.15.17-10.85,1.9-37.64,16.81-84,10.2-130.83-7.27-51.4-25.22-79.65-25.22-79.65l-141.21,7.55C1141.66,1410.7,1148.44,1521,1151.67,1559.68Z"/><path class="cls-8" d="M1072.72,1061.8c-3.67-.73-4,8.16-6.42,10.54a53.71,53.71,0,0,1-3.82-11.63c0-7.46.47-14.9,1.24-22.33-4.71-10.32-7.09,18.12-7.84,20.86h-.11a169.49,169.49,0,0,1-3.31-23.19c-7.17-9.53-2.86,22-2.76,25l0,0a98.14,98.14,0,0,1-5.67-21.59c-8.08-9-1.22,22.72-.15,25.53l-.07,0a99.25,99.25,0,0,1-7.18-16.23c-8.73-7.26,1.11,19.31,2.36,21.76,0,2.13,4.22,12.24,11.93,23.12,2.53,3.56,13.94-.8,15.78-4.67,1.73-3.64,2.67-9,3.06-11C1071.09,1074.37,1076.31,1064.53,1072.72,1061.8Z"/><path class="cls-13" d="M1302.2,1568.8c0-.35-3.29-34.83,2.35-97.21,5.55-61.37-17.77-117.44-18-118l5.17-2.19c.25.57,24.11,57.88,18.43,120.7-5.59,61.78-2.39,95.81-2.36,96.15Z"/><path class="cls-13" d="M1168.88,1571.8c-13.39-98.9,8.63-213.19,8.86-214.33l5.51,1.08c-.22,1.13-22.06,114.54-8.8,212.49Z"/><path class="cls-13" d="M1192.29,1576.91c-4.7-74.73,5.58-215.35,5.68-216.76l5.61.41c-.1,1.41-10.35,141.65-5.68,216Z"/><path class="cls-13" d="M1217.54,1576.74c0-.55-.11-56.27,4.12-104.18,4.19-47.56,0-111.38,0-112l5.6-.37c0,.64,4.23,64.89,0,112.89-4.2,47.66-4.09,103.11-4.09,103.67Z"/><path class="cls-13" d="M1253.28,1576.83c0-.53-1.77-53.37,0-104.12,1.75-50.38-8.33-112.48-8.43-113.1l5.55-.91c.1.63,10.27,63.28,8.49,114.21-1.76,50.55,0,103.21,0,103.73Z"/><path class="cls-13" d="M1278.07,1571.77c-2.15-23-1.58-46.18-.79-78.21.24-9.8.51-20.92.73-33.1.93-50.92-13-102.47-13.1-103l5.43-1.48c.14.52,14.24,52.81,13.29,104.56-.22,12.2-.49,23.33-.73,33.14-.82,33-1.36,54.84.77,77.54Z"/><rect class="cls-8" x="1206.37" y="1181.64" width="24.19" height="31.14" transform="translate(-105.22 117.48) rotate(-5.29)"/><path class="cls-8" d="M1249.31,1157.79c2.41,47.48-74.1,47.57-71-.62.17-9.51,3-16.09,3.15-31.25.44-35.09,49.67-41.51,57.48-5.58C1242,1134.51,1248.2,1144.6,1249.31,1157.79Z"/><path class="cls-21" d="M1332.22,1314.79a37.25,37.25,0,0,0-4.57,4.25s-10.82-.56-19.85-11c-7.32-8.47-25.41-15.89-32-18.41l7-22.17s18.47,16.75,28,33.23C1320.07,1316.73,1331.7,1314.86,1332.22,1314.79Z"/><path class="cls-14" d="M1305,1352.5s-57.92,21.39-141.22,7.55c-1.9-20.09-1.91-58.62,3.3-83.74,11.05-82.69,106.87-108.25,123.07,25.14C1293.89,1323.83,1296.15,1334.06,1305,1352.5Z"/><path class="cls-14" d="M1207.73,1212.47l-40.66,63.84c-52.1-15.25-114-62.35-107.59-103.18h0a22.6,22.6,0,0,1,3.93-8.44c22.67.15,34.93-17.13,34.93-17.13C1134,1155.66,1130.17,1207.32,1207.73,1212.47Z"/><path class="cls-23" d="M1185,1107.67s-18.22,6,1.16,35.21c12,18-18.58,45.33,5.93,69.8,56.87,74.79,219.31,36.8,130.76-43.56-26.55-14.28-25.4-28.89-34.31-47.24C1276.67,1097.43,1222.84,1051.47,1185,1107.67Z"/><path class="cls-21" d="M1369.35,1303.75a15.08,15.08,0,0,1-1.87,4.88c.48-.8-30.18-2.54-39.83,10.41a25.46,25.46,0,0,1-7.82-2.11S1338.86,1291.51,1369.35,1303.75Z"/><path class="cls-21" d="M1109,1151.77c-26.74,29.8-49.49,21.36-49.49,21.36a22.6,22.6,0,0,1,3.93-8.44c22.67.15,34.93-17.13,34.93-17.13C1102.37,1147.85,1105.83,1149.89,1109,1151.77Z"/><path class="cls-21" d="M1180.5,1265.29c-.53,1.41-17.38,46.74-17.5,77.07-.58-18.1.18-45.7,4.08-66C1167.44,1276.25,1172,1274.33,1180.5,1265.29Z"/><path class="cls-13" d="M1151.67,1559.68c.72,8.67,1.26,13.74,1.26,13.74,85,31,166.91.41,166.91.41-.1-3.53,0-7.15.17-10.85h0S1229.51,1589.53,1151.67,1559.68Z"/></g></g></g></svg>