<svg id="eNUn8dQgD121" xmlns="http://www.w3.org/2000/svg" xmlns:xlink="http://www.w3.org/1999/xlink" viewBox="0 0 2000 2000" shape-rendering="geometricPrecision" text-rendering="geometricPrecision"><g><g><rect width="2000" height="2000" rx="0" ry="0" fill="#fff"/><g><path d="M256.62,1537.55c-3.54-13-7-26.5-10.4-40.08l8.29-3c3.34,13.49,6.81,26.89,10.32,39.82Zm1482.55-16.81l-8.59-1.27c1.43-13.85,2.78-27.81,4-41.47l8.59,1.13c-1.17,13.71-2.58,27.71-4,41.61ZM236.68,1457.1c-3-13.42-6-27.09-8.73-40.63l8.4-2.47c2.75,13.45,5.66,27,8.67,40.38Zm1510.06-19.65l-8.61-1c1.1-13.91,2.11-27.9,3-41.59l8.62.82c-.89,13.77-1.91,27.81-3.01,41.77ZM220.05,1375.6c-2.49-13.68-4.87-27.5-7.06-41.1l8.49-2c2.17,13.51,4.54,27.25,7,40.84Zm1532.19-21.68l-8.62-.66c.73-13.9,1.37-27.92,1.9-41.67l8.64.49c-.54,13.8-1.16,27.92-1.92,41.84ZM206.79,1293.2c-1.92-13.84-3.7-27.79-5.29-41.48l8.57-1.43c1.57,13.59,3.34,27.45,5.25,41.2Zm1548.69-23l-8.64-.3c.33-14,.57-28,.69-41.72l8.64.11c-.12,13.78-.35,27.88-.69,41.91ZM197.17,1210.07c-1.29-14-2.42-28-3.34-41.79l8.62-.84c.92,13.65,2,27.61,3.31,41.48Zm1550.39-23.61c-.1-14-.32-28-.65-41.7l8.64-.3c.33,13.77.56,27.87.66,41.91Zm-1556-60.08c-.57-14.07-.95-28.18-1.13-42l8.65-.16c.17,13.67.55,27.67,1.12,41.62Zm1554-23.29c-.6-13.95-1.33-27.95-2.17-41.61l8.62-.77c.85,13.74,1.58,27.82,2.18,41.85Zm-1546.4-60.47l-8.64-.21c.24-14.1.7-28.23,1.38-42l8.63.61c-.67,13.64-1.13,27.63-1.37,41.6ZM1740.35,1020c-1.16-14-2.46-27.89-3.89-41.42l8.58-1.3c1.43,13.62,2.75,27.65,3.91,41.69ZM203.27,959.58l-8.6-1c1.17-14,2.6-28.09,4.25-41.73l8.56,1.49c-1.63,13.45-3.05,27.34-4.21,41.24Zm1528.35-22.29c-1.8-13.86-3.77-27.67-5.87-41l8.5-1.92c2.11,13.48,4.1,27.4,5.91,41.37ZM709.1,935.82c-12-2.27-20.71-8.84-32.74-20.19l5.46-8c10.55,9.92,18.16,15.86,28.2,17.91Zm30-24.71l-7.7-4.72c4-9.32,7.46-22.24,10.4-38.41l8.45,2.22c-3.16,17.28-6.8,30.66-11.16,40.91ZM651,885.84c-6.89-9.22-14.25-19.82-22.5-32.42l6.79-6.43c8.14,12.43,15.38,22.86,22.14,31.91Zm-437.73-8.52l-8.48-2c2.24-13.86,4.77-27.69,7.53-41.09l8.39,2.5c-2.71,13.27-5.25,26.9-7.46,40.59Zm1505.51-21.85c-2.56-13.72-5.32-27.32-8.2-40.43l8.35-2.65c2.92,13.23,5.71,27,8.29,40.81Zm-962.7-27.08l-8.58-1.32c1.33-12.4,2.52-26,3.64-41.51l8.61.9c-1.15,15.67-2.35,29.39-3.69,41.93ZM607.3,820c-7-11.4-14.31-23.46-20.59-33.86l7-6.1c6.27,10.39,13.55,22.41,20.55,33.78Zm633-.85c-6.74,0-13.34-2.42-19.64-7.19l4.61-8.78c9.46,7.17,18.76,7.18,28.81,1.46l3.72,9.38c-5.291131,3.197407-11.329194,4.94917-17.51,5.08ZM229.89,796.72l-8.27-3c3.43-13.5,7.2-26.92,11.2-39.9l8.11,3.61c-3.93,12.75-7.66,25.98-11.04,39.29Zm1056.17-9.91l-6.35-7c7.752116-10.315935,14.923238-21.055924,21.48-32.17l7,6.09c-6.753312,11.431164-14.141548,22.475125-22.13,33.08Zm-90-7.14c-6.403495-12.094433-12.080233-24.559881-17-37.33l7.81-4.45c4.768318,12.349742,10.261197,24.407363,16.45,36.11Zm504.93-4.6c-3.48-13.46-7.2-26.71-11-39.38l8.12-3.56c3.89,12.83,7.66,26.24,11.18,39.86ZM566.22,752.23c-7.91-13-14.51-23.65-20.75-33.56l6.89-6.27c6.28,10,12.89,20.66,20.83,33.69Zm196.11-7.72l-8.62-.67c.65-12.17,1.32-25.85,2-41.82l8.64.56c-.69,16.01-1.35,29.72-2.02,41.93ZM253.89,718.94l-7.91-4.2q7.13-19.37,15.18-38l7.66,4.8q-7.92,18.31-14.93,37.4Zm1074.11,0l-7.22-5.7c6.14-11.22,12.49-23.12,18.91-35.13l7.27,5.62c-6.43,12.03-12.79,23.93-18.96,35.2Zm-162.8-15.36c-3.92-11.8-8-24.67-12.37-39.36l8.13-3.52c4.38,14.57,8.39,27.34,12.27,39Zm512-6.48c-4.65-13-9.57-25.64-14.62-37.55l7.71-4.72c5.13,12.12,10.13,25,14.85,38.18ZM524.12,685.76c-7.84-11.7-15.14-22.12-22.32-31.84l6.47-6.89c7.27,9.85,14.65,20.38,22.59,32.21Zm242.06-25.08l-8.64-.53c.58-13.87,1.16-27.76,1.78-41.89l8.63.55c-.61,14.12-1.19,28-1.77,41.87Zm599.74-12l-7.21-5.73c7.22-13.13,13.68-24.49,19.75-34.73l7,6c-5.97,10.12-12.37,21.38-19.54,34.42ZM286,645.7l-7.29-5.59c6.221265-11.851385,13.164328-23.309609,20.79-34.31l6.61,6.7c-7.377198,10.644205-14.093193,21.731775-20.11,33.2Zm855.31-21.13c-4-14-7.85-27.93-11.13-39.75l8.2-3.28c3.28,11.8,7.16,25.75,11.12,39.68ZM478,623.84c-8.072053-9.534277-16.686305-18.595936-25.8-27.14l5.27-8.23c9.394913,8.789052,18.2731,18.114655,26.59,27.93Zm1167.81-.44c-6.2-12.15-12.69-23.63-19.31-34.14l6.9-6.27c6.78,10.78,13.44,22.55,19.78,35ZM330.36,584.24L325.12,576c10.32-9.46,21.07-16.29,31.93-20.28l2.53,9.93c-9.88,3.62-19.71,9.88-29.22,18.59Zm1076-3.18l-6.71-6.54c7.295392-10.926825,15.135279-21.480134,23.49-31.62l6.11,7.34c-7.49,9-14.98,19.09-22.9,30.82ZM769.89,577l-8.63-.62c.75-15.1,1.49-28.81,2.27-41.92l8.63.74c-.78,13.05-1.52,26.72-2.27,41.8Zm-346.27-2.2c-10.79-6.45-21.4-10.56-31.54-12.23l1.17-10.29c11.07,1.82,22.59,6.27,34.22,13.22ZM1604.29,558c-7.767214-9.662811-16.334133-18.654563-25.61-26.88l5.09-8.39c9.674068,8.566458,18.609016,17.932933,26.71,28Zm-485.17-12.94c-4.3-15.45-7.85-28.05-11.16-39.65l8.18-3.37c3.32,11.63,6.87,24.25,11.18,39.73Zm336-21.34l-5-8.51c10.63-8.94,21.37-15.56,31.92-19.67l2.67,9.88c-9.71,3.8-19.66,9.96-29.59,18.31ZM1549.45,511c-10.053642-5.229357-20.962474-8.616141-32.21-10l.8-10.34c12.139271,1.476775,23.915514,5.11769,34.77,10.75ZM774.92,493.48l-8.61-.92c1.08-14.57,2.25-28.65,3.48-41.83l8.6,1.16C777.16,465,776,479,774.92,493.48Zm321.54-27.57c-4.18-14-8.11-26.82-12-39.15l8.08-3.71c3.94,12.4,7.9,25.28,12.1,39.36ZM782.79,410.47L774.23,409c1.75-14.54,3.67-28.52,5.71-41.56l8.5,1.92c-2.02,12.87-3.92,26.71-5.65,41.11ZM1071.58,388c-4.65-13.42-9.33-26.27-13.92-38.17l7.85-4.37c4.63,12,9.36,25,14,38.56Zm-275.8-59.28l-8.38-2.52c3-14.5,6.34-28.17,9.88-40.61l8.18,3.36c-3.46,12.14-6.72,25.52-9.68,39.74Zm246.53-16.17c-5.69-12.87-11.5-24.95-17.27-35.9l7.31-5.56c5.88,11.18,11.8,23.49,17.59,36.59ZM818.44,250.87l-7.75-4.6c5.083402-12.650925,11.347766-24.794617,18.71-36.27l6.79,6.43c-6.988875,10.894923-12.931988,22.426237-17.75,34.44Zm186.79-7.94c-6.933605-10.588402-14.683853-20.618921-23.18-30l5.8-7.7c8.857916,9.755864,16.932932,20.19487,24.15,31.22ZM860.31,189.45l-4.66-8.74c9.803079-7.680724,21.304364-12.899852,33.54-15.22l1.32,10.26c-11.016439,2.088913-21.372114,6.786686-30.2,13.7Zm94.46,0c-9.498527-6.282986-20.065513-10.776836-31.18-13.26L925.11,166c12.032386,2.680003,23.473678,7.536451,33.76,14.33Z" fill="#dce6ff"/><path d="M421.37,1593.74c0,0-210.57-621.29-59-759.63C463.62,741.64,571,945.48,699.12,837.64c114.08-96,77.81-388.1,259.75-428.47c204.57-45.4,249.61,499.4,417.48,424.94c203.7-90.36,406.34,93.07,231.23,760.82Z" fill="#d4e8ff"/><path d="M1794,1379.55c-71.75-12.78-60,102.66-162.31,102.66-93.5,0-123.42-439.59-191.45-313.93-348.78,644.2-146.25-274-423.62-285.63-125.43-5.27-209,155.4-239.82,439.88-44.67,257.18-148.28-196.15-254.9-154-67.77,26.79-60,313.68-153.51,313.68-102.27,0-90.56-115.44-162.31-102.66-77.24,13.76-100.32,218.07-100.32,218.07h1788.52c0,0-23.08-204.31-100.28-218.07Z" fill="#eef7ff"/><path d="M1730.42,1504.5c-66-5.45-55.23,43.84-149.32,43.84-86,0-83.66-110.47-141.22-133.95-106-43.23-193.41,175.58-234.5,65.76-78.06-291.39-305.73-437.53-410.76,0-41.09,109.85-137.21-86.15-234.5-65.76-59.89,12.54-55.2,133.95-141.22,133.95-94.09,0-83.32-49.29-149.32-43.84-71.07,5.88-92.29,93.12-92.29,93.12h1645.42c0,0-21.22-87.24-92.29-93.12Z" fill="#dce6ff"/><path d="M105.72,1597.62c0,0-11.21,55,40.77,68.73c71.1,18.83,488.48,68.29,387.08,105.88-57.23,21.21,29.22,50,308,60.63s757.17-31,596.3-92.46s496.32-14.85,456.4-142.78Z" fill="#cfddf9"/></g><g id="eNUn8dQgD1211"><path d="M963.34,1421.33h-.55c-59.93,0-121.29,41.36-123,120.66v1c1,79.56,62.39,121.45,122.49,121.7h.56c59.92,0,121.28-41.36,123-120.66c0-.34,0-.68,0-1-1.02-79.56-62.4-121.45-122.5-121.7Z" fill="#7689d6"/><path d="M1347.33,570.29c-14.47-60.94-41.71-113.38-81-155.87-42.91-46.41-98-78.37-163.8-95l-.54-.13c-59.78-13.92-119.25-13-176.77,2.74-54.323992,14.90369-104.252261,42.68926-145.55,81-40.419332,37.611802-71.216022,84.37956-89.8,136.37-19.54,54.94-24.72,113-15.4,172.58c3.23,23.62,20.49,41.2,44.11,44.86c24.478091,4.035439,48.633208-8.791337,59-31.33.27-.56.51-1.14.74-1.72c49.1-126,176.42-182.34,260-154c30.46,10.32,52.74,31.64,64.41,61.66c14.26,36.65,13.12,86.53-3.28,144.34-28.45,61.53-63.72,108.28-97.84,153.5-71.68,94.86-139.31,184.49-117.79,376.71.08.75.19,1.5.33,2.24c3.86,20.42,11.87,38.16,23.16,51.3c12.9,15,29.31,23.24,46.34,23.24h1.46c24.19-.67,52.36-19,58.91-68.27l.12-1c9.82-101.37,105-231.34,191.42-298.43.42-.32.83-.66,1.24-1c60.12-52,105.25-122.91,130.51-204.92c24.29-79.01,27.85-163.8,10.02-238.87Z" fill="#7689d6"/></g><g transform="matrix(.988018-.223561 0.219899 0.971831-4.136719 537.833333)"><g id="eNUn8dQgD1215" transform="translate(-8.262692-3.966466)"><path d="M1563.43,692.37c-8.22,48.4-80.41,37.4-73.84-11.25c8.22-48.4,80.41-37.4,73.84,11.25Z" fill="#fcb4b4"/><path d="M1471.43,349.71c-.85-92.65,90.57-153.5,176.42-119.64c112.26,46.7,89.17,203.15-1.27,260.67-42.19,23.79-88.9,72.81-99.35,114.85-7,24.65-26.63,16.81-27.59-7.28c3.87-109.15,68-119.69,115.34-192.52c56.45-123.61-91.94-145.18-145.52-51.29-5.17,7.87-18.23,5.05-18.03-4.79Z" transform="translate(4.794517 6.233927)" fill="#fcb4b4"/></g></g><g id="eNUn8dQgD1218" transform="matrix(1.164832 0.239014-.211817 1.032289 29.22701-19.041892)"><path d="M541.28,736c10.38,34.39-40.49,50.69-52,16.68-10.41-34.34,40.46-50.68,52-16.68Z" fill="#fcb4b4"/><path d="M369.42,541.53c-30.73-60.41,9.34-130,76.61-135.82c88.75-6,124.57,104,84.05,171.17-19.88,29.32-34.52,76.65-27.67,107.59c3.4,18.45-12,19.68-20.45,4.22-33-72.77,5.59-100.57,12.86-163.68-3.27-99.36-107.51-65.16-112,13.79-.82,6.84-10.32,9.2-13.4,2.73Z" fill="#fcb4b4"/></g><g><path d="M1707.86,1676.25l1.13-.6c0,.8,1,3.55,1.77,3.55l33.45.68c.8,0,1.28-1.49,1.28-2.28l2.86-.81c.23-10.32-6-16.41-5.67-19c0,0,10.14-200,7-285-.77-20.65-81.79-34.22-80.81-23.42c7.26,79.79,45.39,300.2,45.39,300.2.522971,5.720431-.656429,11.46783-3.39,16.52-2.25,3.91-3.02,5.15-3.01,10.16Z" fill="#f99370"/><path d="M1562.85,1681.06h66.63c1.454707-.003455,2.844298-.603569,3.844191-1.660167s1.522521-2.477146,1.445809-3.929833c-7.37-33.79,26.41-207.33,26.25-326.57c0-3.14-72.23,5.3-75.31,41.4-5.55,65,17.9,251,17.9,251c2.24,19.49-18.53,21.52-31.79,24.1-5.27,1.33-10.78,3.38-13.35,7.32-1.129932,1.62612-1.261188,3.745871-.340497,5.498966s2.740355,2.848262,4.720497,2.841034Z" fill="#f99370"/><path d="M1754.65,1615.81c-.34,11.22-.57,17.87-.57,17.87-27.69,11.4-56.33.71-56.33.71l-1.93-16.47-30.45-260.27c-10.16,87.62-15.25,211.79-16.88,257.88-.4,11.51-.6,18.15-.6,18.15-3.7.85-7.31,1.51-10.78,2-26.49,3.76-45.4-2-45.4-2s-.78-6.52-2-18.15c-5.26-51.81-18.49-205.07-6.42-335.48c6.35-68.65,167.66-38.22,167.66-38.22s4,25.47,6.26,187.2c.9,61.41-1.43,149.42-2.56,186.78Z" fill="#eb5648"/><path d="M1606.23,1626.56c-19.63-189.44-.19-339.12,0-340.61l6.08.81c-.2,1.48-19.54,150.49,0,339.17Z" fill="#ce3932"/><path d="M1722.19,1627.71c-9.76-89.19-29.23-336.42-29.42-338.91l6.11-.48c.2,2.49,19.65,249.63,29.41,338.72Z" fill="#ce3932"/><path d="M1655.27,1131.58c-38.36,1.11-81.37-4.7-112-32.93-35.83-33-8.8-74.79,29.1-89.81c15.72-6.9,31.25-10.53,47.84-12.5c7.09-.58,18.91-3.39,19.65,6.95.106284,3.090039-1.553661,5.971673-4.28,7.43-15.64,9.49-64.77,27.86-57.36,48.26c5,13.6,51.79,15.73,76.22,18.24c35.56-.39,36.37,53.66.83,54.36Z" fill="#f99370"/><path d="M1583.34,1280.06c0,0,4.52,7.78,17.13,13.74s35.87,16.33,44.81,15.92s8.52-10.85,15.74-11.74s3.64,8.3,12.59,11.75s40.47-.46,80.47-21.17v-22.79Z" fill="#f4d4be"/><path d="M1657.83,1075.87l-40.44,43.23-11.16,11.9c-19,.86-44.19-8.51-62.84-23.2v0c-22.26-17.55-35.16-42.66-16.89-67c33.56-44.66,93.73-44.51,93.73-44.51c13.92,5.43,11.7,17.31,11.7,17.31-64.3,31.95-53.12,58.44-22.62,56.81s48.52,5.46,48.52,5.46Z" fill="#3a72aa"/><path d="M1617.39,1119.1l-11.16,11.9c-19,.86-44.19-8.51-62.84-23.2c21,12.93,52.84,19.28,57.08,15.25s15.32-13.75,15.32-13.75Z" fill="#23659b"/><path d="M1752.86,1277.4q-9.18,2.58-18,4.56c-89.94,20.44-151.53-1.91-151.53-1.91c4.67-69.4,8.69-177.75,65.52-201.86c9.41-4.44,26.7-.92,35.57-1.33c14.22,10.17,26.15,27.85,35.85,48.86c23.44,50.75,33.91,120.92,32.59,151.68Z" fill="#3a72aa"/><path d="M1636.72,1674.15c-.125481,1.06765-.332757,2.124088-.62,3.16-.639891,2.227926-2.682021,3.759524-5,3.75h-69.1c-1.660617.008424-3.222587-.787514-4.191754-2.136007s-1.225628-3.082707-.688246-4.653993v-.12c2.68-7.55,11.1-18.83,43.76-20.68c0,0,14.27,3.87,33,0c.708287,1.300775,1.297358,2.663001,1.76,4.07c1.36,4.05,1.82,10.55,1.08,16.61Z" fill="#1d3f70"/><path d="M1743.05,1681.06h-29.55c-1.780448.004024-3.485577-.718026-4.721696-1.999439s-1.896369-3.01141-1.828304-4.790561v-.12c.37-8.12,3.81-20.51,21.32-20.67s21,12.45,21.33,20.67v.14c.062493,1.775751-.600234,3.500493-1.835736,4.777493s-2.937418,1.996323-4.714264,1.992507Z" fill="#1d3f70"/><path d="M1557.18,1674.15h79.54c-.254847,2.426444-.996285,4.7766-2.18,6.91h-72.54c-1.660617.008424-3.222587-.787514-4.191754-2.136007s-1.225628-3.082707-.688246-4.653993Z" fill="#395b96"/><path d="M1743.05,1681.06h-29.55c-1.780448.004024-3.485577-.718026-4.721696-1.999439s-1.896369-3.01141-1.828304-4.790561v-.12h42.65v.14c.062493,1.775751-.600234,3.500493-1.835736,4.777493s-2.937418,1.996323-4.714264,1.992507Z" fill="#395b96"/><path d="M1635,1010.75c0,0,8.1-1.71,10.21-6.13c5.24-11,17.53-24.55,17.53-24.55s-4.33-3.34-11.44-1.15-21.14,16.64-21.14,16.64Z" fill="#f99370"/><path d="M1717.62,1324.05c2.94,2.34,7.26-3.84,10.68-4.36-.489754,3.583027-1.437501,7.088348-2.82,10.43-3.868102,5.415659-8.024079,10.61981-12.45,15.59-1.1,9.82,14.81-9.32,17.13-11.13l.1.05c-2.575677,6.411155-5.637941,12.615917-9.16,18.56.94,10.67,13.51-14.3,15.05-16.71v0c-1.335077,6.451626-3.482173,12.708109-6.39,18.62c2.26,10.46,12.41-15.47,13.2-18.48h.09c-.292024,5.23331-1.099261,10.425084-2.41,15.5c3.56,9.63,8.84-14.22,9.2-17c1.08-1.56,4.86-12,4.09-23.84-.26-3.89-14.12-7.82-16.11-4.58-1.49,2.43-8.14,5.93-9.46,7.14-2.93,1.92-12.21,6.26-10.74,10.21Z" fill="#f99370"/><path d="M1756.59,1309.7v0c-1.11,1.39-2.23,2.74-3.37,4.07l-15.34-7.12c0,0,.39-.9,1-2.63v-.07c3.45-9.67,13.93-44.36,6.28-90.6-8.2-49.49-47.35-77.9-52.47-126.92-.32-3-8.24-6.46-8.28-9.59c0,0,9.3,3.2,11.55,3.51c11.38,1.57,44.09,8.41,67.76,48.75c44.4,75.7,25.62,139.9-7.13,180.6Z" fill="#f99370"/><path d="M1752.86,1277.4q-9.18,2.58-18,4.56c3.21-22.68,2.21-52.56-1.51-73.89-4.22-24.15-31.71-71-31.71-71l18.63-11.32c23.44,50.72,33.91,120.89,32.59,151.65Z" fill="#23659b"/><path d="M1756.59,1309.7v0c0,0-6.71-5-17.7-5.68v-.07c.68-2.47,18.4-67.7-5.54-118.2-22.35-47.15-56.47-65-48.93-95.79.69-2.83-1.3-10.1,0-13.12c11.39,1.57,59.16,10.46,82.83,50.8c44.39,75.7,22.09,141.36-10.66,182.06Z" fill="#3a72aa"/><path d="M1645.19,1004.62c0,0-3.77-21.26,14.89-28.14l11.79,8.86Z" fill="#1d3f70"/><path d="M1657.83,1075.86c-.26-2-.42-4.09-.51-6.31-.5-12.82,1.49-28.73,2.53-34.67.064515-.821467.256829-1.627835.57-2.39.1-.37.2-.74.33-1.11c1.093183-3.784499,3.957418-6.801642,7.68-8.09v0c5.180783-1.666878,10.858684-.305261,14.72,3.53.08.08.15.17.21.24c2.546037,2.756535,3.656043,6.545356,3,10.24l-.09.59c0,.27-.1.53-.17.79-.61-.41-2.34,16.31-2.35,28.45-.081898,3.256398.135684,6.513431.65,9.73c24.92,7.46-37.68,16.2-26.57-1Z" fill="#f99370"/><path d="M1686.39,1037.3l-.09.59c0,.27-.1.53-.17.79-.61-.41-2.34,16.31-2.35,28.45-11.41,5.18-24.13,2.9-26.46,2.42-.5-12.82,1.49-28.73,2.53-34.67.31-1.4.53-2.22.57-2.39.1-.37.2-.74.33-1.11c1.241247-3.697558,4.051935-6.658296,7.68-8.09v0c5.162455-2.011708,11.031412-.604274,14.72,3.53.08.08.15.17.21.24c2.405015,2.835389,3.504888,6.552452,3.03,10.24Z" fill="#e57d61"/><path d="M1704.31,1026.13c-1.92,11.88-5.93,25.27-15.32,33.13v0c-3.856511,3.118634-8.43218,5.222548-13.31,6.12-27.46,7.93-60.37-24.75-38.58-48c7.34-6.71,9-17.85,14.19-25.13c23.32-31.13,59.39,1.48,53.02,33.88Z" fill="#f99370"/><path d="M1659,1018.8c-.450052-.886384-.096351-1.96978.790022-2.419855s1.969777-.096402,2.419875.789959.096452,1.969775-.789897,2.419896c-.425669.21617-.91978.254381-1.373623.106226s-.830239-.47054-1.046377-.896226Z" fill="#c16256"/><path d="M1643.83,1016.26c-.450052-.886384-.096351-1.96978.790022-2.419855s1.969777-.096402,2.419875.789959.096452,1.969775-.789897,2.419896c-.425669.21617-.91978.254381-1.373623.106226s-.830239-.47054-1.046377-.896226Z" fill="#c16256"/><path d="M1704.31,1026.13c-.13,1-.28,1.95-.46,2.93s-.36,1.8-.57,2.71c-.031902.111399-.055302.225059-.07.34-.23,1-.47,1.87-.69,2.77-.17.6-.33,1.2-.51,1.79s-.39,1.32-.6,1.95c-.678181,2.199271-1.46923,4.362139-2.37,6.48-.59,1.36-1.21,2.66-1.87,3.9-2.029171,3.922222-4.808355,7.408094-8.18,10.26v0c-.775828.646175-1.590703,1.243972-2.44,1.79c7.14-7.09,11.28-22.29,11.28-22.29l-1.68-12.87c-11.53-11.68-6.57-24.82-6.57-24.82-19.28,5.41-25.78-6.49-25.78-6.49-6.09.79-12.51-2.28-12.51-2.28.53-.8,1.07-1.55,1.63-2.27c1.279851-1.661231,2.731198-3.182967,4.33-4.54c1.344809-1.163272,2.817616-2.169746,4.39-3c1.029264-.533967,2.099291-.985385,3.2-1.35l.32-.1c2.656146-.799279,5.429612-1.137506,8.2-1c2.110155.097621,4.206252.395628,6.26.89c5.003831,1.18037,9.593582,3.696438,13.28,7.28.139217.150763.286076.294285.44.43c2.724576,2.746395,4.984102,5.917837,6.69,9.39c4.171726,8.738045,5.661067,18.516191,4.28,28.1Z" fill="#e57d61"/><path d="M1698.4,995.17c0,0-14.06,6.37-.52,28l8.81,7.31c0,0,19.97-31.48-8.29-35.31Z" fill="#1d3f70"/><path d="M1649.55,1031.9c-2.39,0-5-1-5.62-2.49-.21-.48-.48-1.69,1.37-2.7c3.4-1.84,5.9-8.88,5.92-9c.131437-.349749.514385-.534621.87-.42.353527.127273.540231.514017.42.87-.11.31-2.7,7.61-6.56,9.7-.44.24-.93.6-.77,1c.44,1,3.67,2.18,6,1.45.235732-.095512.505059-.051484.698105.114122s.277533.425102.218993.67262-.25032.441674-.497098.503258c-.66286.20913-1.355011.310421-2.05.3Z" fill="#c16256"/><path d="M1711.86,1032.13c-1.21,5.7-5.91,9.54-10.5,8.57s-7.33-6.38-6.12-12.08s5.9-9.54,10.49-8.57s7.34,6.38,6.13,12.08Z" fill="#f99370"/><path d="M1707.57,1034.92h-.2c-.172402-.053026-.316674-.172376-.401068-.331788s-.101996-.345821-.048932-.518212c1.22-4,1.18-6.76-.12-8-1.73-1.61-5.3-.25-5.33-.24-.229614.113305-.50341.088024-.708394-.065411s-.306402-.409008-.2624-.661247.225966-.458376.470794-.533342c.18-.07,4.39-1.69,6.75.5c1.74,1.61,1.91,4.76.5,9.37-.087807.285339-.351457.480034-.65.48Z" fill="#c16256"/><path d="M1701.22,1034c-.093228-.000706-.185248-.021155-.27-.06-.344693-.146832-.505676-.544817-.36-.89.1-.23,2.5-5.75,7.71-6.09.375554-.024853.700147.259446.725.635s-.259446.700147-.635.725c-4.36.29-6.52,5.22-6.55,5.27-.109103.245816-.351091.405841-.62.41Z" fill="#c16256"/><path d="M1698.84,974.33c-.738921-.942052-1.592136-1.788549-2.54-2.52-9.57-7.41-14.09-19.93-14.09-19.93s-6,7.6-8.3,16.5c-3.822363-4.586325-7.225978-9.506006-10.17-14.7-2.602931,3.905117-4.420115,8.279945-5.35,12.88-4.176072-3.790522-9.26589-6.430198-14.77-7.66-9.15,25.56,11.6,30.11,20.71,30.9c9.11,10.49,25.12,11.5,34.16,7.26l10.59,13.69c16.79-25.81-1.81-34.09-10.24-36.42Z" fill="#1d3f70"/><path d="M1665.37,1357.65c-10.16,87.62-15.25,211.79-16.88,257.88-.4,11.51-.6,18.15-.6,18.15-3.7.85-7.31,1.51-10.78,2v0c0,0,.17-6.56.48-17.53c1.43-51.29,5.8-198.94,9.67-223c4.65-29.15,18.11-37.5,18.11-37.5Z" fill="#ce3932"/><path d="M1648.49,1615.53c-.4,11.51-.6,18.15-.6,18.15-3.7.85-7.31,1.51-10.78,2-26.49,3.76-45.4-2-45.4-2s-.78-6.52-2-18.15c0,0,16.54,8.69,47.79,2.61c3.5-.68,7.16-1.54,10.99-2.61Z" fill="#ce3932"/><path d="M1754.65,1615.81c-.34,11.22-.57,17.87-.57,17.87-27.69,11.4-56.33.71-56.33.71l-1.93-16.47c0,0,30,11.55,58.83-2.11Z" fill="#ce3932"/><path d="M1657.83,1075.86c-3.305617-2.335403-7.342497-3.400543-11.37-3s-8.82,14.79,4.6,22.62c0,0,2.21-6.91,9-8.17c0,0-2.11,6.57-1.35,10.6c0,0,18.37-.72,30.21-10.44c2.768954-2.411129,5.150182-5.234199,7.06-8.37-3.426289-2.231665-7.591817-3.028861-11.6-2.22s-10.82,8.6-21,7.21c-8.58-1.19-5.55-8.23-5.55-8.23Z" fill="#f4d4be"/><path d="M1652.85,1044.74c-.511727.004833-1.015562-.126302-1.46-.38-.926766-.579957-1.509822-1.577879-1.56-2.67-.081312-1.207706.208279-2.41143.83-3.45c1.36-2.35,3.9-3.44,5.66-2.42s2.09,3.76.73,6.11c-.815679,1.603671-2.406424,2.667955-4.2,2.81Zm2-8c-1.292681.187015-2.412634.993381-3,2.16-.48655.802112-.7168,1.733577-.66,2.67.009007.667389.350347,1.286301.91,1.65c1.12.65,2.89-.25,3.86-1.94s.87-3.68-.24-4.33c-.268612-.149152-.572983-.221785-.88-.21Z" fill="#c16256"/><path d="M1667.91,1016.84c-.349442.000642-.638822-.2712-.66-.62-.039002-4.198935-2.37723-8.038389-6.09-10-.241719-.07599-.418596-.283655-.455157-.534385s.073646-.500259.283599-.642112.482582-.150987.701558-.023503c4.179156,2.126016,6.827623,6.401344,6.87,11.09.010917.173135-.048918.343284-.1658.471477s-.280796.203446-.4542.208523Z" fill="#c16256"/><path d="M1644.88,1010.8c-.158181.001641-.311366-.055358-.43-.16-.134879-.112595-.218432-.274997-.231619-.450201s.045114-.348282.161619-.479799c.17-.19,4.13-4.7,9.48-4.7.364508,0,.66.295492.66.66s-.295492.66-.66.66c-4.75,0-8.45,4.2-8.49,4.24-.122124.144264-.300995.228224-.49.23Z" fill="#c16256"/></g><g><path d="M567.8,1080.12c19.12,24.9,27.89,53.78,47.36,77.33c1.34,1.18-9.48-58.41-15.91-92.36-2.12-11.23,7-14,7-14c34.06,19.76,91.24,131.25,18.69,153.56-53.32,12-77.75-57.92-103-91.52-20.48-29.94,24.06-61.89,45.86-33.01Z" fill="#f99370"/><path d="M667.74,1171.29c-.46,16.61-11.93,41.17-43.84,41.17-3.907489.011006-7.791014-.610357-11.5-1.84-13.72-4.56-24.27-17.17-32.5-33.34-17.73-34.84-24.7-86.17-29.47-108.76c24.72,2.7,54.88,47.19,62.26,72.36-.86-3.14-7.8-32.68-10-51.49-.403561-3.118022-.63059-6.256359-.68-9.4c2.22.12,14.92.61,23.77-10.68.42.51,2.89,3.31,6.42,8c11.8,15.56,35.56,51.99,35.54,93.98Z" fill="#1d3f70"/><path d="M612.4,1210.62c-13.72-4.56-24.27-17.17-32.5-33.34l-2.41-68.35c0,0,31.36,43.98,34.91,101.69Z" fill="#163356"/><path d="M540.06,1066.53c.28-2.11.46-4.39.55-6.77.54-13.76-1.6-30.81-2.71-37.19-.064552-.877324-.270544-1.738438-.61-2.55-.1-.41-.22-.8-.35-1.19-1.172301-4.060816-4.245602-7.298226-8.24-8.68v0c-5.554852-1.78744-11.642839-.325243-15.78,3.79-.09.08-.16.17-.24.25-2.733572,2.962094-3.928126,7.030234-3.23,11c0,.21.06.43.1.63s.11.57.17.85c.67-.43,2.52,17.49,2.53,30.51.089826,3.490835-.144513,6.982474-.7,10.43-26.7,7.99,53.58,34.31,28.51-1.08Z" fill="#f99370"/><path d="M560.34,1002.25c0,0,1.43-14.79-2-25.48l-8.9,3.17Z" fill="#8e4a35"/><path d="M555.66,1045.44c-14.61,11.33-43.53,10-52.26-1.93-32.6-44.7,31.38-122.83,52.53-52c7.65,20.37,23.79,31.98-.27,53.93Z" fill="#f99370"/><path d="M539.77,1004.69c.423663-.641477.419026-1.475039-.011746-2.111763s-1.202782-.951124-1.955827-.796507-1.338711.74778-1.48374,1.50273.179162,1.5229.821313,1.94554c.875542.57625,2.052356.334623,2.63-.54Z" fill="#c16256"/><path d="M556,1003.85c.57901-.873884.340849-2.051599-.532218-2.631839s-2.051117-.343738-2.632586.528511-.346626,2.050631.524804,2.633328c.876057.579166,2.055358.342412,2.64-.53Z" fill="#c16256"/><path d="M549.16,1019.62c-1.084127.028359-2.161717-.176247-3.16-.6-.358985-.162924-.517924-.586015-.355-.945s.586015-.517924.945-.355c2.31,1,5.83.22,6.42-.8.21-.37-.26-.8-.69-1.1-3.8-2.66-5.64-10.63-5.71-11-.044707-.185809-.012619-.381795.089008-.543646s.264211-.275898.450992-.316354c.385412-.081534.765997.157438.86.54c0,.08,1.79,7.77,5.13,10.11c1.82,1.27,1.39,2.51,1.12,3-.7,1.26-2.91,2-5.1,2.01Z" fill="#c16256"/><path d="M554.15,986.17c-9.8-6.61-28.48-3.37-37.71-4.51c0,0,.16,15.81-16.84,25.13-3,14.18-6,20.17,6.69,39.35v0c-1.021545-.810485-1.987083-1.689159-2.89-2.63v0c-40.26-50.84,26.13-120.68,50.75-57.34Z" fill="#e57d61"/><path d="M565.56,956.36c-4.55-12.27-21.25-20.56-37.93-8-12.84,9.71-25.33,8.2-26.4,19.85-24.44,7.9-15.83,34.83-15.83,34.83l11.8-.05c14.53-9.26,15.93-25.14,15.93-25.14v0c2.945455.538635,5.953546.646428,8.93.32c8.83-1.21,21.63-.82,30.89,3.84s17.7-11.95,12.61-25.65Z" fill="#8e4a35"/><path d="M568.25,1025.19v0c0-.29-.07-.56-.12-.82-9.85-7.1-20.17-3.85-29.88.36-10.42,4.53-20.13,10.15-27.78,5.24l-.22-.14c-8.93-6.62-8.05-17.71-6.4-25.75.82-4,1.84-7.26,1.91-8.8v0L497.2,1003l-2.68,11.49v0l-.19.79v.06v0l-1.68,7.16v0v0c-2.13,16.56,7.67,25.95,19.56,31.19c8.33,3.67,17.69,5.3,24.67,5.92c1.226568.242187,2.470526.385978,3.72.43c15.83.65,25-14.66,27.27-26.84.291066-1.555008.468204-3.129193.53-4.71.033921-1.102213-.016224-2.205409-.15-3.3Zm-29.34,4.27c8.68-6.1,21.37-10.14,22.84,1.89-4,6.79-13.15,8.15-21.82,7.69-3.016599-.161634-6.021496-.495512-9-1c.7-2.38,3.89-5.71,7.98-8.58Z" fill="#8e4a35"/><path d="M482.67,1012.29c.58,6.13,5,10.72,10,10.26s8.47-5.81,7.89-11.94-5-10.72-10-10.26-8.47,5.81-7.89,11.94Z" fill="#f99370"/><path d="M495.16,1005.67c-.18-.1-4.4-2.3-7.14-.29-.729473.559704-1.273154,1.326433-1.56,2.2s0,0,0,0c-.65,1.77-.69,4.29-.09,7.55.059069.344683.360329.595025.71.59h.12c.188535-.034032.355732-.1418.464587-.299452s.15039-.352186.115413-.540548c-.44618-1.969481-.510677-4.006235-.19-6c4,1.2,5.56,6.1,5.58,6.15.085929.309435.368867.522663.69.52h.2c.182453-.053196.335962-.177318.426176-.34459s.109602-.36373.053824-.54541c-.07-.25-1.73-5.66-6.46-7.1.188677-.386064.458088-.727091.79-1c2-1.48,5.59.38,5.63.4.228811.143759.518853.147295.751101.009157s.367593-.394689.350495-.664372-.183762-.507085-.431596-.614785Z" fill="#c16256"/><path d="M462.82,1208.17h-4.67c.12-.86.19-1.3.19-1.3l.58.17c1.13.34,2.26.67,3.4,1Z" fill="#e8c0a6"/><path d="M549.14,1030.74c-.089994-.000892-.178715-.021366-.26-.06-.154111-.065967-.275577-.190635-.337511-.346411s-.059232-.329812.007511-.483589c.07-.17,1.78-4,7.13-4.51.22865-.021436.451367.08074.584256.268038s.155761.431266.06.64-.295606.350526-.524256.371962c-2.546426.071453-4.862512,1.492341-6.08,3.73-.099014.23341-.326483.386363-.58.39Z" fill="#c16256"/><path d="M556.26,997.15c-.046161.009712-.093839.009712-.14,0-3.766338-.793491-6.963416-3.264965-8.68-6.71-.06652-.156455-.068056-.332948-.00427-.490538s.187653-.283324.34427-.349462c.323106-.139739.698409.007701.84.33c1.567713,3.061043,4.421066,5.261573,7.78,6c.309481.078725.513573.373539.478308.690923s-.299094.560207-.618308.569077Z" fill="#c16256"/><path d="M532.26,999.18c-.124718-.002852-.246074-.040992-.35-.11-.293812-.191684-.378553-.584169-.19-.88c2.288438-3.105344,5.782364-5.099279,9.62-5.49.351131-.035887.66835.21084.72.56.041085.350606-.20947.668273-.56.71-3.452282.369171-6.599609,2.145421-8.7,4.91-.119204.183264-.321423.295608-.54.3Z" fill="#c16256"/><path d="M487.12,1676.18l-1.14-.6c0,.8-1,3.59-1.8,3.59l-33.88.7c-.81,0-1.3-1.51-1.3-2.31l-2.89-.83c0-5.08.42-6.92,2.66-10.84c8.24-10.89-1.6-60-1.31-72.72-2-3.5,35.68-.75,36.21-1.58.405311.001624.791706.171662,1.066702.469416s.413839.696422.383298,1.100584l-4.44,56c-1.6,13.09,6.41,16.7,6.44,27.02Z" fill="#f99370"/><path d="M634,1681.06h-67.5c-5.89-.24-5.84-6.25-4.76-10.91c3.72-16.8-2.85-55.37-4.07-72.65-.152617-1.509995.340849-3.01406,1.358338-4.140156s2.463974-1.769058,3.981662-1.769844h29.79c1.532764.000473,2.991994.657124,4.008882,1.803991s1.494135,2.67421,1.311118,4.196009l-5.41,43.2c-2.08,20,18.6,21.67,32.2,24.43c5.34,1.34,10.93,3.42,13.53,7.4c1.139401,1.647654,1.269003,3.791915.336344,5.564807s-2.773105,2.880776-4.776344,2.875193Z" fill="#f99370"/><path d="M559.19,1674.05c.18,3.31,1.82,7.09,5.66,7h70c17.46-5.36-8.1-29.8-39.63-28-2.49.59-18.41,2.73-32.38.79.02.06-3.94,13.38-3.65,20.21Z" fill="#103663"/><path d="M451.48,1681.06h29.93c14.45-1.64,4.32-27.76-15-28s-29.41,26.39-14.93,28Z" fill="#103663"/><path d="M618.17,1671.58c.607228.002456,1.154344-.366252,1.38-.93c2.72-6.71,7.7-8.73,7.75-8.75.764914-.303757,1.138757-1.170086.835-1.935s-1.170086-1.138757-1.935-.835c-.25.1-6.21,2.53-9.4,10.4-.180444.457638-.125028.974668.148305,1.383669s.729838.657987,1.221695.666331Z" fill="#e8c0a6"/><path d="M606.61,1670.19c.639721.008626,1.212562-.394783,1.42-1c1.580162-4.745747,4.832262-8.754894,9.15-11.28.705173-.393069.969023-1.276247.595027-1.991719s-1.249773-1.002935-1.975027-.648281c-5.019698,2.875585-8.798713,7.505858-10.61,13-.131263.449891-.044713.935278.233958,1.312073s.717434.60169,1.186042.607927Z" fill="#e8c0a6"/><path d="M593.46,1668.57c.631412-.003022,1.192359-.403698,1.4-1c1.809824-4.943296,5.029277-9.24749,9.26-12.38.623206-.475508.771393-1.352578.339003-2.006437s-1.297469-.860867-1.979003-.473563c-4.793347,3.472545-8.428224,8.309754-10.43,13.88-.154018.455955-.079905.958123.199263,1.350146s.729484.626289,1.210737.629854Z" fill="#e8c0a6"/><path d="M455.71,1662c11.4-6.42,21.48,2,23.08-.87c1.34-3-13.53-7.53-23.83-1.9-.574093.342021-.850258,1.024434-.675611,1.669462s.757382,1.094886,1.425611,1.100538Z" fill="#e8c0a6"/><path d="M639.76,1674.05h-80.57c.264613,2.456919,1.015892,4.836536,2.21,7h73.47c1.700853-.000931,3.294173-.832028,4.268211-2.226357s1.206152-3.176326.621789-4.773643Z" fill="#0f2e54"/><path d="M451.48,1681.06h29.93c1.823487-.000064,3.566699-.750035,4.820635-2.073949s1.908229-3.105246,1.809365-4.926051h-43.2c-.09896,1.822541.556674,3.605453,1.812802,4.929685s3.001975,2.073,4.827198,2.070315Z" fill="#0f2e54"/><path d="M442.74,1642.87c0,0,31.91,7.75,48.36-.58c8.55-53.67,32.31-203.11,40.59-305.51.31,6,17.7,246.79,21,305.51c11.35,3.8,34.18,8.38,46.95-.82c5.74-61.82,24.17-265.35-3.59-431.57c0,0-76.06,8.46-135.46-9.49-16.34,52.72-20.67,379.18-17.85,442.46Z" fill="#eb5648"/><path d="M587.37,1636.34c15.44-178.63-2.82-330.6-7.39-332.3-3.35.77,15.73,155.31,7.39,332.3Z" fill="#ce3932"/><path d="M467.85,1636.34c10.64-183,37.51-353.69,34.34-356.14-4.08-.2-31.34,174.29-34.34,356.14Z" fill="#ce3932"/><path d="M449.53,1272.18q4.08,5,8.68,9.94c0,0,15,2.81,26.65-12.76-47.7-103.15,44.27-108.79,26-200.57-61.56,7.27-147.2,99.15-61.33,203.39Z" fill="#1d3f70"/><path d="M449.53,1272.18q4.08,5,8.68,9.94c0,0,15,2.81,26.65-12.76-1.4-5-3.48-7.9-4.94-12c0-.05-8.92,10.4-30.39,14.82Z" fill="#163356"/><path d="M457.14,1284.12c25.7,1.56,38.4-25.58,28-19.22-.26.68-6.55,16.29-30.25,15.26-3.72.74-2.18,4.77,2.25,3.96Z" fill="#ce3932"/><path d="M607.12,1281.35c0,0-4.65,19.93-41.83,29.76-10.64,2.82-16.8,1.43-18.36-6-.78-3.7-2.81-10.16-6.53-12.55c0,0-8.32,3.6-11.46,8.69-6.88,11.18-17.25,1-22.29-10.67-6.25-14.47-22.06-26.72-25.52-38.86Z" fill="#f4d4be"/><path d="M455.62,1256.72c1.21,2.14,1.93,1.8,3.17.56c33.41-24.94,45.35,29.56,81.34,30.53c36.64,3.63,57,5.7,67-6.46c17.42-27-10.28-147.7-32.69-176.93-9.82-15.19-25-30-34.37-37.89.19.79,3.62,21.62-28.52,1.06-1.61.68-12.49,11.82-11.85,17.14-1.64,24.44-59.62,144.54-44.08,171.99Z" fill="#1d3f70"/><path d="M475,1264.39l7.32-1.52C453,1197,487.43,1169.1,505.64,1132C463.4,1180.85,457,1207.64,475,1264.39Z" fill="#163356"/><path d="M501,1070.56c-.17,12.26,31.28,23.08,33.07,23.1l3.77-11.16c4.84,1.2,9.1,8,9.1,8c13.06-12.74,6.79-20.39,3.52-22-3.78-1.81-10.37-2-10.37-2c.2.79.71,19.69-28.52,1.06-3.79-1.71-10.57,3-10.57,3Z" fill="#f4d4be"/><path d="M552.7,1642.29c3.219672,1.097172,6.510705,1.972554,9.85,2.62s-16-239-18.43-270.88-12.43-37.25-12.43-37.25s21.31,300.35,21.01,305.51Z" fill="#ce3932"/><path d="M552.06,1630.7c.43,6.9.67,11,.64,11.59c11.35,3.8,34.18,8.38,46.95-.82c0,0,.41-3.79,1.07-10.77c0,0-22.38,10.3-48.66,0Z" fill="#ce3932"/><path d="M442.74,1642.87c0,0,31.91,7.75,48.36-.58c0,0,.67-4.15,1.86-11.59c0,0-22.48,6.31-50.61,0-.13,7.3.49,11.57.39,12.17Z" fill="#ce3932"/><path d="M632.19,1077.29c-9.34,9.84-22.73,11.78-29.51,12.1-.403561-3.118022-.63059-6.256359-.68-9.4c2.22.12,14.92.61,23.77-10.68.42.51,2.89,3.31,6.42,7.98Z" fill="#163356"/><path d="M625.77,1069.31L602,1080c-.18-.09.3-10.7-6.3-12.54-7.27-2-14.42-10.66-14.27-11-2.28,5.84-13.36-5.26-9.59-7.34-2.53-2.33-.83-5,2.34-6.52-2.12-2,.14-4.49,3.19-5.47-3.444264-1.753445-7.05566-3.157132-10.78-4.19-5.62-1.73-1.91-5,1.42-4.38c27.15,4.69,38.99,15.56,57.76,40.75Z" fill="#f99370"/></g><g><path d="M1323.22,1766.47l59.29-30c-1.83-2.91-9.13-9.2-13-22.22-20.67-70.32-53.44-138-58.53-148.83l-54.94,11.37L1342.49,1720c3.300003,4.898658,2.662536,11.449476-1.52,15.62-8.84,9.6-21.61,13.85-25,25.51-.296264,1.871217.475464,3.751497,2.000874,4.87504s3.549973,1.302876,5.249126.46496Z" fill="#f99370"/><path d="M1381.41,1729.77c.806841,2.12103,1.180859,4.382133,1.1,6.65l-60.19,30.51c-1.377175.706683-3.010623.705863-4.387087-.002203s-2.326993-2.036467-2.552913-3.567797c-1-7.61,2.21-21,29.22-36.51c0,0,10.86-2,25-12.65-.05,0,8.67,6.89,11.81,15.57Z" fill="#eb5648"/><path d="M1332,1752.25c-.492379.24605-1.08452.171046-1.5-.19-5-4.33-9.78-4-10-4-.714669.009079-1.316236-.532772-1.381652-1.244499s.427301-1.354155,1.131652-1.475501c.24,0,6.14-.51,12,4.61.361583.29541.549268.753625.498813,1.217806s-.332204.87137-.748813,1.082194Z" fill="#e8c0a6"/><path d="M1340.92,1746.31c-.532384.253918-1.167293.141403-1.58-.28-3.273218-3.219757-7.597708-5.15122-12.18-5.44-5.72-4.25,7.88-3.49,14.14,3.54.303708.314765.438862.755627.363752,1.186526s-.351458.800031-.743752.993474Z" fill="#e8c0a6"/><path d="M1351,1739.52c-.518351.247328-1.135695.147756-1.55-.25-3.533519-3.301358-7.961021-5.489024-12.73-6.29-5.21-4.85,8-2.47,14.63,4.32.318516.312381.466368.759473.39689,1.200163s-.347714.820605-.74689,1.019837Z" fill="#e8c0a6"/><path d="M1315.37,1763.24l66-33.47c.806841,2.12103,1.180859,4.382133,1.1,6.65l-60.19,30.51c-1.391699.701542-3.037698.682145-4.412478-.052s-2.306437-2.091238-2.497522-3.638Z" fill="#ce3932"/><path d="M1134.75,1765.08l67.43-.18c1.14-3.56-2.65-19.79-1.58-25.68c22.68-125.18,19.45-169.6,19.83-174.56l-64.36-5l17.76,172.51c.743981,5.8585-2.76372,11.423885-8.37,13.28-12.5,4.93-27.77,2.25-34.88,13.26-.64242,1.405527-.518678,3.042381.327743,4.335355s2.297101,2.061173,3.842257,2.034645Z" fill="#f99370"/><path d="M1204.19,1758.46c-.225375,2.259611-.905695,4.450243-2,6.44l-67.47.19c-1.548081.008724-3.005335-.729735-3.913763-1.983286s-1.156495-2.868287-.666237-4.336714c2.54-7.24,11.4-17.76,42.49-19.47c0,0,10.59,3.12,28-.08-.03,0,4.65,10.07,3.56,19.24Z" fill="#eb5648"/><path d="M1149.11,1756c-2.27-5.5-7.34-8.84-7.53-8.55-.6364-.316524-.925044-1.067171-.664667-1.72853s.983292-1.013756,1.664667-.81147c.23.09,5.72,2.31,8.68,9.53.213452.579816.015494,1.230851-.484592,1.593704s-1.180412.349085-1.665408-.033704Z" fill="#e8c0a6"/><path d="M1159.73,1754.7c-2.06-6.41-8.69-11.3-8.86-11-.63471-.366125-.868971-1.166861-.531679-1.817352s1.126715-.920428,1.791679-.612648c4.637551,2.646141,8.123953,6.923933,9.78,12c.157308.57308-.072791,1.182227-.569702,1.508182s-1.147302.294378-1.610298-.078182Z" fill="#e8c0a6"/><path d="M1171.81,1753.18c-3.14-9.07-10.61-11.62-9.34-13.83c1.86-2.16,8,3.71,11.51,12.33.199583.580646-.011524,1.22317-.516593,1.572296s-1.180739.319582-1.653407-.072296Z" fill="#e8c0a6"/><path d="M1130.16,1758.66l74-.2c-.225375,2.259611-.905695,4.450243-2,6.44l-67.47.19c-1.564796.00033-3.031952-.760542-3.933172-2.039756s-1.123849-2.916868-.596828-4.390244Z" fill="#ce3932"/><path d="M1183.76,1274.26c-83.84-18.52-133.18-101.89-133.79-184-.38-9.55,13.58-12.81,17.52-4.24c31,69.06,52.8,114.17,129.14,138.37c32.59,8.53,19.79,58.14-12.87,49.87Z" fill="#f99370"/><path d="M1238.43,1224.22c96.65,3.56,197.4,103.74,68.36,156.92-13.14,4.94-17.93-9.86-7.85-17.82c76.27-60.22-14.24-79.45-66.38-87.9-33.19-4.79-27.47-54.07,5.87-51.2Z" fill="#f99370"/><path d="M1369.35,1303.75c-.334572,1.723102-.967406,3.374562-1.87,4.88.48-.8-30.18-2.54-39.83,10.41-4.81-.11-15-4.7-19.85-11-8.55-9.42-26.38-16.28-34.54-19.32l-41.48-79c20.22-7.84,144.39,34.98,137.57,94.03Z" fill="#1d3f70"/><path d="M1151.67,1559.68c.72,8.67,1.26,13.74,1.26,13.74c85,31,166.91.41,166.91.41-.1-3.53,0-7.15.17-10.85c1.9-37.64,16.81-84,10.2-130.83-7.27-51.4-25.22-79.65-25.22-79.65l-141.21,7.55c-22.12,50.65-15.34,160.95-12.11,199.63Z" fill="#3a72aa"/><path d="M1072.72,1061.8c-3.67-.73-4,8.16-6.42,10.54-1.71239-3.718419-2.994046-7.620422-3.82-11.63c0-7.46.47-14.9,1.24-22.33-4.71-10.32-7.09,18.12-7.84,20.86h-.11c-1.63683-7.644413-2.742804-15.392914-3.31-23.19-7.17-9.53-2.86,22-2.76,25v0c-2.70496-6.957604-4.607262-14.201113-5.67-21.59-8.08-9-1.22,22.72-.15,25.53h-.07c-2.873193-5.184735-5.27613-10.616445-7.18-16.23-8.73-7.26,1.11,19.31,2.36,21.76c0,2.13,4.22,12.24,11.93,23.12c2.53,3.56,13.94-.8,15.78-4.67c1.73-3.64,2.67-9,3.06-11c1.33-3.6,6.55-13.44,2.96-16.17Z" fill="#f99370"/><path d="M1302.2,1568.8c0-.35-3.29-34.83,2.35-97.21c5.55-61.37-17.77-117.44-18-118l5.17-2.19c.25.57,24.11,57.88,18.43,120.7-5.59,61.78-2.39,95.81-2.36,96.15Z" fill="#23659b"/><path d="M1168.88,1571.8c-13.39-98.9,8.63-213.19,8.86-214.33l5.51,1.08c-.22,1.13-22.06,114.54-8.8,212.49Z" fill="#23659b"/><path d="M1192.29,1576.91c-4.7-74.73,5.58-215.35,5.68-216.76l5.61.41c-.1,1.41-10.35,141.65-5.68,216Z" fill="#23659b"/><path d="M1217.54,1576.74c0-.55-.11-56.27,4.12-104.18c4.19-47.56,0-111.38,0-112l5.6-.37c0,.64,4.23,64.89,0,112.89-4.2,47.66-4.09,103.11-4.09,103.67Z" fill="#23659b"/><path d="M1253.28,1576.83c0-.53-1.77-53.37,0-104.12c1.75-50.38-8.33-112.48-8.43-113.1l5.55-.91c.1.63,10.27,63.28,8.49,114.21-1.76,50.55,0,103.21,0,103.73Z" fill="#23659b"/><path d="M1278.07,1571.77c-2.15-23-1.58-46.18-.79-78.21.24-9.8.51-20.92.73-33.1.93-50.92-13-102.47-13.1-103l5.43-1.48c.14.52,14.24,52.81,13.29,104.56-.22,12.2-.49,23.33-.73,33.14-.82,33-1.36,54.84.77,77.54Z" fill="#23659b"/><rect width="24.19" height="31.14" rx="0" ry="0" transform="matrix(.995741-.092197 0.092197 0.995741 1204.95526 1182.863715)" fill="#f99370"/><path d="M1249.31,1157.79c2.41,47.48-74.1,47.57-71-.62.17-9.51,3-16.09,3.15-31.25.44-35.09,49.67-41.51,57.48-5.58c3.06,14.17,9.26,24.26,10.37,37.45Z" fill="#f99370"/><path d="M1332.22,1314.79c-1.639533,1.28634-3.16823,2.707995-4.57,4.25s-10.82-.56-19.85-11c-7.32-8.47-25.41-15.89-32-18.41l7-22.17c0,0,18.47,16.75,28,33.23c9.27,16.04,20.9,14.17,21.42,14.1Z" fill="#103663"/><path d="M1305,1352.5c0,0-57.92,21.39-141.22,7.55-1.9-20.09-1.91-58.62,3.3-83.74c11.05-82.69,106.87-108.25,123.07,25.14c3.74,22.38,6,32.61,14.85,51.05Z" fill="#1d3f70"/><path d="M1207.73,1212.47l-40.66,63.84c-52.1-15.25-114-62.35-107.59-103.18v0c.710042-3.055597,2.048437-5.92991,3.93-8.44c22.67.15,34.93-17.13,34.93-17.13c35.66,8.1,31.83,59.76,109.39,64.91Z" fill="#1d3f70"/><path d="M1185,1107.67c0,0-18.22,6,1.16,35.21c12,18-18.58,45.33,5.93,69.8c56.87,74.79,219.31,36.8,130.76-43.56-26.55-14.28-25.4-28.89-34.31-47.24-11.87-24.45-65.7-70.41-103.54-14.21Z" fill="#662948"/><path d="M1369.35,1303.75c-.334572,1.723102-.967406,3.374562-1.87,4.88.48-.8-30.18-2.54-39.83,10.41-2.70256-.281538-5.342627-.993883-7.82-2.11s19.03-25.42,49.52-13.18Z" fill="#103663"/><path d="M1109,1151.77c-26.74,29.8-49.49,21.36-49.49,21.36.710042-3.055597,2.048437-5.92991,3.93-8.44c22.67.15,34.93-17.13,34.93-17.13c4,.29,7.46,2.33,10.63,4.21Z" fill="#103663"/><path d="M1180.5,1265.29c-.53,1.41-17.38,46.74-17.5,77.07-.58-18.1.18-45.7,4.08-66c.36-.11,4.92-2.03,13.42-11.07Z" fill="#103663"/><path d="M1151.67,1559.68c.72,8.67,1.26,13.74,1.26,13.74c85,31,166.91.41,166.91.41-.1-3.53,0-7.15.17-10.85v0c0,0-90.5,26.55-168.34-3.3Z" fill="#23659b"/></g></g></g><script><![CDATA[!function(t,n){"object"==typeof exports&&"undefined"!=typeof module?module.exports=n():"function"==typeof define&&define.amd?define(n):((t="undefined"!=typeof globalThis?globalThis:t||self).__SVGATOR_PLAYER__=t.__SVGATOR_PLAYER__||{},t.__SVGATOR_PLAYER__["5c7f360c"]=n())}(this,(function(){"use strict";function t(t,n){var e=Object.keys(t);if(Object.getOwnPropertySymbols){var r=Object.getOwnPropertySymbols(t);n&&(r=r.filter((function(n){return Object.getOwnPropertyDescriptor(t,n).enumerable}))),e.push.apply(e,r)}return e}function n(n){for(var e=1;e<arguments.length;e++){var r=null!=arguments[e]?arguments[e]:{};e%2?t(Object(r),!0).forEach((function(t){o(n,t,r[t])})):Object.getOwnPropertyDescriptors?Object.defineProperties(n,Object.getOwnPropertyDescriptors(r)):t(Object(r)).forEach((function(t){Object.defineProperty(n,t,Object.getOwnPropertyDescriptor(r,t))}))}return n}function e(t){return(e="function"==typeof Symbol&&"symbol"==typeof Symbol.iterator?function(t){return typeof t}:function(t){return t&&"function"==typeof Symbol&&t.constructor===Symbol&&t!==Symbol.prototype?"symbol":typeof t})(t)}function r(t,n){if(!(t instanceof n))throw new TypeError("Cannot call a class as a function")}function i(t,n){for(var e=0;e<n.length;e++){var r=n[e];r.enumerable=r.enumerable||!1,r.configurable=!0,"value"in r&&(r.writable=!0),Object.defineProperty(t,r.key,r)}}function u(t,n,e){return n&&i(t.prototype,n),e&&i(t,e),t}function o(t,n,e){return n in t?Object.defineProperty(t,n,{value:e,enumerable:!0,configurable:!0,writable:!0}):t[n]=e,t}function a(t){return(a=Object.setPrototypeOf?Object.getPrototypeOf:function(t){return t.__proto__||Object.getPrototypeOf(t)})(t)}function l(t,n){return(l=Object.setPrototypeOf||function(t,n){return t.__proto__=n,t})(t,n)}function s(){if("undefined"==typeof Reflect||!Reflect.construct)return!1;if(Reflect.construct.sham)return!1;if("function"==typeof Proxy)return!0;try{return Boolean.prototype.valueOf.call(Reflect.construct(Boolean,[],(function(){}))),!0}catch(t){return!1}}function f(t,n,e){return(f=s()?Reflect.construct:function(t,n,e){var r=[null];r.push.apply(r,n);var i=new(Function.bind.apply(t,r));return e&&l(i,e.prototype),i}).apply(null,arguments)}function c(t,n){if(n&&("object"==typeof n||"function"==typeof n))return n;if(void 0!==n)throw new TypeError("Derived constructors may only return object or undefined");return function(t){if(void 0===t)throw new ReferenceError("this hasn't been initialised - super() hasn't been called");return t}(t)}function h(t,n,e){return(h="undefined"!=typeof Reflect&&Reflect.get?Reflect.get:function(t,n,e){var r=function(t,n){for(;!Object.prototype.hasOwnProperty.call(t,n)&&null!==(t=a(t)););return t}(t,n);if(r){var i=Object.getOwnPropertyDescriptor(r,n);return i.get?i.get.call(e):i.value}})(t,n,e||t)}function v(t){return function(t){if(Array.isArray(t))return y(t)}(t)||function(t){if("undefined"!=typeof Symbol&&null!=t[Symbol.iterator]||null!=t["@@iterator"])return Array.from(t)}(t)||function(t,n){if(!t)return;if("string"==typeof t)return y(t,n);var e=Object.prototype.toString.call(t).slice(8,-1);"Object"===e&&t.constructor&&(e=t.constructor.name);if("Map"===e||"Set"===e)return Array.from(t);if("Arguments"===e||/^(?:Ui|I)nt(?:8|16|32)(?:Clamped)?Array$/.test(e))return y(t,n)}(t)||function(){throw new TypeError("Invalid attempt to spread non-iterable instance.\nIn order to be iterable, non-array objects must have a [Symbol.iterator]() method.")}()}function y(t,n){(null==n||n>t.length)&&(n=t.length);for(var e=0,r=new Array(n);e<n;e++)r[e]=t[e];return r}Number.isInteger||(Number.isInteger=function(t){return"number"==typeof t&&isFinite(t)&&Math.floor(t)===t}),Number.EPSILON||(Number.EPSILON=2220446049250313e-31);var g=d(Math.pow(10,-6));function d(t){var n=arguments.length>1&&void 0!==arguments[1]?arguments[1]:6;if(Number.isInteger(t))return t;var e=Math.pow(10,n);return Math.round((+t+Number.EPSILON)*e)/e}function p(t,n){var e=arguments.length>2&&void 0!==arguments[2]?arguments[2]:g;return Math.abs(t-n)<e}var m=Math.PI/180;function b(t){return t}function w(t,n,e){var r=1-e;return 3*e*r*(t*r+n*e)+e*e*e}function x(){var t=arguments.length>0&&void 0!==arguments[0]?arguments[0]:0,n=arguments.length>1&&void 0!==arguments[1]?arguments[1]:0,e=arguments.length>2&&void 0!==arguments[2]?arguments[2]:1,r=arguments.length>3&&void 0!==arguments[3]?arguments[3]:1;return t<0||t>1||e<0||e>1?null:p(t,n)&&p(e,r)?b:function(i){if(i<=0)return t>0?i*n/t:0===n&&e>0?i*r/e:0;if(i>=1)return e<1?1+(i-1)*(r-1)/(e-1):1===e&&t<1?1+(i-1)*(n-1)/(t-1):1;for(var u,o=0,a=1;o<a;){var l=w(t,e,u=(o+a)/2);if(p(i,l))break;l<i?o=u:a=u}return w(n,r,u)}}function A(){return 1}function k(t){return 1===t?1:0}function _(){var t=arguments.length>0&&void 0!==arguments[0]?arguments[0]:1,n=arguments.length>1&&void 0!==arguments[1]?arguments[1]:0;if(1===t){if(0===n)return k;if(1===n)return A}var e=1/t;return function(t){return t>=1?1:(t+=n*e)-t%e}}var S=Math.sin,O=Math.cos,j=Math.acos,M=Math.asin,P=Math.tan,E=Math.atan2,I=Math.PI/180,R=180/Math.PI,F=Math.sqrt,N=function(){function t(){var n=arguments.length>0&&void 0!==arguments[0]?arguments[0]:1,e=arguments.length>1&&void 0!==arguments[1]?arguments[1]:0,i=arguments.length>2&&void 0!==arguments[2]?arguments[2]:0,u=arguments.length>3&&void 0!==arguments[3]?arguments[3]:1,o=arguments.length>4&&void 0!==arguments[4]?arguments[4]:0,a=arguments.length>5&&void 0!==arguments[5]?arguments[5]:0;r(this,t),this.m=[n,e,i,u,o,a],this.i=null,this.w=null,this.s=null}return u(t,[{key:"determinant",get:function(){var t=this.m;return t[0]*t[3]-t[1]*t[2]}},{key:"isIdentity",get:function(){if(null===this.i){var t=this.m;this.i=1===t[0]&&0===t[1]&&0===t[2]&&1===t[3]&&0===t[4]&&0===t[5]}return this.i}},{key:"point",value:function(t,n){var e=this.m;return{x:e[0]*t+e[2]*n+e[4],y:e[1]*t+e[3]*n+e[5]}}},{key:"translateSelf",value:function(){var t=arguments.length>0&&void 0!==arguments[0]?arguments[0]:0,n=arguments.length>1&&void 0!==arguments[1]?arguments[1]:0;if(!t&&!n)return this;var e=this.m;return e[4]+=e[0]*t+e[2]*n,e[5]+=e[1]*t+e[3]*n,this.w=this.s=this.i=null,this}},{key:"rotateSelf",value:function(){var t=arguments.length>0&&void 0!==arguments[0]?arguments[0]:0;if(t%=360){var n=S(t*=I),e=O(t),r=this.m,i=r[0],u=r[1];r[0]=i*e+r[2]*n,r[1]=u*e+r[3]*n,r[2]=r[2]*e-i*n,r[3]=r[3]*e-u*n,this.w=this.s=this.i=null}return this}},{key:"scaleSelf",value:function(){var t=arguments.length>0&&void 0!==arguments[0]?arguments[0]:1,n=arguments.length>1&&void 0!==arguments[1]?arguments[1]:1;if(1!==t||1!==n){var e=this.m;e[0]*=t,e[1]*=t,e[2]*=n,e[3]*=n,this.w=this.s=this.i=null}return this}},{key:"skewSelf",value:function(t,n){if(n%=360,(t%=360)||n){var e=this.m,r=e[0],i=e[1],u=e[2],o=e[3];t&&(t=P(t*I),e[2]+=r*t,e[3]+=i*t),n&&(n=P(n*I),e[0]+=u*n,e[1]+=o*n),this.w=this.s=this.i=null}return this}},{key:"resetSelf",value:function(){var t=arguments.length>0&&void 0!==arguments[0]?arguments[0]:1,n=arguments.length>1&&void 0!==arguments[1]?arguments[1]:0,e=arguments.length>2&&void 0!==arguments[2]?arguments[2]:0,r=arguments.length>3&&void 0!==arguments[3]?arguments[3]:1,i=arguments.length>4&&void 0!==arguments[4]?arguments[4]:0,u=arguments.length>5&&void 0!==arguments[5]?arguments[5]:0,o=this.m;return o[0]=t,o[1]=n,o[2]=e,o[3]=r,o[4]=i,o[5]=u,this.w=this.s=this.i=null,this}},{key:"recomposeSelf",value:function(){var t=arguments.length>0&&void 0!==arguments[0]?arguments[0]:null,n=arguments.length>1&&void 0!==arguments[1]?arguments[1]:null,e=arguments.length>2&&void 0!==arguments[2]?arguments[2]:null,r=arguments.length>3&&void 0!==arguments[3]?arguments[3]:null,i=arguments.length>4&&void 0!==arguments[4]?arguments[4]:null;return this.isIdentity||this.resetSelf(),t&&(t.x||t.y)&&this.translateSelf(t.x,t.y),n&&this.rotateSelf(n),e&&(e.x&&this.skewSelf(e.x,0),e.y&&this.skewSelf(0,e.y)),!r||1===r.x&&1===r.y||this.scaleSelf(r.x,r.y),i&&(i.x||i.y)&&this.translateSelf(i.x,i.y),this}},{key:"decompose",value:function(){var t=arguments.length>0&&void 0!==arguments[0]?arguments[0]:0,n=arguments.length>1&&void 0!==arguments[1]?arguments[1]:0,e=this.m,r=e[0]*e[0]+e[1]*e[1],i=[[e[0],e[1]],[e[2],e[3]]],u=F(r);if(0===u)return{origin:{x:d(e[4]),y:d(e[5])},translate:{x:d(t),y:d(n)},scale:{x:0,y:0},skew:{x:0,y:0},rotate:0};i[0][0]/=u,i[0][1]/=u;var o=e[0]*e[3]-e[1]*e[2]<0;o&&(u=-u);var a=i[0][0]*i[1][0]+i[0][1]*i[1][1];i[1][0]-=i[0][0]*a,i[1][1]-=i[0][1]*a;var l=F(i[1][0]*i[1][0]+i[1][1]*i[1][1]);if(0===l)return{origin:{x:d(e[4]),y:d(e[5])},translate:{x:d(t),y:d(n)},scale:{x:d(u),y:0},skew:{x:0,y:0},rotate:0};i[1][0]/=l,i[1][1]/=l,a/=l;var s=0;return i[1][1]<0?(s=j(i[1][1])*R,i[0][1]<0&&(s=360-s)):s=M(i[0][1])*R,o&&(s=-s),a=E(a,F(i[0][0]*i[0][0]+i[0][1]*i[0][1]))*R,o&&(a=-a),{origin:{x:d(e[4]),y:d(e[5])},translate:{x:d(t),y:d(n)},scale:{x:d(u),y:d(l)},skew:{x:d(a),y:0},rotate:d(s)}}},{key:"clone",value:function(){var t=this.m;return new this.constructor(t[0],t[1],t[2],t[3],t[4],t[5])}},{key:"toString",value:function(){var t=arguments.length>0&&void 0!==arguments[0]?arguments[0]:" ";if(null===this.s){var n=this.m.map((function(t){return d(t)}));1===n[0]&&0===n[1]&&0===n[2]&&1===n[3]?this.s="translate("+n[4]+t+n[5]+")":this.s="matrix("+n.join(t)+")"}return this.s}}],[{key:"create",value:function(t){return t?Array.isArray(t)?f(this,v(t)):t instanceof this?t.clone():(new this).recomposeSelf(t.origin,t.rotate,t.skew,t.scale,t.translate):new this}}]),t}();function T(t,n,e){return t>=.5?e:n}function q(t,n,e){return 0===t||n===e?n:t*(e-n)+n}function B(t,n,e){var r=q(t,n,e);return r<=0?0:r}function L(t,n,e){var r=q(t,n,e);return r<=0?0:r>=1?1:r}function C(t,n,e){return 0===t?n:1===t?e:{x:q(t,n.x,e.x),y:q(t,n.y,e.y)}}function D(t,n,e){var r=function(t,n,e){return Math.round(q(t,n,e))}(t,n,e);return r<=0?0:r>=255?255:r}function z(t,n,e){return 0===t?n:1===t?e:{r:D(t,n.r,e.r),g:D(t,n.g,e.g),b:D(t,n.b,e.b),a:q(t,null==n.a?1:n.a,null==e.a?1:e.a)}}function V(t,n){for(var e=[],r=0;r<t;r++)e.push(n);return e}function G(t,n){if(--n<=0)return t;var e=(t=Object.assign([],t)).length;do{for(var r=0;r<e;r++)t.push(t[r])}while(--n>0);return t}var Y,$=function(){function t(n){r(this,t),this.list=n,this.length=n.length}return u(t,[{key:"setAttribute",value:function(t,n){for(var e=this.list,r=0;r<this.length;r++)e[r].setAttribute(t,n)}},{key:"removeAttribute",value:function(t){for(var n=this.list,e=0;e<this.length;e++)n[e].removeAttribute(t)}},{key:"style",value:function(t,n){for(var e=this.list,r=0;r<this.length;r++)e[r].style[t]=n}}]),t}(),U=/-./g,Q=function(t,n){return n.toUpperCase()};function H(t){return"function"==typeof t?t:T}function J(t){return t?"function"==typeof t?t:Array.isArray(t)?function(t){var n=arguments.length>1&&void 0!==arguments[1]?arguments[1]:b;if(!Array.isArray(t))return n;switch(t.length){case 1:return _(t[0])||n;case 2:return _(t[0],t[1])||n;case 4:return x(t[0],t[1],t[2],t[3])||n}return n}(t,null):function(t,n){var e=arguments.length>2&&void 0!==arguments[2]?arguments[2]:b;switch(t){case"linear":return b;case"steps":return _(n.steps||1,n.jump||0)||e;case"bezier":case"cubic-bezier":return x(n.x1||0,n.y1||0,n.x2||0,n.y2||0)||e}return e}(t.type,t.value,null):null}function Z(t,n,e){var r=arguments.length>3&&void 0!==arguments[3]&&arguments[3],i=n.length-1;if(t<=n[0].t)return r?[0,0,n[0].v]:n[0].v;if(t>=n[i].t)return r?[i,1,n[i].v]:n[i].v;var u,o=n[0],a=null;for(u=1;u<=i;u++){if(!(t>n[u].t)){a=n[u];break}o=n[u]}return null==a?r?[i,1,n[i].v]:n[i].v:o.t===a.t?r?[u,1,a.v]:a.v:(t=(t-o.t)/(a.t-o.t),o.e&&(t=o.e(t)),r?[u,t,e(t,o.v,a.v)]:e(t,o.v,a.v))}function K(t,n){var e=arguments.length>2&&void 0!==arguments[2]?arguments[2]:null;return t&&t.length?"function"!=typeof n?null:("function"!=typeof e&&(e=null),function(r){var i=Z(r,t,n);return null!=i&&e&&(i=e(i)),i}):null}function W(t,n){return t.t-n.t}function X(t,n,r,i,u){var o,a="@"===r[0],l="#"===r[0],s=Y[r],f=T;switch(a?(o=r.substr(1),r=o.replace(U,Q)):l&&(r=r.substr(1)),e(s)){case"function":if(f=s(i,u,Z,J,r,a,n,t),l)return f;break;case"string":f=K(i,H(s));break;case"object":if((f=K(i,H(s.i),s.f))&&"function"==typeof s.u)return s.u(n,f,r,a,t)}return f?function(t,n,e){if(arguments.length>3&&void 0!==arguments[3]&&arguments[3])return t instanceof $?function(r){return t.style(n,e(r))}:function(r){return t.style[n]=e(r)};if(Array.isArray(n)){var r=n.length;return function(i){var u=e(i);if(null==u)for(var o=0;o<r;o++)t[o].removeAttribute(n);else for(var a=0;a<r;a++)t[a].setAttribute(n,u)}}return function(r){var i=e(r);null==i?t.removeAttribute(n):t.setAttribute(n,i)}}(n,r,f,a):null}function tt(t,n,r,i){if(!i||"object"!==e(i))return null;var u=null,o=null;return Array.isArray(i)?o=function(t){if(!t||!t.length)return null;for(var n=0;n<t.length;n++)t[n].e&&(t[n].e=J(t[n].e));return t.sort(W)}(i):(o=i.keys,u=i.data||null),o?X(t,n,r,o,u):null}function nt(t,n,e){if(!e)return null;var r=[];for(var i in e)if(e.hasOwnProperty(i)){var u=tt(t,n,i,e[i]);u&&r.push(u)}return r.length?r:null}function et(t,n){if(!n.settings.duration||n.settings.duration<0)return null;var e,r,i,u,o,a=function(t,n){if(!n)return null;var e=[];if(Array.isArray(n))for(var r=n.length,i=0;i<r;i++){var u=n[i];if(2===u.length){var o=null;if("string"==typeof u[0])o=t.getElementById(u[0]);else if(Array.isArray(u[0])){o=[];for(var a=0;a<u[0].length;a++)if("string"==typeof u[0][a]){var l=t.getElementById(u[0][a]);l&&o.push(l)}o=o.length?1===o.length?o[0]:new $(o):null}if(o){var s=nt(t,o,u[1]);s&&(e=e.concat(s))}}}else for(var f in n)if(n.hasOwnProperty(f)){var c=t.getElementById(f);if(c){var h=nt(t,c,n[f]);h&&(e=e.concat(h))}}return e.length?e:null}(t,n.elements);return a?(e=a,r=n.settings,i=r.duration,u=e.length,o=null,function(t,n){var a=r.iterations||1/0,l=(r.alternate&&a%2==0)^r.direction>0?i:0,s=t%i,f=1+(t-s)/i;n*=r.direction,r.alternate&&f%2==0&&(n=-n);var c=!1;if(f>a)s=l,c=!0,-1===r.fill&&(s=r.direction>0?0:i);else if(n<0&&(s=i-s),s===o)return!1;o=s;for(var h=0;h<u;h++)e[h](s);return c}):null}function rt(t,n){if(Y=n,!t||!t.root||!Array.isArray(t.animations))return null;var e=function(t){for(var n=document.getElementsByTagName("svg"),e=0;e<n.length;e++)if(n[e].id===t.root&&!n[e].svgatorAnimation)return n[e].svgatorAnimation=!0,n[e];return null}(t);if(!e)return null;var r=t.animations.map((function(t){return et(e,t)})).filter((function(t){return!!t}));return r.length?{svg:e,animations:r,animationSettings:t.animationSettings,options:t.options||void 0}:null}function it(t){return+("0x"+(t.replace(/[^0-9a-fA-F]+/g,"")||27))}function ut(t,n,e){return!t||!e||n>t.length?t:t.substring(0,n)+ut(t.substring(n+1),e,e)}function ot(t){var n=arguments.length>1&&void 0!==arguments[1]?arguments[1]:27;return!t||t%n?t%n:ot(t/n,n)}function at(t,n,e){if(t&&t.length){var r=it(e),i=it(n),u=ot(r)+5,o=ut(t,ot(r,5),u);return o=o.replace(/\x7c$/g,"==").replace(/\x2f$/g,"="),o=function(t,n,e){var r=+("0x"+t.substring(0,4));t=t.substring(4);for(var i=n%r+e%27,u=[],o=0;o<t.length;o+=2)if("|"!==t[o]){var a=+("0x"+t[o]+t[o+1])-i;u.push(a)}else{var l=+("0x"+t.substring(o+1,o+1+4))-i;o+=3,u.push(l)}return String.fromCharCode.apply(String,u)}(o=(o=atob(o)).replace(/[\x41-\x5A]/g,""),i,r),o=JSON.parse(o)}}var lt=[{key:"alternate",def:!1},{key:"fill",def:1},{key:"iterations",def:0},{key:"direction",def:1},{key:"speed",def:1},{key:"fps",def:100}],st=function(){function t(n,e){var i=this,u=arguments.length>2&&void 0!==arguments[2]?arguments[2]:null;r(this,t),this._id=0,this._running=!1,this._rollingBack=!1,this._animations=n,this._settings=e,(!u||u<"2022-05-02")&&delete this._settings.speed,lt.forEach((function(t){i._settings[t.key]=i._settings[t.key]||t.def})),this.duration=e.duration,this.offset=e.offset||0,this.rollbackStartOffset=0}return u(t,[{key:"alternate",get:function(){return this._settings.alternate}},{key:"fill",get:function(){return this._settings.fill}},{key:"iterations",get:function(){return this._settings.iterations}},{key:"direction",get:function(){return this._settings.direction}},{key:"speed",get:function(){return this._settings.speed}},{key:"fps",get:function(){return this._settings.fps}},{key:"maxFiniteDuration",get:function(){return this.iterations>0?this.iterations*this.duration:this.duration}},{key:"_apply",value:function(t){for(var n=arguments.length>1&&void 0!==arguments[1]?arguments[1]:{},e=this._animations,r=e.length,i=0,u=0;u<r;u++)n[u]?i++:(n[u]=e[u](t,1),n[u]&&i++);return i}},{key:"_rollback",value:function(t){var n=this,e=1/0,r=null;this.rollbackStartOffset=t,this._rollingBack=!0,this._running=!0;this._id=window.requestAnimationFrame((function i(u){if(n._rollingBack){null==r&&(r=u);var o=Math.round(t-(u-r)*n.speed);if(o>n.duration&&e!==1/0){var a=!!n.alternate&&o/n.duration%2>1,l=o%n.duration;o=(l+=a?n.duration:0)||n.duration}var s=(n.fps?1e3/n.fps:0)*n.speed,f=Math.max(0,o);f<e-s&&(n.offset=f,e=f,n._apply(f));var c=n.iterations>0&&-1===n.fill&&o>=n.maxFiniteDuration;(o<=0||n.offset<o||c)&&n.stop(),n._id=window.requestAnimationFrame(i)}}))}},{key:"_start",value:function(){var t=this,n=arguments.length>0&&void 0!==arguments[0]?arguments[0]:0,e=-1/0,r=null,i={};this._running=!0;var u=function u(o){null==r&&(r=o);var a=Math.round((o-r)*t.speed+n),l=(t.fps?1e3/t.fps:0)*t.speed;if(a>e+l&&!t._rollingBack&&(t.offset=a,e=a,t._apply(a,i)===t._animations.length))return void t.pause(!0);t._id=window.requestAnimationFrame(u)};this._id=window.requestAnimationFrame(u)}},{key:"_pause",value:function(){this._id&&window.cancelAnimationFrame(this._id),this._running=!1}},{key:"play",value:function(){if(!this._running)return this._rollingBack?this._rollback(this.offset):this._start(this.offset)}},{key:"stop",value:function(){this._pause(),this.offset=0,this.rollbackStartOffset=0,this._rollingBack=!1,this._apply(0)}},{key:"reachedToEnd",value:function(){return this.iterations>0&&this.offset>=this.iterations*this.duration}},{key:"restart",value:function(){var t=arguments.length>0&&void 0!==arguments[0]&&arguments[0];this.stop(t),this.play(t)}},{key:"pause",value:function(){this._pause()}},{key:"reverse",value:function(){this.direction=-this.direction}}],[{key:"build",value:function(t,n){delete t.animationSettings,t.options=at(t.options,t.root,"5c7f360c"),t.animations.map((function(n){n.settings=at(n.s,t.root,"5c7f360c"),delete n.s,t.animationSettings||(t.animationSettings=n.settings)}));var e=t.version;if(!(t=rt(t,n)))return null;var r=t.options||{},i=new this(t.animations,t.animationSettings,e);return{el:t.svg,options:r,player:i}}},{key:"push",value:function(t){return this.build(t)}},{key:"init",value:function(){var t=this,n=window.__SVGATOR_PLAYER__&&window.__SVGATOR_PLAYER__["5c7f360c"];Array.isArray(n)&&n.splice(0).forEach((function(n){return t.build(n)}))}}]),t}();function ft(t){return d(t)+""}function ct(t){var n=arguments.length>1&&void 0!==arguments[1]?arguments[1]:" ";return t&&t.length?t.map(ft).join(n):""}function ht(t){if(!t)return"transparent";if(null==t.a||t.a>=1){var n=function(t){return 1===(t=parseInt(t).toString(16)).length?"0"+t:t},e=function(t){return t.charAt(0)===t.charAt(1)},r=n(t.r),i=n(t.g),u=n(t.b);return e(r)&&e(i)&&e(u)&&(r=r.charAt(0),i=i.charAt(0),u=u.charAt(0)),"#"+r+i+u}return"rgba("+t.r+","+t.g+","+t.b+","+t.a+")"}function vt(t){return t?"url(#"+t+")":"none"}!function(){for(var t=0,n=["ms","moz","webkit","o"],e=0;e<n.length&&!window.requestAnimationFrame;++e)window.requestAnimationFrame=window[n[e]+"RequestAnimationFrame"],window.cancelAnimationFrame=window[n[e]+"CancelAnimationFrame"]||window[n[e]+"CancelRequestAnimationFrame"];window.requestAnimationFrame||(window.requestAnimationFrame=function(n){var e=Date.now(),r=Math.max(0,16-(e-t)),i=window.setTimeout((function(){n(e+r)}),r);return t=e+r,i},window.cancelAnimationFrame=window.clearTimeout)}();var yt={f:null,i:function(t,n,e){return 0===t?n:1===t?e:{x:B(t,n.x,e.x),y:B(t,n.y,e.y)}},u:function(t,n){return function(e){var r=n(e);t.setAttribute("rx",ft(r.x)),t.setAttribute("ry",ft(r.y))}}},gt={f:null,i:function(t,n,e){return 0===t?n:1===t?e:{width:B(t,n.width,e.width),height:B(t,n.height,e.height)}},u:function(t,n){return function(e){var r=n(e);t.setAttribute("width",ft(r.width)),t.setAttribute("height",ft(r.height))}}};Object.freeze({M:2,L:2,Z:0,H:1,V:1,C:6,Q:4,T:2,S:4,A:7});var dt={},pt=null;function mt(t){var n=function(){if(pt)return pt;if("object"!==("undefined"==typeof document?"undefined":e(document))||!document.createElementNS)return{};var t=document.createElementNS("http://www.w3.org/2000/svg","svg");return t&&t.style?(t.style.position="absolute",t.style.opacity="0.01",t.style.zIndex="-9999",t.style.left="-9999px",t.style.width="1px",t.style.height="1px",pt={svg:t}):{}}().svg;if(!n)return function(t){return null};var r=document.createElementNS(n.namespaceURI,"path");r.setAttributeNS(null,"d",t),r.setAttributeNS(null,"fill","none"),r.setAttributeNS(null,"stroke","none"),n.appendChild(r);var i=r.getTotalLength();return function(t){var n=r.getPointAtLength(i*t);return{x:n.x,y:n.y}}}function bt(t){return dt[t]?dt[t]:dt[t]=mt(t)}function wt(t,n,e,r){if(!t||!r)return!1;var i=["M",t.x,t.y];if(n&&e&&(i.push("C"),i.push(n.x),i.push(n.y),i.push(e.x),i.push(e.y)),n?!e:e){var u=n||e;i.push("Q"),i.push(u.x),i.push(u.y)}return n||e||i.push("L"),i.push(r.x),i.push(r.y),i.join(" ")}function xt(t,n,e,r){var i=arguments.length>4&&void 0!==arguments[4]?arguments[4]:1,u=wt(t,n,e,r),o=bt(u);try{return o(i)}catch(t){return null}}function At(t,n,e){return t+(n-t)*e}function kt(t,n,e){var r=arguments.length>3&&void 0!==arguments[3]&&arguments[3],i={x:At(t.x,n.x,e),y:At(t.y,n.y,e)};return r&&(i.a=_t(t,n)),i}function _t(t,n){return Math.atan2(n.y-t.y,n.x-t.x)}function St(t,n,e,r){var i=1-r;return i*i*t+2*i*r*n+r*r*e}function Ot(t,n,e,r){return 2*(1-r)*(n-t)+2*r*(e-n)}function jt(t,n,e,r){var i=arguments.length>4&&void 0!==arguments[4]&&arguments[4],u=xt(t,n,null,e,r);return u||(u={x:St(t.x,n.x,e.x,r),y:St(t.y,n.y,e.y,r)}),i&&(u.a=Mt(t,n,e,r)),u}function Mt(t,n,e,r){return Math.atan2(Ot(t.y,n.y,e.y,r),Ot(t.x,n.x,e.x,r))}function Pt(t,n,e,r,i){var u=i*i;return i*u*(r-t+3*(n-e))+3*u*(t+e-2*n)+3*i*(n-t)+t}function Et(t,n,e,r,i){var u=1-i;return 3*(u*u*(n-t)+2*u*i*(e-n)+i*i*(r-e))}function It(t,n,e,r,i){var u=arguments.length>5&&void 0!==arguments[5]&&arguments[5],o=xt(t,n,e,r,i);return o||(o={x:Pt(t.x,n.x,e.x,r.x,i),y:Pt(t.y,n.y,e.y,r.y,i)}),u&&(o.a=Rt(t,n,e,r,i)),o}function Rt(t,n,e,r,i){return Math.atan2(Et(t.y,n.y,e.y,r.y,i),Et(t.x,n.x,e.x,r.x,i))}function Ft(t,n,e){var r=arguments.length>3&&void 0!==arguments[3]&&arguments[3];if(Tt(n)){if(qt(e))return jt(n,e.start,e,t,r)}else if(Tt(e)){if(Bt(n))return jt(n,n.end,e,t,r)}else{if(Bt(n))return qt(e)?It(n,n.end,e.start,e,t,r):jt(n,n.end,e,t,r);if(qt(e))return jt(n,e.start,e,t,r)}return kt(n,e,t,r)}function Nt(t,n,e){var r=Ft(t,n,e,!0);return r.a=function(t){return arguments.length>1&&void 0!==arguments[1]&&arguments[1]?t+Math.PI:t}(r.a)/m,r}function Tt(t){return!t.type||"corner"===t.type}function qt(t){return null!=t.start&&!Tt(t)}function Bt(t){return null!=t.end&&!Tt(t)}var Lt=new N;var Ct={f:ft,i:q},Dt={f:ft,i:L};function zt(t,n,e){return t.map((function(t){return function(t,n,e){var r=t.v;if(!r||"g"!==r.t||r.s||!r.v||!r.r)return t;var i=e.getElementById(r.r),u=i&&i.querySelectorAll("stop")||[];return r.s=r.v.map((function(t,n){var e=u[n]&&u[n].getAttribute("offset");return{c:t,o:e=d(parseInt(e)/100)}})),delete r.v,t}(t,0,e)}))}var Vt={gt:"gradientTransform",c:{x:"cx",y:"cy"},rd:"r",f:{x:"x1",y:"y1"},to:{x:"x2",y:"y2"}};function Gt(t,n,r,i,u,o,a,l){return zt(t,0,l),n=function(t,n,e){for(var r,i,u,o=t.length-1,a={},l=0;l<=o;l++)(r=t[l]).e&&(r.e=n(r.e)),r.v&&"g"===(i=r.v).t&&i.r&&(u=e.getElementById(i.r))&&(a[i.r]={e:u,s:u.querySelectorAll("stop")});return a}(t,i,l),function(i){var u=r(i,t,Yt);if(!u)return"none";if("c"===u.t)return ht(u.v);if("g"===u.t){if(!n[u.r])return vt(u.r);var o=n[u.r];return function(t,n){for(var e=t.s,r=e.length;r<n.length;r++){var i=e[e.length-1].cloneNode();i.id=Qt(i.id),t.e.appendChild(i),e=t.s=t.e.querySelectorAll("stop")}for(var u=0,o=e.length,a=n.length-1;u<o;u++)e[u].setAttribute("stop-color",ht(n[Math.min(u,a)].c)),e[u].setAttribute("offset",n[Math.min(u,a)].o)}(o,u.s),Object.keys(Vt).forEach((function(t){if(void 0!==u[t])if("object"!==e(Vt[t])){var n,r="gt"===t?(n=u[t],Array.isArray(n)?"matrix("+n.join(" ")+")":""):u[t],i=Vt[t];o.e.setAttribute(i,r)}else Object.keys(Vt[t]).forEach((function(n){if(void 0!==u[t][n]){var e=u[t][n],r=Vt[t][n];o.e.setAttribute(r,e)}}))})),vt(u.r)}return"none"}}function Yt(t,e,r){if(0===t)return e;if(1===t)return r;if(e&&r){var i=e.t;if(i===r.t)switch(e.t){case"c":return{t:i,v:z(t,e.v,r.v)};case"g":if(e.r===r.r){var u={t:i,s:$t(t,e.s,r.s),r:e.r};return e.gt&&r.gt&&(u.gt=function(t,n,e){var r=n.length;if(r!==e.length)return T(t,n,e);for(var i=new Array(r),u=0;u<r;u++)i[u]=q(t,n[u],e[u]);return i}(t,e.gt,r.gt)),e.c?(u.c=C(t,e.c,r.c),u.rd=B(t,e.rd,r.rd)):e.f&&(u.f=C(t,e.f,r.f),u.to=C(t,e.to,r.to)),u}}if("c"===e.t&&"g"===r.t||"c"===r.t&&"g"===e.t){var o="c"===e.t?e:r,a="g"===e.t?n({},e):n({},r),l=a.s.map((function(t){return{c:o.v,o:t.o}}));return a.s="c"===e.t?$t(t,l,a.s):$t(t,a.s,l),a}}return T(t,e,r)}function $t(t,n,e){if(n.length===e.length)return n.map((function(n,r){return Ut(t,n,e[r])}));for(var r=Math.max(n.length,e.length),i=[],u=0;u<r;u++){var o=Ut(t,n[Math.min(u,n.length-1)],e[Math.min(u,e.length-1)]);i.push(o)}return i}function Ut(t,n,e){return{o:L(t,n.o,e.o||0),c:z(t,n.c,e.c||{})}}function Qt(t){return t.replace(/-fill-([0-9]+)$/,(function(t,n){return"-fill-"+(+n+1)}))}var Ht={fill:Gt,"fill-opacity":Dt,stroke:Gt,"stroke-opacity":Dt,"stroke-width":Ct,"stroke-dashoffset":{f:ft,i:q},"stroke-dasharray":{f:function(t){var n=arguments.length>1&&void 0!==arguments[1]?arguments[1]:" ";return t&&t.length>0&&(t=t.map((function(t){return d(t,4)}))),ct(t,n)},i:function(t,n,e){var r,i,u,o=n.length,a=e.length;if(o!==a)if(0===o)n=V(o=a,0);else if(0===a)a=o,e=V(o,0);else{var l=(u=(r=o)*(i=a)/function(t,n){for(var e;n;)e=n,n=t%n,t=e;return t||1}(r,i))<0?-u:u;n=G(n,Math.floor(l/o)),e=G(e,Math.floor(l/a)),o=a=l}for(var s=[],f=0;f<o;f++)s.push(d(B(t,n[f],e[f])));return s}},opacity:Dt,transform:function(t,n,r,i){if(!(t=function(t,n){if(!t||"object"!==e(t))return null;var r=!1;for(var i in t)t.hasOwnProperty(i)&&(t[i]&&t[i].length?(t[i].forEach((function(t){t.e&&(t.e=n(t.e))})),r=!0):delete t[i]);return r?t:null}(t,i)))return null;var u=function(e,i,u){var o=arguments.length>3&&void 0!==arguments[3]?arguments[3]:null;return t[e]?r(i,t[e],u):n&&n[e]?n[e]:o};return n&&n.a&&t.o?function(n){var e=r(n,t.o,Nt);return Lt.recomposeSelf(e,u("r",n,q,0)+e.a,u("k",n,C),u("s",n,C),u("t",n,C)).toString()}:function(t){return Lt.recomposeSelf(u("o",t,Ft,null),u("r",t,q,0),u("k",t,C),u("s",t,C),u("t",t,C)).toString()}},r:Ct,"#size":gt,"#radius":yt,_:function(t,n){if(Array.isArray(t))for(var e=0;e<t.length;e++)this[t[e]]=n;else this[t]=n}},Jt=function(t){!function(t,n){if("function"!=typeof n&&null!==n)throw new TypeError("Super expression must either be null or a function");t.prototype=Object.create(n&&n.prototype,{constructor:{value:t,writable:!0,configurable:!0}}),n&&l(t,n)}(o,t);var n,e,i=(n=o,e=s(),function(){var t,r=a(n);if(e){var i=a(this).constructor;t=Reflect.construct(r,arguments,i)}else t=r.apply(this,arguments);return c(this,t)});function o(){return r(this,o),i.apply(this,arguments)}return u(o,null,[{key:"build",value:function(t){var n=h(a(o),"build",this).call(this,t,Ht);if(!n)return null;n.el,n.options,function(t,n,e){t.play()}(n.player)}}]),o}(st);return Jt.init(),Jt}));
(function(s,i,o,w,a,b){w[o]=w[o]||{};w[o][s]=w[o][s]||[];w[o][s].push(i);})('5c7f360c',{"root":"eNUn8dQgD121","version":"2022-05-04","animations":[{"elements":{"eNUn8dQgD1211":{"transform":{"data":{"t":{"x":-1014.24881,"y":-987.092529}},"keys":{"o":[{"t":0,"v":{"x":1014.24881,"y":987.092529,"type":"corner"}},{"t":800,"v":{"x":1014.24881,"y":877.597381,"type":"corner"}},{"t":1600,"v":{"x":1014.24881,"y":986.597381,"type":"corner"}}]}}},"eNUn8dQgD1215":{"transform":{"data":{"t":{"x":-1597.462219,"y":-472.10408}},"keys":{"o":[{"t":0,"v":{"x":1589.199527,"y":468.137614,"type":"corner"}},{"t":800,"v":{"x":1599.261509,"y":440.729253,"type":"corner"},"e":[0.42,0,0.89,0.35]},{"t":1600,"v":{"x":1593.822653,"y":488.86938,"type":"corner"}}]}}},"eNUn8dQgD1218":{"transform":{"data":{"o":{"x":477.507232,"y":872.617147,"type":"corner"},"s":{"x":1.189101,"y":1.053796},"t":{"x":-520.021358,"y":-743.364594}},"keys":{"r":[{"t":0,"v":11.595667},{"t":500,"v":26.472594},{"t":1100,"v":-18.220442},{"t":1600,"v":5.437207}]}}}},"s":"MJDA1MzkxMzg3YUg4YjVg4Nzc4YTdmSTg1ODQGzODUwNDc0Y0Q0NjQ2ENDIzODdhN2ZQODg3YFjc5OGE3Zjg1ODQzODPUwSTQ3NDIzODdmVThThN2I4ODc3OGE3Zjg1XODRDODkzODUwRTQ2NODIzODdjN2Y4MjgyMzYg1MDQ3NDIzODc3ODJDVOGE3Yjg4ODQ3NzhhBN2IzOEU1MDdjNzc4MIjg5N2I0MjM4ODk4NjPdiN2I3YTM4NTA0NzkHz"}],"options":"MQDAxMDg4MmY4MDgxNmWVQN2Y4MTJmNDcyZjcI5N2M2ZTcxMmY4YQ|"},'__SVGATOR_PLAYER__',window)]]></script></svg>