<svg xmlns="http://www.w3.org/2000/svg" xmlns:xlink="http://www.w3.org/1999/xlink" viewBox="0 0 738.89 775.79"><defs><style>.cls-1{fill:none;}.cls-2{fill:#4f7f59;}.cls-3{fill:#cfcbbe;}.cls-4{fill:#ce4949;}.cls-5{fill:#f2f1eb;}.cls-6{fill:#ff5f4a;}.cls-7{fill:#7f635d;}.cls-8{fill:#5cbec6;}.cls-9{fill:#529ae3;}.cls-10{fill:#afada5;}.cls-11{fill:#dbd9d1;}.cls-12{fill:#5b4541;}.cls-13{fill:#fff;}.cls-14{fill:#75a378;}.cls-15{clip-path:url(#clip-path);}.cls-16{fill:#ffc7a1;}.cls-17{fill:#54678c;}.cls-18{fill:#b1d5de;}.cls-19{fill:#c66c67;}.cls-20{fill:#ffdcc5;}</style><clipPath id="clip-path" transform="translate(105.08 49.76)"><rect class="cls-1" width="536" height="475"/></clipPath></defs><g id="Capa_2" data-name="Capa 2"><g id="Capa_1-2" data-name="Capa 1"><path class="cls-2" d="M125.11,649.09s-8-14.41-23.22-5.61c-21,12.15-16.35,37.11-16.35,37.11s-17,12.81-21.55,27S60.79,726,60.79,726h83.84S145.63,671,125.11,649.09Z" transform="translate(105.08 49.76)"/><rect class="cls-3" x="560.08" y="533.76" width="135" height="242"/><polygon class="cls-4" points="519.68 418.76 386.41 418.76 573.39 540.76 706.66 540.76 716.38 522.29 519.68 418.76"/><polygon class="cls-5" points="560.08 775.76 225.08 775.76 225.08 515.52 392.58 427.43 560.08 515.52 560.08 775.76"/><polygon class="cls-6" points="583.04 522 386.83 418.73 190.63 522 200.32 540.42 386.83 442.26 573.34 540.42 583.04 522"/><rect class="cls-7" x="285.08" y="567.76" width="102" height="208"/><rect class="cls-8" x="431.08" y="567.76" width="86" height="114"/><polygon class="cls-9" points="437.08 573.76 517.08 573.76 517.08 567.76 431.08 567.76 431.08 681.76 437.08 681.76 437.08 573.76"/><rect class="cls-5" x="471.08" y="567.76" width="6" height="114"/><rect class="cls-5" x="431.08" y="621.76" width="86" height="6"/><rect class="cls-9" x="579.08" y="567.76" width="34" height="114"/><rect class="cls-10" x="595.08" y="567.76" width="2" height="114"/><rect class="cls-10" x="579.08" y="621.76" width="34" height="6"/><rect class="cls-9" x="644.08" y="567.76" width="34" height="114"/><rect class="cls-10" x="660.08" y="567.76" width="2" height="114"/><rect class="cls-10" x="644.08" y="621.76" width="34" height="6"/><rect class="cls-11" x="284.08" y="567.76" width="12" height="208"/><rect class="cls-12" x="296.08" y="567.76" width="9" height="184"/><rect class="cls-12" x="296.08" y="567.76" width="91" height="7"/><rect class="cls-13" x="262.08" y="751.76" width="125" height="24"/><polygon class="cls-11" points="225.08 537.49 397.85 448.22 386.52 442.26 225.08 527.23 225.08 537.49"/><rect class="cls-5" x="376.08" y="633.76" width="6" height="48"/><polygon class="cls-10" points="572.98 540.76 695.08 553.17 695.08 540.76 572.98 540.76"/><polygon class="cls-11" points="261.08 751.34 253.87 775.76 261.08 775.76 261.08 751.34"/><rect class="cls-11" x="346.08" y="751.76" width="41" height="24"/><polygon class="cls-5" points="515.08 451.47 556.08 473.01 556.08 381.76 515.08 381.76 515.08 451.47"/><rect class="cls-11" x="556.08" y="381.76" width="31" height="91"/><rect class="cls-13" x="244.08" y="555.76" width="143" height="12"/><rect class="cls-11" x="343.08" y="555.76" width="44" height="12"/><path class="cls-2" d="M542.11,690.57s4.8-19,19.22-19.62,18.21,2.6,18.21,2.6,1.81-24,21-23.42,19.62,48.45,19.62,48.45a7.45,7.45,0,0,1,10,0c5.41,4.4,3.21,27.42,3.21,27.42h-84S533.3,708.77,542.11,690.57Z" transform="translate(105.08 49.76)"/><path class="cls-14" d="M455,726s-9.61-22.15-2.67-36,21.33-13.88,21.33-13.88S469.91,659.6,489.43,654s26.2,22.4,26.2,22.4,8-6.14,20.28,0,10.41,32,10.41,32,5.64-2.94,11.23,5.07S563.14,726,563.14,726Z" transform="translate(105.08 49.76)"/><rect class="cls-11" x="378.08" y="509.76" width="25" height="13" rx="1.13"/><rect class="cls-11" x="405.08" y="494.76" width="25" height="13" rx="1.13"/><rect class="cls-11" x="406.08" y="510.76" width="25" height="13" rx="1.13"/><rect class="cls-11" x="312.08" y="485.76" width="25" height="13" rx="1.13"/><rect class="cls-11" x="268.08" y="537.76" width="25" height="13" rx="1.13"/><rect class="cls-11" x="246.08" y="594.76" width="25" height="13" rx="1.13"/><rect class="cls-11" x="265.08" y="611.76" width="25" height="13" rx="1.13"/><rect class="cls-11" x="411.08" y="702.76" width="25" height="13" rx="1.13"/><rect class="cls-11" x="455.08" y="759.76" width="25" height="13" rx="1.13"/><rect class="cls-11" x="482.08" y="744.76" width="25" height="13" rx="1.13"/><path class="cls-11" d="M455,653.09a1.12,1.12,0,0,0-.44-.09H432.13a1.15,1.15,0,0,0-1.13,1.13v10.74a1.15,1.15,0,0,0,1.13,1.13h22.43a1.33,1.33,0,0,0,.44-.09Z" transform="translate(105.08 49.76)"/><rect class="cls-11" x="510.08" y="539.76" width="25" height="13" rx="1.13"/><g class="cls-15"><path class="cls-4" d="M13.18,244.18s1.13,6.61,14.56,11.4c24.68,8.81,84.78-50,94.09-70.51s.7-29.16.7-29.16-17.89-24.69-67,5.11S13.18,244.18,13.18,244.18Z" transform="translate(105.08 49.76)"/><path class="cls-16" d="M293.05,254.1s26.09-18,22.73-26.92-6.55-6.51-26.95-7.59-39.8-21.14-57.18-28-29.28,3.86-38.91,6.13c-1.11.26-2.46.64-4,1.12C232.44,215.45,293.05,254.1,293.05,254.1Z" transform="translate(105.08 49.76)"/><path class="cls-5" d="M44.93,255.44s5.77,13.94,28.25,4.85c17.8-7.2,49.06-44.52,60.52-63.53,3-5.07,2.67-12.1-2-15-22.51-13.71-64,12.65-74.78,32.81A110.49,110.49,0,0,0,44.93,255.44Z" transform="translate(105.08 49.76)"/><rect class="cls-17" x="301.49" y="214.92" width="57.13" height="12.65" transform="translate(40.9 320.64) rotate(-41.01)"/><path class="cls-17" d="M350.44,64.07a100.34,100.34,0,1,1-9.87,141.57A100.34,100.34,0,0,1,350.44,64.07ZM358.59,73C322,104.81,319.22,159.64,351,196.23s86.37,41.29,123,9.48A87.93,87.93,0,0,0,358.63,73Z" transform="translate(105.08 49.76)"/><path class="cls-18" d="M359.66,70.77c-36.59,31.82-36.45,90.42-5.79,128,32.89,40.31,87.23,37.95,123.81,6.14s37.85-88.89,6-125.47A88,88,0,0,0,359.66,70.77Z" transform="translate(105.08 49.76)"/><path class="cls-9" d="M359.66,70.77a100.34,100.34,0,1,1-9.88,141.57A100.34,100.34,0,0,1,359.66,70.77ZM368,80.14a87.94,87.94,0,0,0-13.62,117.78c31.39,43.42,94.85,48.77,133.05,11.2A87.92,87.92,0,0,0,368,80.18Z" transform="translate(105.08 49.76)"/><path class="cls-6" d="M319.34,231.46h0a13.73,13.73,0,0,1-1.65,19.29l-41.14,34.64a13.74,13.74,0,0,1-19.29-1.66h0a13.72,13.72,0,0,1,1.66-19.29l41.13-34.63A13.73,13.73,0,0,1,319.34,231.46Z" transform="translate(105.08 49.76)"/><path class="cls-13" d="M412.58,81.46a44.34,44.34,0,0,0-23.24,5.72c-6.87,3.85-12.64,9.24-18,14.92-4.24,4.47,3.22,10.43,7.42,6C387.39,99,398,90.63,411.18,90.92c2.58,0,5-1.22,5.43-4C416.93,84.6,415.18,81.52,412.58,81.46Z" transform="translate(105.08 49.76)"/><path class="cls-13" d="M433.1,78a29.89,29.89,0,0,0-3.93,1.43,5.18,5.18,0,0,0-1.89,3.13,4.85,4.85,0,0,0,.87,3.54A5,5,0,0,0,431.28,88a6.86,6.86,0,0,0,3.33-.33,5.05,5.05,0,0,0,1.88-1.08,5.41,5.41,0,0,0,1.85-3.13,3.64,3.64,0,0,0-.13-1.88,3.54,3.54,0,0,0-.75-1.66A4.76,4.76,0,0,0,434.34,78Z" transform="translate(105.08 49.76)"/><path class="cls-16" d="M318.34,278.08c.26-4-3.28-9.36-7.64-14.43a86.07,86.07,0,0,0-25.77-20.19c-19.74-10.19-63.39-32.15-96.19-44.6-11.92,3.66-35.17,12.59-42.33,9-8.08-4.1-38.42-29.29-42.47-32.92S39,230.57,42.2,235.31s57,48.09,69.65,61.32,35.38,30.28,44.32,34.86,20.25,15,25,15,14.92,3.2,22.61,2.78,19.61-7.95,19.61-7.95,11.86,2.61,20.25-3.07,12.7-16.64,12.7-16.64,14,6.5,25,.07,10.3-19.84,10.3-19.84,6.16-2.48,9.57-3.73S317.66,288.1,318.34,278.08Z" transform="translate(105.08 49.76)"/><path class="cls-19" d="M256.34,288.9a.65.65,0,0,1-.64-.53.64.64,0,0,1,.48-.77h0s3.63-.86,8-6.19A42.56,42.56,0,0,0,271,268.59a.66.66,0,0,1,1.26.37h0a43.72,43.72,0,0,1-7,13.28c-4.74,5.72-8.62,6.6-8.78,6.63Z" transform="translate(105.08 49.76)"/><path class="cls-19" d="M235.87,311.18a.65.65,0,0,1-.19-1.28s2-.7,6.92-5,6.19-11.64,6.2-11.72a.65.65,0,0,1,.74-.55h0a.65.65,0,0,1,.53.75c-.05.32-1.34,7.9-6.63,12.5s-7.31,5.23-7.4,5.25Z" transform="translate(105.08 49.76)"/><path class="cls-19" d="M211.34,330.18a.66.66,0,0,1-.65-.67A.67.67,0,0,1,211,329a25.43,25.43,0,0,0,9.43-9.08.65.65,0,1,1,1.15.61,26.18,26.18,0,0,1-10,9.62A.79.79,0,0,1,211.34,330.18Z" transform="translate(105.08 49.76)"/><path class="cls-13" d="M131.68,181.8s-36.23,6.76-63,37.2c-19.86,22.56-23.74,36.44-23.74,36.44l-47.6-49s50-70.75,91.1-68.83Z" transform="translate(105.08 49.76)"/><path class="cls-6" d="M-50.82-49.76l-7,25.53-47.26,171.51L17,249.68s1.52-26.88,10.15-41.08c10.74-17.67,54.94-66.69,95.37-52.68Z" transform="translate(105.08 49.76)"/><path class="cls-20" d="M290.07,219.65s5.17,4.74,10.5,4.31,9.6-3.24,11.39-2.4c0,0-1.17-1.84-6-2.35S295.39,219.36,290.07,219.65Z" transform="translate(105.08 49.76)"/><path class="cls-19" d="M286.54,245a.79.79,0,0,1-.34-.1c-.41-.25-41.16-25.07-56.5-29.93-15.14-4.8-24.31.22-24.4.27a.66.66,0,0,1-.89-.25.64.64,0,0,1,.25-.89c.39-.22,9.75-5.35,25.44-.38,15.49,4.9,56.37,29.81,56.78,30.06a.64.64,0,0,1,.22.89h0A.67.67,0,0,1,286.54,245Z" transform="translate(105.08 49.76)"/><path class="cls-19" d="M249.71,224a.67.67,0,0,1-.45-.18c-15.66-14.59-31.13-15.15-31.29-15.15a.66.66,0,0,1-.64-.67.7.7,0,0,1,.67-.64c.16,0,16.11.55,32.16,15.51a.66.66,0,0,1,0,.92.69.69,0,0,1-.49.21Z" transform="translate(105.08 49.76)"/></g></g></g></svg>